<svg width="251" height="193" viewBox="0 0 251 193" fill="none" xmlns="http://www.w3.org/2000/svg">
<path d="M37.0112 146.42C14.8238 107.802 47.0648 11.8101 154.725 43.1109C251.191 71.1573 73.1913 230.082 37.0112 146.42Z" fill="#045837" stroke="#045837"/>
<path d="M57.2103 108.587L55.6207 108.725L57.2972 94.964L64.0903 94.3711L63.9364 95.8093L58.6868 96.2675L58.1001 101.282L62.98 100.856L62.8077 102.296L57.9185 102.723L57.2103 108.587ZM68.8197 97.2364C69.9904 97.1342 70.945 97.4017 71.6835 98.0388C72.4215 98.6697 72.8435 99.5921 72.9494 100.806C73.0505 101.964 72.9241 103.077 72.5703 104.145C72.2165 105.213 71.6851 106.06 70.9762 106.687C70.2673 107.314 69.4353 107.669 68.4803 107.752C67.2972 107.855 66.3396 107.588 65.6072 106.95C64.8748 106.313 64.456 105.39 64.3506 104.182C64.2484 103.012 64.3773 101.892 64.7373 100.824C65.0967 99.7498 65.6345 98.905 66.3507 98.29C67.0663 97.6688 67.8893 97.3176 68.8197 97.2364ZM71.3227 100.734C71.2609 100.025 71.0168 99.469 70.5904 99.0654C70.1697 98.6551 69.6297 98.4788 68.9704 98.5363C68.2988 98.5949 67.7149 98.8756 67.2186 99.3783C66.7285 99.8805 66.3711 100.551 66.1463 101.39C65.9272 102.223 65.8609 103.135 65.9475 104.127C66.0179 104.934 66.2666 105.543 66.6935 105.952C67.126 106.355 67.7089 106.525 68.4421 106.461C69.0829 106.405 69.6393 106.13 70.1115 105.635C70.5836 105.141 70.9254 104.469 71.1368 103.618C71.3537 102.761 71.4157 101.8 71.3227 100.734ZM66.6627 94.9288C66.6379 94.6454 66.7029 94.3945 66.8577 94.1761C67.012 93.9516 67.2308 93.8269 67.5142 93.8022C67.9948 93.7603 68.2566 93.9857 68.2996 94.4787C68.326 94.7806 68.2559 95.0443 68.0893 95.27C67.9289 95.495 67.7286 95.6181 67.4883 95.639C67.2726 95.6579 67.0849 95.606 66.9252 95.4833C66.7717 95.3601 66.6842 95.1753 66.6627 94.9288ZM70.0268 94.6352C70.0021 94.3518 70.0671 94.1009 70.2219 93.8825C70.3761 93.658 70.598 93.5331 70.8876 93.5078C71.3621 93.4664 71.6208 93.6921 71.6638 94.1851C71.6902 94.487 71.6201 94.7507 71.4535 94.9764C71.2931 95.2014 71.0927 95.3245 70.8524 95.3454C70.6368 95.3643 70.4491 95.3123 70.2894 95.1897C70.1359 95.0665 70.0483 94.8817 70.0268 94.6352ZM80.4508 96.1654C80.8759 96.1283 81.2494 96.1391 81.5712 96.198L81.3594 97.6134C81.0259 97.5618 80.6989 97.5499 80.3785 97.5779C79.8178 97.6268 79.3071 97.8577 78.8465 98.2704C78.392 98.6825 78.0087 99.2344 77.6965 99.9259C77.39 100.611 77.1854 101.361 77.0828 102.177L76.4988 106.903L74.9461 107.039L76.2248 96.7205L77.5094 96.6083L77.4698 98.5023L77.5623 98.4942C77.9548 97.8701 78.2848 97.4192 78.5524 97.1413C78.8194 96.8572 79.1041 96.6337 79.4065 96.4707C79.7145 96.301 80.0626 96.1993 80.4508 96.1654ZM86.4688 106.219C85.3351 106.318 84.4155 106.06 83.7099 105.445C83.0043 104.83 82.5997 103.928 82.4959 102.739C82.3948 101.58 82.526 100.451 82.8894 99.3517C83.2585 98.2454 83.7962 97.3634 84.5024 96.7058C85.2086 96.0481 86.0177 95.6795 86.9296 95.5999C87.8723 95.5177 88.5989 95.6622 89.1093 96.0337C89.6193 96.3989 89.9062 96.9481 89.9702 97.6814C90.067 98.7904 89.6317 99.7069 88.6643 100.431C87.6963 101.149 86.2604 101.59 84.3565 101.757L84.0515 101.783L84.0791 102.526C84.1495 103.333 84.3926 103.948 84.8082 104.371C85.2295 104.788 85.8375 104.961 86.6324 104.892C87.0205 104.858 87.4131 104.768 87.8101 104.622C88.2132 104.475 88.7069 104.227 89.2911 103.878L89.4088 105.227C88.8533 105.549 88.3583 105.781 87.9238 105.925C87.4899 106.074 87.0049 106.173 86.4688 106.219ZM86.9525 96.9296C86.3179 96.985 85.7455 97.3268 85.2354 97.9549C84.7314 98.5825 84.3764 99.4237 84.1705 100.478L84.2814 100.469C85.6862 100.346 86.7455 100.071 87.4593 99.642C88.1787 99.2067 88.5081 98.6409 88.4473 97.9446C88.4188 97.6181 88.2812 97.3569 88.0344 97.1612C87.7937 96.9649 87.4331 96.8877 86.9525 96.9296ZM93.3197 105.435L91.767 105.571L93.5803 90.922L95.133 90.7864L93.3197 105.435ZM101.052 94.3674C101.619 94.318 102.137 94.4279 102.608 94.6973C103.078 94.9605 103.461 95.3678 103.757 95.9193L103.859 95.9104L104.34 94.2667L105.513 94.1643L104.244 104.482L103.015 104.589L103.086 102.636L103.013 102.643C102.033 104.15 100.933 104.957 99.7129 105.063C98.8565 105.138 98.1582 104.892 97.6183 104.324C97.0783 103.757 96.762 102.943 96.6695 101.883C96.5577 100.602 96.6726 99.3935 97.0144 98.2586C97.3561 97.1237 97.8849 96.2114 98.6008 95.5219C99.3167 94.8324 100.134 94.4476 101.052 94.3674ZM100.1 103.735C100.698 103.683 101.267 103.348 101.809 102.729C102.351 102.105 102.767 101.32 103.057 100.376C103.346 99.4257 103.451 98.4915 103.371 97.5734C103.316 96.9388 103.099 96.4486 102.721 96.1029C102.343 95.7571 101.874 95.6087 101.313 95.6577C100.673 95.7136 100.098 96.0307 99.5897 96.609C99.0876 97.1867 98.7189 97.9422 98.4837 98.8754C98.2485 99.8085 98.1748 100.777 98.2624 101.782C98.3237 102.484 98.5145 102.998 98.8347 103.324C99.1544 103.644 99.5761 103.781 100.1 103.735ZM99.1306 92.0952C99.1058 91.8118 99.1708 91.5609 99.3256 91.3425C99.4798 91.1179 99.6987 90.9933 99.9821 90.9686C100.463 90.9266 100.725 91.1521 100.768 91.645C100.794 91.9469 100.724 92.2107 100.557 92.4363C100.397 92.6614 100.196 92.7844 99.9562 92.8054C99.7405 92.8242 99.5528 92.7723 99.3931 92.6497C99.2396 92.5265 99.1521 92.3417 99.1306 92.0952ZM102.495 91.8016C102.47 91.5182 102.535 91.2673 102.69 91.0489C102.844 90.8243 103.066 90.6994 103.356 90.6741C103.83 90.6327 104.089 90.8585 104.132 91.3514C104.158 91.6533 104.088 91.9171 103.921 92.1427C103.761 92.3678 103.561 92.4908 103.32 92.5118C103.105 92.5306 102.917 92.4787 102.757 92.3561C102.604 92.2329 102.516 92.0481 102.495 91.8016ZM113.291 100.796C113.375 101.757 113.098 102.539 112.462 103.141C111.831 103.736 110.896 104.087 109.658 104.195C108.616 104.286 107.658 104.156 106.783 103.804L106.656 102.344C107.109 102.565 107.592 102.724 108.104 102.822C108.615 102.921 109.083 102.951 109.508 102.914C110.285 102.846 110.857 102.641 111.224 102.299C111.592 101.956 111.754 101.545 111.712 101.064C111.682 100.713 111.548 100.427 111.311 100.205C111.075 99.9835 110.581 99.6945 109.83 99.3379C108.989 98.958 108.384 98.567 108.014 98.1647C107.643 97.7624 107.432 97.2655 107.381 96.674C107.306 95.8238 107.558 95.1127 108.135 94.5408C108.712 93.9628 109.508 93.6294 110.525 93.5407C111.579 93.4487 112.615 93.5879 113.635 93.9584L113.246 95.2681L112.708 95.0822C112.063 94.8716 111.374 94.7983 110.64 94.8623C110.067 94.9123 109.629 95.0871 109.326 95.3867C109.023 95.6802 108.89 96.0394 108.927 96.4646C108.957 96.8096 109.091 97.096 109.328 97.3236C109.571 97.5507 110.052 97.8285 110.77 98.157C111.461 98.4691 111.96 98.7453 112.267 98.9855C112.579 99.2252 112.82 99.4929 112.989 99.7886C113.157 100.078 113.257 100.414 113.291 100.796ZM121.601 102.967L122.41 96.4519C122.478 95.8003 122.501 95.3513 122.479 95.1049C122.445 94.7167 122.307 94.4152 122.065 94.2005C121.829 93.9851 121.471 93.8984 120.99 93.9404C120.442 93.9883 119.922 94.2199 119.43 94.6353C118.945 95.0501 118.532 95.617 118.191 96.3359C117.856 97.0542 117.63 97.909 117.512 98.9003L116.961 103.372L115.409 103.507L116.687 93.1891L117.972 93.077L117.932 94.9709L118.025 94.9628C118.551 94.1595 119.074 93.5799 119.596 93.2239C120.123 92.8613 120.682 92.6542 121.274 92.6026C122.056 92.5343 122.691 92.6961 123.179 93.0882C123.672 93.4735 123.952 94.0513 124.019 94.8215C124.061 95.3082 124.039 95.869 123.952 96.5036L123.172 102.83L121.601 102.967ZM127.886 102.418L126.333 102.554L127.611 92.2357L129.164 92.1002L127.886 102.418ZM127.82 89.6099C127.79 89.2649 127.864 88.976 128.042 88.7431C128.22 88.5041 128.466 88.3708 128.78 88.3434C129.323 88.2961 129.618 88.5497 129.666 89.1042C129.696 89.4431 129.616 89.7388 129.427 89.9912C129.244 90.2431 129.017 90.3808 128.746 90.4045C128.5 90.426 128.29 90.3698 128.117 90.2359C127.943 90.0959 127.844 89.8872 127.82 89.6099ZM137.331 101.594L138.141 95.079C138.208 94.4275 138.231 93.9785 138.209 93.732C138.176 93.3438 138.037 93.0424 137.795 92.8276C137.559 92.6123 137.201 92.5256 136.72 92.5675C136.172 92.6154 135.652 92.847 135.16 93.2624C134.675 93.6773 134.262 94.2441 133.921 94.963C133.587 95.6814 133.36 96.5362 133.242 97.5274L132.691 101.999L131.139 102.134L132.417 91.8162L133.702 91.7041L133.662 93.598L133.755 93.59C134.281 92.7866 134.804 92.207 135.326 91.8511C135.853 91.4884 136.412 91.2813 137.004 91.2297C137.786 91.1614 138.421 91.3233 138.909 91.7153C139.402 92.1007 139.682 92.6784 139.749 93.4486C139.792 93.9354 139.769 94.4961 139.682 95.1308L138.902 101.457L137.331 101.594ZM150.8 90.2119L150.655 91.221L148.725 91.613C149.011 91.9729 149.179 92.4487 149.231 93.0402C149.334 94.217 149.055 95.1881 148.396 95.9534C147.742 96.712 146.814 97.1438 145.613 97.2486C145.274 97.2782 145.013 97.2762 144.83 97.2425C144.002 97.6438 143.609 98.0847 143.651 98.5653C143.673 98.8179 143.789 98.9785 144 99.047C144.21 99.1094 144.512 99.1482 144.904 99.1637L145.997 99.1987C147.124 99.2369 147.955 99.4376 148.489 99.8007C149.03 100.163 149.335 100.739 149.404 101.528C149.503 102.661 149.13 103.578 148.284 104.279C147.439 104.98 146.2 105.402 144.567 105.544C143.372 105.649 142.415 105.502 141.698 105.106C140.981 104.715 140.586 104.107 140.514 103.281C140.458 102.634 140.631 102.054 141.033 101.541C141.435 101.028 142.118 100.562 143.081 100.142C142.578 99.9317 142.305 99.5799 142.262 99.0869C142.225 98.6618 142.35 98.2846 142.638 97.9552C142.926 97.6197 143.338 97.295 143.876 96.9812C143.47 96.8179 143.128 96.556 142.848 96.1955C142.568 95.8288 142.405 95.3898 142.36 94.8784C142.256 93.683 142.537 92.6714 143.204 91.8434C143.876 91.0148 144.786 90.5505 145.932 90.4505C146.412 90.4086 146.892 90.4288 147.371 90.5111L150.8 90.2119ZM141.999 103.003C142.04 103.477 142.273 103.835 142.698 104.078C143.122 104.32 143.729 104.407 144.518 104.338C145.639 104.24 146.497 103.967 147.091 103.517C147.692 103.074 147.961 102.495 147.898 101.78C147.865 101.398 147.672 101.111 147.32 100.918C146.968 100.725 146.388 100.62 145.579 100.604L144.097 100.584C143.371 100.803 142.828 101.124 142.467 101.546C142.107 101.969 141.951 102.454 141.999 103.003ZM143.862 94.6914C143.908 95.2152 144.081 95.6036 144.383 95.8566C144.684 96.1035 145.081 96.2055 145.574 96.1625C146.06 96.12 146.474 95.9535 146.815 95.663C147.156 95.3725 147.402 94.994 147.554 94.5275C147.712 94.0544 147.767 93.5528 147.721 93.023C147.677 92.5177 147.508 92.1445 147.213 91.9032C146.919 91.6619 146.519 91.5633 146.014 91.6074C145.534 91.6493 145.123 91.8125 144.781 92.0968C144.445 92.3745 144.195 92.7471 144.031 93.2146C143.873 93.6754 143.816 94.1677 143.862 94.6914Z" fill="#DEF8D9"/>
</svg>
