<svg width="201" height="256" viewBox="0 0 201 256" fill="none" xmlns="http://www.w3.org/2000/svg">
<g filter="url(#filter0_d)">
<path d="M72.1183 215.474C71.2992 220.088 70.7211 224.741 70.3862 229.415C73.645 230.917 76.8938 226.287 80.2077 226.597C80.5681 226.632 80.9736 226.692 81.2439 226.207C81.4568 225.687 81.5705 225.131 81.5793 224.57L82.5354 213.522C79.1264 214.498 75.7174 215.474 72.1183 215.474Z" fill="#CD8E89"/>
<path d="M124.434 218.312C124.309 218.393 124.339 217.882 124.469 217.922C124.599 217.962 124.639 218.267 124.654 218.513C124.749 220.44 124.379 222.327 124.259 224.249C124.139 226.172 124.374 228.454 125.26 229.34C125.961 230.031 126.802 229.626 127.563 229.21L135.152 225.02L134.826 215.084C134.838 214.616 134.772 214.149 134.631 213.702C134.589 213.589 134.524 213.486 134.44 213.399C134.357 213.312 134.257 213.243 134.146 213.196C134.035 213.149 133.915 213.126 133.795 213.127C133.674 213.127 133.555 213.153 133.445 213.201C130.117 213.95 126.849 214.944 123.668 216.175C123.868 217.161 124.069 218.162 124.434 218.312Z" fill="#CD8E89"/>
<path d="M94.4794 52.2742C94.1897 49.1672 94.2468 46.0376 94.6496 42.9433C94.6852 42.3899 94.8388 41.8505 95.1001 41.3615C95.5006 40.7457 96.1914 40.5755 96.8221 40.3603C98.9049 39.6144 100.679 38.1944 101.863 36.3256C102.134 35.9732 102.333 35.5705 102.447 35.1409C102.561 34.7112 102.589 34.2632 102.529 33.8227C102.334 32.8966 101.628 32.2458 101.027 31.6301C99.4752 30.0983 98.0686 28.0309 97.7782 25.6832C97.4879 23.3355 98.7093 20.8426 100.577 20.9327C101.578 20.9827 102.529 21.7036 103.5 22.1541C104.471 22.6046 105.682 22.7047 106.243 21.7536C106.709 20.9527 106.523 19.7513 106.318 18.7501L105.067 12.3877L115.804 11.6369C116.365 11.5352 116.944 11.6382 117.436 11.9272C118.062 12.3727 118.387 13.2788 118.638 14.1147C120.865 21.5534 121.481 29.3525 122.072 37.0314C122.252 39.4092 122.427 41.8871 121.731 43.9845C121.293 45.364 120.406 46.5572 119.212 47.3738C118.017 48.1904 116.583 48.5832 115.138 48.4898C112.355 48.3346 109.607 46.6877 107.184 44.6002C106.053 43.6241 104.256 42.683 103.755 44.0996C103.635 44.5664 103.623 45.0543 103.72 45.5263C104.055 48.0626 104.753 50.5375 105.793 52.8749C102.098 53.015 98.384 53.1552 94.4794 52.2742Z" fill="#CD8E89"/>
<path d="M108.466 27.1299C106.879 25.2828 104.696 23.2654 102.799 24.2215C100.797 25.2227 100.917 28.7268 101.958 31.1496C102.842 33.2431 104.215 35.0938 105.963 36.5459C106.527 36.9155 106.976 37.4357 107.259 38.0476C107.735 39.4192 106.478 40.5505 105.362 41.0211C102.114 42.326 98.4923 42.35 95.2274 41.0883C91.9625 39.8265 89.2979 37.3731 87.7717 34.2232C85.8644 30.2185 85.8044 25.518 86.3951 21.208C86.6562 18.9437 87.2255 16.7256 88.087 14.6153C91.4209 7.01148 99.4252 4.39344 106.794 3.18703C108.591 2.88668 110.443 2.62638 112.275 3.0719C113.26 3.30468 114.179 3.75757 114.964 4.39655C115.748 5.03552 116.378 5.84398 116.805 6.76119C117.676 8.76352 117.256 11.4667 115.634 12.3377C114.328 13.0385 112.42 12.613 111.654 14.0347C111.254 14.7805 111.344 15.7667 111.394 16.6827C111.567 19.6912 111.108 22.7025 110.048 25.523C109.837 26.0687 109.547 26.6443 109.071 26.8145C108.679 26.8996 108.27 26.8557 107.905 26.6894C106.478 26.2138 105.037 25.7383 108.466 27.1299Z" fill="black"/>
<path d="M87.7966 16.1521C82.6406 5.32452 72.4988 -2.39947 64.3343 0.684121C55.7343 3.94792 51.8498 17.2534 43.3749 20.8326C40.3714 22.094 37.0225 22.044 34.0841 23.4306C26.4452 27.0298 22.6508 39.7246 14.271 40.4104C12.9144 40.5205 11.3526 40.3753 10.5066 41.6568C9.2802 43.514 10.4766 46.8879 12.0084 48.9303C17.4097 56.1086 25.6443 55.9084 31.9416 53.0401C35.5658 51.3881 39.0499 48.9453 41.2074 44.8255C43.9556 39.5794 44.371 31.9705 48.0153 27.8507C48.7211 27.0548 49.6021 26.3941 50.6083 26.5442C51.5194 26.6844 52.3704 27.4603 53.2163 28.101C57.1659 31.1045 61.9465 31.2647 65.3455 28.5466C68.6093 25.9385 70.5315 21.0078 73.9905 18.8202C78.2605 16.1271 83.9171 18.1645 87.7966 16.1521Z" fill="black"/>
<path d="M84.0824 110.367C85.0585 125.479 86.0246 140.807 82.946 155.629C81.6145 162.022 79.5521 168.234 77.6849 174.486C73.4677 188.636 70.2593 203.068 68.0837 217.672C72.6678 216.239 77.5195 215.878 82.2652 216.615C83.6669 216.836 85.2287 217.116 86.4101 216.335C87.0467 215.838 87.5606 215.201 87.9118 214.473C93.0428 205.658 98.1938 196.792 101.838 187.266C104.646 179.938 106.528 172.289 108.371 164.66C112.165 148.952 115.823 133.21 119.343 117.435C119.539 116.564 119.714 115.583 119.228 114.832C118.743 114.081 117.847 113.861 117.011 113.666C106.323 111.198 95.4105 109.656 84.0824 110.367Z" fill="url(#paint0_linear)"/>
<path d="M108.556 164.375C116.495 179.477 114.773 197.914 120.87 213.862C121.251 214.863 121.721 215.9 122.647 216.415C123.483 216.876 124.499 216.801 125.45 216.706L139.001 215.399C139.378 215.395 139.748 215.297 140.077 215.114C140.773 214.653 140.763 213.652 140.678 212.821C139.173 197.964 138.275 183.06 137.985 168.109C137.64 150.318 138.09 132.027 131.878 115.348C131.377 113.981 130.661 112.479 129.27 112.039C128.269 111.723 127.187 112.064 126.191 112.399L116.18 115.793L109.457 154.248C108.796 158.222 107.685 162.698 108.556 164.375Z" fill="url(#paint1_linear)"/>
<path d="M115.894 146.249C117.088 149.562 119.005 152.568 121.506 155.049C124.027 157.529 127.307 159.092 130.822 159.489C131.298 159.57 131.788 159.507 132.228 159.309C133.154 158.808 133.154 157.482 132.919 156.45C132.145 153.1 130.258 150.111 127.568 147.971C127.212 147.69 126.807 147.195 127.112 146.854C127.222 146.748 127.362 146.678 127.513 146.654C128.534 146.394 129.605 146.394 130.626 146.654C131.332 146.834 132.258 147.07 132.664 146.459C133.134 145.753 132.288 144.922 131.553 144.502C129.005 143.03 126.011 141.523 123.253 142.544C121.926 143.045 120.875 144.046 119.749 144.917C118.622 145.788 117.306 146.549 115.894 146.249Z" fill="#CD8E89"/>
<path d="M174.087 83.6957C174.426 83.9039 174.811 84.026 175.208 84.0513C175.605 84.0766 176.002 84.0044 176.365 83.8409C177.084 83.5073 177.745 83.0594 178.322 82.5144C181.345 79.9847 184.502 77.6185 187.778 75.4261C188.339 75.0507 189.084 74.6702 189.655 75.0407C190.416 75.5412 190.025 76.7076 189.53 77.4635C188.307 79.3116 186.885 81.0204 185.29 82.5594C184.724 83.105 184.099 83.966 184.594 84.5617C185.28 85.4077 186.722 84.1863 187.713 84.6468C187.985 84.8029 188.216 85.0207 188.389 85.2826C188.684 85.648 189.004 86.1035 188.864 86.5541C188.782 86.7319 188.664 86.8908 188.518 87.0209C188.371 87.151 188.199 87.2494 188.013 87.3099C184.874 88.7566 181.37 89.1421 177.931 89.4925C177.13 89.5776 176.154 89.5876 175.704 88.9168C175.541 88.6224 175.444 88.2963 175.418 87.9607C175.188 86.4389 174.973 84.9372 174.087 83.6957Z" fill="#CD8E89"/>
<path d="M102.904 50.8225H113.181C113.181 50.8225 131.237 91.4898 139.211 94.9638C147.186 98.4379 142.715 94.9638 142.715 94.9638L152.141 109.346L123.458 113.315L102.904 50.8225Z" fill="#B8AD4C"/>
<path d="M88.6577 52.8198H98.9347C98.9347 52.8198 116.996 93.4871 124.99 96.9612C132.984 100.435 128.494 96.9612 128.494 96.9612L137.92 111.343L109.217 115.318L88.6577 52.8198Z" fill="#B8AD4C"/>
<path d="M94.9248 52.8198H105.202C105.202 52.8198 123.258 93.4871 131.232 96.9612C139.206 100.435 134.736 96.9612 134.736 96.9612L144.162 111.343L115.479 115.318L94.9248 52.8198Z" fill="#B8AD4C"/>
<path d="M114.803 52.8198L127.918 71.7919C132.494 78.4046 137.164 85.1274 143.436 90.1382C144.888 91.2946 146.47 92.3758 148.287 92.7613C151.185 93.377 154.124 92.1255 156.797 90.819C161.541 88.4849 166.145 85.8741 170.583 82.9999C172.085 81.9987 173.712 80.9726 175.514 80.9675C178.752 80.9675 181.085 84.5467 180.88 87.7805C180.675 91.0142 178.672 93.8375 176.575 96.2904C170.313 103.664 161.873 109.906 152.227 110.632C150.371 110.836 148.493 110.638 146.72 110.051C144.683 109.301 143.006 107.834 141.434 106.342C126.316 92.0404 116.039 72.6629 114.803 52.8198Z" fill="#045837"/>
<path d="M85.9895 51.4182C84.8682 50.2818 83.1261 49.0904 81.9347 50.0816C81.5994 50.3619 70.0059 82.4393 69.4502 99.1387C69.25 104.986 109.352 150.088 111.444 150.078C142.02 149.913 121.881 136.087 116.87 129.409C114.092 125.71 109.362 123.142 108.576 118.561C107.87 114.457 110.768 110.767 113.747 108.049C116.725 105.331 120.179 102.703 121.17 98.7032C122.602 92.9415 97.8483 63.4321 85.9895 51.4182Z" fill="#045837"/>
<path d="M83.6617 221.441C81.6464 222.542 79.4179 223.197 77.1274 223.361C74.8369 223.525 72.5379 223.194 70.3862 222.392L71.2172 232.169C71.2012 232.787 71.3954 233.392 71.7678 233.886C72.1211 234.2 72.5571 234.407 73.0243 234.481C75.0649 234.891 77.1466 235.059 79.2265 234.982C86.9255 234.982 94.6228 234.827 102.318 234.516C103.54 234.471 104.821 234.411 105.908 233.866C106.994 233.32 107.91 232.149 107.71 230.932C107.552 230.222 107.178 229.578 106.638 229.09C104.291 226.732 100.752 226.122 97.4578 225.631L90.1743 224.55C87.7715 224.164 84.9932 223.544 83.6617 221.441Z" fill="#045837"/>
<path d="M136.583 221.576C134.585 223.116 132.201 224.075 129.694 224.35C127.186 224.625 124.651 224.204 122.367 223.133C122.117 225.748 122.206 228.385 122.632 230.977C122.705 231.744 122.965 232.481 123.388 233.125C124.034 233.839 124.908 234.306 125.861 234.446C127.749 234.788 129.673 234.892 131.587 234.757L155.851 234.056C156.952 234.026 158.294 233.841 158.709 232.819C158.815 232.45 158.827 232.061 158.745 231.686C158.662 231.311 158.489 230.963 158.238 230.672C156.672 228.489 153.778 227.808 151.14 227.288L142.37 225.546C139.917 225.06 136.979 224.109 136.583 221.576Z" fill="#045837"/>
</g>
<defs>
<filter id="filter0_d" x="0" y="0" width="200.082" height="256" filterUnits="userSpaceOnUse" color-interpolation-filters="sRGB">
<feFlood flood-opacity="0" result="BackgroundImageFix"/>
<feColorMatrix in="SourceAlpha" type="matrix" values="0 0 0 0 0 0 0 0 0 0 0 0 0 0 0 0 0 0 127 0"/>
<feOffset dy="11"/>
<feGaussianBlur stdDeviation="5"/>
<feColorMatrix type="matrix" values="0 0 0 0 0 0 0 0 0 0 0 0 0 0 0 0 0 0 0.25 0"/>
<feBlend mode="normal" in2="BackgroundImageFix" result="effect1_dropShadow"/>
<feBlend mode="normal" in="SourceGraphic" in2="effect1_dropShadow" result="shape"/>
</filter>
<linearGradient id="paint0_linear" x1="38.5844" y1="183.802" x2="279.124" y2="78.4997" gradientUnits="userSpaceOnUse">
<stop stop-color="#045837"/>
<stop offset="0.35" stop-color="#B8AD4C"/>
</linearGradient>
<linearGradient id="paint1_linear" x1="9367.09" y1="48114.3" x2="27631.1" y2="45637.6" gradientUnits="userSpaceOnUse">
<stop stop-color="#045837"/>
<stop offset="0.35" stop-color="#B8AD4C"/>
</linearGradient>
</defs>
</svg>
