<svg width="167" height="168" viewBox="0 0 167 168" fill="none" xmlns="http://www.w3.org/2000/svg">
<path d="M38.8525 35.9894C73.236 26.1814 170.072 21.4721 124.614 121.392C83.882 210.923 -38.6791 52.8666 38.8525 35.9894Z" fill="#045837" stroke="#045837"/>
<path d="M37.252 89L35.2256 73.1797H35.1279C35.071 73.7656 34.953 74.5713 34.7739 75.5967C34.603 76.6139 34.4525 77.4237 34.3223 78.0259L32.0029 89H30.0254L33.7974 71.1533H36.7759L38.5947 85.8506H38.7046L46.749 71.1533H49.9961L46.2974 89H44.1733C45.1987 84.1986 45.984 80.5161 46.5293 77.9526C47.0745 75.381 47.457 73.7819 47.6768 73.1553H47.6035L38.8511 89H37.252ZM57.7231 75.377C58.4718 75.377 59.1392 75.5804 59.7251 75.9873C60.311 76.3861 60.7668 76.9639 61.0923 77.7207H61.2266L62.0444 75.6211H63.5947L60.7505 89H59.127L59.4443 86.4487H59.3467C57.89 88.3123 56.356 89.2441 54.7446 89.2441C53.6134 89.2441 52.7264 88.8413 52.0835 88.0356C51.4406 87.23 51.1191 86.1273 51.1191 84.7275C51.1191 83.0348 51.408 81.4642 51.9858 80.0156C52.5636 78.5671 53.3612 77.4318 54.3784 76.6099C55.3957 75.7879 56.5106 75.377 57.7231 75.377ZM55.4038 87.5474C56.1932 87.5474 56.9785 87.173 57.7598 86.4243C58.541 85.6675 59.1758 84.6868 59.6641 83.4824C60.1523 82.2699 60.3965 81.0573 60.3965 79.8447C60.3965 79.0065 60.1686 78.3392 59.7129 77.8428C59.2572 77.3464 58.659 77.0981 57.9185 77.0981C57.0721 77.0981 56.2827 77.4481 55.5503 78.1479C54.826 78.8478 54.2563 79.7959 53.8413 80.9922C53.4263 82.1885 53.2188 83.4499 53.2188 84.7764C53.2188 85.7041 53.41 86.3999 53.7925 86.8638C54.175 87.3195 54.7121 87.5474 55.4038 87.5474ZM73.2383 75.377C73.7998 75.377 74.2881 75.4339 74.7031 75.5479L74.2637 77.3789C73.8324 77.2731 73.4051 77.2202 72.9819 77.2202C72.2414 77.2202 71.5456 77.4644 70.8945 77.9526C70.2516 78.4409 69.686 79.1204 69.1978 79.9912C68.7176 80.8538 68.3636 81.8141 68.1357 82.8721L66.8296 89H64.7788L67.6353 75.6211H69.332L69.0635 78.0991H69.1855C69.7715 77.326 70.2557 76.7726 70.6382 76.439C71.0207 76.0972 71.4194 75.8368 71.8345 75.6577C72.2576 75.4705 72.7256 75.377 73.2383 75.377ZM77.999 82.1763L84.4199 75.6211H86.8735L81.1484 81.3218L84.7495 89H82.4668L79.5981 82.6035L77.7427 84.105L76.7417 89H74.6665L78.6948 70.0059H80.77C80.1841 72.7402 79.6592 75.1898 79.1953 77.3545C78.7314 79.5192 78.3164 81.1265 77.9502 82.1763H77.999ZM95.0767 89L96.8833 80.5527C97.0461 79.7064 97.1274 79.1204 97.1274 78.7949C97.1274 78.2822 96.981 77.8713 96.688 77.562C96.4032 77.2528 95.9434 77.0981 95.3086 77.0981C94.5843 77.0981 93.8763 77.3423 93.1846 77.8306C92.501 78.3188 91.8947 79.0146 91.3657 79.918C90.8449 80.8213 90.4502 81.9159 90.1816 83.2017L88.9487 89H86.8979L89.7544 75.6211H91.4512L91.1826 78.0991H91.3047C92.0859 77.1063 92.8387 76.4064 93.563 75.9995C94.2954 75.5845 95.0522 75.377 95.8335 75.377C96.867 75.377 97.6808 75.6618 98.2749 76.2314C98.8771 76.793 99.1782 77.5824 99.1782 78.5996C99.1782 79.2425 99.0846 79.9749 98.8975 80.7969L97.1519 89H95.0767ZM108.407 75.377C109.155 75.377 109.823 75.5804 110.409 75.9873C110.995 76.3861 111.45 76.9639 111.776 77.7207H111.91L112.728 75.6211H114.278L111.434 89H109.811L110.128 86.4487H110.03C108.574 88.3123 107.04 89.2441 105.428 89.2441C104.297 89.2441 103.41 88.8413 102.767 88.0356C102.124 87.23 101.803 86.1273 101.803 84.7275C101.803 83.0348 102.092 81.4642 102.669 80.0156C103.247 78.5671 104.045 77.4318 105.062 76.6099C106.079 75.7879 107.194 75.377 108.407 75.377ZM106.087 87.5474C106.877 87.5474 107.662 87.173 108.443 86.4243C109.225 85.6675 109.859 84.6868 110.348 83.4824C110.836 82.2699 111.08 81.0573 111.08 79.8447C111.08 79.0065 110.852 78.3392 110.396 77.8428C109.941 77.3464 109.343 77.0981 108.602 77.0981C107.756 77.0981 106.966 77.4481 106.234 78.1479C105.51 78.8478 104.94 79.7959 104.525 80.9922C104.11 82.1885 103.902 83.4499 103.902 84.7764C103.902 85.7041 104.094 86.3999 104.476 86.8638C104.859 87.3195 105.396 87.5474 106.087 87.5474ZM122.542 75.4014C124.121 75.4014 125.265 76.1745 125.973 77.7207H126.095C126.233 76.4593 126.416 75.3444 126.644 74.376L127.596 70.0059H129.623L125.594 89H123.897L124.166 86.4487H124.068C123.246 87.466 122.477 88.1862 121.761 88.6094C121.045 89.0326 120.305 89.2441 119.54 89.2441C118.408 89.2441 117.525 88.8454 116.891 88.0479C116.256 87.2503 115.938 86.1436 115.938 84.7275C115.938 82.986 116.231 81.391 116.817 79.9424C117.403 78.4938 118.193 77.3748 119.186 76.5854C120.187 75.7961 121.306 75.4014 122.542 75.4014ZM120.223 87.5474C120.988 87.5474 121.778 87.1689 122.591 86.4121C123.405 85.6471 124.048 84.6746 124.52 83.4946C125 82.3065 125.24 81.098 125.24 79.8691C125.24 78.9658 125.021 78.2782 124.581 77.8062C124.142 77.3341 123.503 77.0981 122.665 77.0981C121.843 77.0981 121.078 77.4359 120.37 78.1113C119.67 78.7786 119.104 79.7227 118.673 80.9434C118.25 82.1559 118.038 83.4336 118.038 84.7764C118.038 86.6237 118.766 87.5474 120.223 87.5474Z" fill="#DEF8D9"/>
</svg>
