<svg width="187" height="105" viewBox="0 0 187 105" fill="none" xmlns="http://www.w3.org/2000/svg">
<path d="M1.25009 79.9503C-3.62237 13.8642 63.5169 -31.6039 131.454 30.389C210.635 102.642 70.4001 126.733 1.25009 79.9503Z" fill="#045837" stroke="#045837"/>
<path d="M28.6104 50.584L25.6074 64.7344C25.0703 67.3027 24.1035 69.207 22.707 70.4473C21.3203 71.6777 19.4258 72.293 17.0234 72.293C14.7773 72.293 13.1123 71.7852 12.0283 70.7695C10.9443 69.7539 10.4023 68.2939 10.4023 66.3896C10.4023 65.5986 10.5195 64.6172 10.7539 63.4453L13.5225 50.584H16.0127L13.2148 63.6357C13 64.6709 12.8926 65.5889 12.8926 66.3896C12.8926 67.5322 13.249 68.4355 13.9619 69.0996C14.6748 69.7539 15.7393 70.0811 17.1553 70.0811C18.835 70.0811 20.1387 69.6562 21.0664 68.8066C22.0039 67.9473 22.6875 66.5312 23.1172 64.5586L26.1201 50.584H28.6104ZM34.0596 70.2861C34.5967 70.2861 35.2998 70.1592 36.1689 69.9053V71.7949C35.8369 71.9316 35.4268 72.0488 34.9385 72.1465C34.4502 72.2441 34.0596 72.293 33.7666 72.293C32.5459 72.293 31.6084 72.0049 30.9541 71.4287C30.3096 70.8428 29.9873 69.9736 29.9873 68.8213C29.9873 68.1768 30.0752 67.4443 30.251 66.624L32.1113 57.8057H29.5918L29.7969 56.7363L32.5068 55.5938L34.3379 52.2539H35.7734L34.9678 55.9453H38.9814L38.6006 57.8057H34.6016L32.7119 66.6533C32.5361 67.5029 32.4482 68.1475 32.4482 68.5869C32.4482 69.1338 32.5898 69.5537 32.873 69.8467C33.1562 70.1396 33.5518 70.2861 34.0596 70.2861ZM48.7666 67.4443C48.7666 68.9678 48.2246 70.1592 47.1406 71.0186C46.0664 71.8682 44.5479 72.293 42.585 72.293C40.9346 72.293 39.4453 71.9561 38.1172 71.2822V68.9678C38.8008 69.3779 39.5381 69.6953 40.3291 69.9199C41.1201 70.1445 41.8525 70.2568 42.5264 70.2568C43.7568 70.2568 44.6846 70.0127 45.3096 69.5244C45.9346 69.0361 46.2471 68.4111 46.2471 67.6494C46.2471 67.0928 46.0762 66.624 45.7344 66.2432C45.3926 65.8623 44.6553 65.3398 43.5225 64.6758C42.2529 63.9629 41.3545 63.2646 40.8271 62.5811C40.2998 61.8975 40.0361 61.0869 40.0361 60.1494C40.0361 58.8018 40.5293 57.7178 41.5156 56.8975C42.502 56.0674 43.8008 55.6523 45.4121 55.6523C47.082 55.6523 48.6934 56.0137 50.2461 56.7363L49.4551 58.7432L48.6348 58.377C47.6484 57.957 46.5742 57.7471 45.4121 57.7471C44.5039 57.7471 43.791 57.9619 43.2734 58.3916C42.7559 58.8115 42.4971 59.3584 42.4971 60.0322C42.4971 60.5791 42.668 61.0479 43.0098 61.4385C43.3613 61.8291 44.0791 62.332 45.1631 62.9473C46.208 63.5332 46.9551 64.0361 47.4043 64.4561C47.8633 64.876 48.2051 65.3301 48.4297 65.8184C48.6543 66.2969 48.7666 66.8389 48.7666 67.4443ZM56.6475 70.2861C57.1846 70.2861 57.8877 70.1592 58.7568 69.9053V71.7949C58.4248 71.9316 58.0146 72.0488 57.5264 72.1465C57.0381 72.2441 56.6475 72.293 56.3545 72.293C55.1338 72.293 54.1963 72.0049 53.542 71.4287C52.8975 70.8428 52.5752 69.9736 52.5752 68.8213C52.5752 68.1768 52.6631 67.4443 52.8389 66.624L54.6992 57.8057H52.1797L52.3848 56.7363L55.0947 55.5938L56.9258 52.2539H58.3613L57.5557 55.9453H61.5693L61.1885 57.8057H57.1895L55.2998 66.6533C55.124 67.5029 55.0361 68.1475 55.0361 68.5869C55.0361 69.1338 55.1777 69.5537 55.4609 69.8467C55.7441 70.1396 56.1396 70.2861 56.6475 70.2861ZM69.9482 55.6523C70.8467 55.6523 71.6475 55.8965 72.3506 56.3848C73.0537 56.8633 73.6006 57.5566 73.9912 58.4648H74.1523L75.1338 55.9453H76.9941L73.5811 72H71.6328L72.0137 68.9385H71.8965C70.1484 71.1748 68.3076 72.293 66.374 72.293C65.0166 72.293 63.9521 71.8096 63.1807 70.8428C62.4092 69.876 62.0234 68.5527 62.0234 66.873C62.0234 64.8418 62.3701 62.957 63.0635 61.2188C63.7568 59.4805 64.7139 58.1182 65.9346 57.1318C67.1553 56.1455 68.4932 55.6523 69.9482 55.6523ZM67.165 70.2568C68.1123 70.2568 69.0547 69.8076 69.9922 68.9092C70.9297 68.001 71.6914 66.8242 72.2773 65.3789C72.8633 63.9238 73.1562 62.4688 73.1562 61.0137C73.1562 60.0078 72.8828 59.207 72.3359 58.6113C71.7891 58.0156 71.0713 57.7178 70.1826 57.7178C69.167 57.7178 68.2197 58.1377 67.3408 58.9775C66.4717 59.8174 65.7881 60.9551 65.29 62.3906C64.792 63.8262 64.543 65.3398 64.543 66.9316C64.543 68.0449 64.7725 68.8799 65.2314 69.4365C65.6904 69.9834 66.335 70.2568 67.165 70.2568ZM67.2383 51.8145C67.2383 51.3652 67.375 50.9795 67.6484 50.6572C67.9219 50.3252 68.2832 50.1592 68.7324 50.1592C69.4941 50.1592 69.875 50.5498 69.875 51.3311C69.875 51.8096 69.7285 52.2148 69.4355 52.5469C69.1523 52.8789 68.8203 53.0449 68.4395 53.0449C68.0977 53.0449 67.8096 52.9375 67.5752 52.7227C67.3506 52.5078 67.2383 52.2051 67.2383 51.8145ZM72.5703 51.8145C72.5703 51.3652 72.707 50.9795 72.9805 50.6572C73.2539 50.3252 73.6201 50.1592 74.0791 50.1592C74.8311 50.1592 75.207 50.5498 75.207 51.3311C75.207 51.8096 75.0605 52.2148 74.7676 52.5469C74.4844 52.8789 74.1523 53.0449 73.7715 53.0449C73.4297 53.0449 73.1416 52.9375 72.9072 52.7227C72.6826 52.5078 72.5703 52.2051 72.5703 51.8145ZM80.8467 72H78.3857L83.249 49.207H85.71L80.8467 72ZM88.4639 72H86.0029L90.8662 49.207H93.3271L88.4639 72ZM103.464 72L105.632 61.8633C105.827 60.8477 105.925 60.1445 105.925 59.7539C105.925 59.1387 105.749 58.6455 105.397 58.2744C105.056 57.9033 104.504 57.7178 103.742 57.7178C102.873 57.7178 102.023 58.0107 101.193 58.5967C100.373 59.1826 99.6455 60.0176 99.0107 61.1016C98.3857 62.1855 97.9121 63.499 97.5898 65.042L96.1104 72H93.6494L97.0771 55.9453H99.1133L98.791 58.9189H98.9375C99.875 57.7275 100.778 56.8877 101.647 56.3994C102.526 55.9014 103.435 55.6523 104.372 55.6523C105.612 55.6523 106.589 55.9941 107.302 56.6777C108.024 57.3516 108.386 58.2988 108.386 59.5195C108.386 60.291 108.273 61.1699 108.049 62.1562L105.954 72H103.464ZM113.425 72H110.964L114.392 55.9453H116.853L113.425 72ZM115.08 51.8438C115.08 51.2969 115.236 50.8525 115.549 50.5107C115.861 50.1592 116.267 49.9834 116.765 49.9834C117.624 49.9834 118.054 50.4229 118.054 51.3018C118.054 51.8389 117.888 52.293 117.556 52.6641C117.233 53.0352 116.857 53.2207 116.428 53.2207C116.037 53.2207 115.715 53.1035 115.461 52.8691C115.207 52.625 115.08 52.2832 115.08 51.8438ZM128.396 72L130.563 61.8633C130.759 60.8477 130.856 60.1445 130.856 59.7539C130.856 59.1387 130.681 58.6455 130.329 58.2744C129.987 57.9033 129.436 57.7178 128.674 57.7178C127.805 57.7178 126.955 58.0107 126.125 58.5967C125.305 59.1826 124.577 60.0176 123.942 61.1016C123.317 62.1855 122.844 63.499 122.521 65.042L121.042 72H118.581L122.009 55.9453H124.045L123.723 58.9189H123.869C124.807 57.7275 125.71 56.8877 126.579 56.3994C127.458 55.9014 128.366 55.6523 129.304 55.6523C130.544 55.6523 131.521 55.9941 132.233 56.6777C132.956 57.3516 133.317 58.2988 133.317 59.5195C133.317 60.291 133.205 61.1699 132.98 62.1562L130.886 72H128.396ZM151.145 55.9453L150.778 57.5127L147.688 57.8643C148.088 58.4697 148.288 59.2412 148.288 60.1787C148.288 62.0439 147.717 63.5332 146.574 64.6465C145.441 65.75 143.923 66.3018 142.019 66.3018C141.481 66.3018 141.071 66.2627 140.788 66.1846C139.431 66.7021 138.752 67.3418 138.752 68.1035C138.752 68.5039 138.913 68.7725 139.235 68.9092C139.558 69.0361 140.026 69.1387 140.642 69.2168L142.355 69.4219C144.123 69.6367 145.402 70.0664 146.193 70.7109C146.994 71.3555 147.395 72.3027 147.395 73.5527C147.395 75.3496 146.682 76.7412 145.256 77.7275C143.83 78.7139 141.823 79.207 139.235 79.207C137.341 79.207 135.856 78.8457 134.782 78.123C133.708 77.4102 133.171 76.3994 133.171 75.0908C133.171 74.0654 133.522 73.1768 134.226 72.4248C134.929 71.6729 136.066 71.0332 137.639 70.5059C136.877 70.1055 136.496 69.5146 136.496 68.7334C136.496 68.0596 136.745 67.4834 137.243 67.0049C137.741 66.5166 138.435 66.0625 139.323 65.6426C138.708 65.3301 138.205 64.8711 137.814 64.2656C137.424 63.6504 137.229 62.9375 137.229 62.127C137.229 60.2324 137.81 58.6797 138.972 57.4688C140.144 56.2578 141.638 55.6523 143.454 55.6523C144.216 55.6523 144.968 55.75 145.71 55.9453H151.145ZM135.544 74.8564C135.544 75.6084 135.861 76.2041 136.496 76.6436C137.131 77.083 138.073 77.3027 139.323 77.3027C141.101 77.3027 142.487 76.9902 143.483 76.3652C144.489 75.75 144.992 74.876 144.992 73.7432C144.992 73.1377 144.729 72.6592 144.201 72.3076C143.674 71.9561 142.775 71.7119 141.506 71.5752L139.177 71.3408C138.005 71.585 137.106 72.0146 136.481 72.6299C135.856 73.2451 135.544 73.9873 135.544 74.8564ZM139.616 62.0391C139.616 62.8691 139.836 63.5039 140.275 63.9434C140.715 64.373 141.325 64.5879 142.106 64.5879C142.878 64.5879 143.552 64.3828 144.128 63.9727C144.704 63.5625 145.144 63.001 145.446 62.2881C145.759 61.5654 145.915 60.7842 145.915 59.9443C145.915 59.1436 145.7 58.5332 145.271 58.1133C144.841 57.6934 144.226 57.4834 143.425 57.4834C142.663 57.4834 141.994 57.6836 141.418 58.084C140.852 58.4746 140.407 59.0264 140.085 59.7393C139.772 60.4424 139.616 61.209 139.616 62.0391Z" fill="#DEF8D9"/>
</svg>
