<svg width="216" height="130" viewBox="0 0 216 130" fill="none" xmlns="http://www.w3.org/2000/svg">
<path d="M25.1843 98.6608C10.2837 72.726 31.936 8.25982 104.238 29.2808C169.023 48.116 49.482 154.846 25.1843 98.6608Z" fill="#045837" stroke="#045837"/>
<path d="M45.5928 59H44.4307L44.0957 52.4033C44.0592 51.7835 44.041 51.141 44.041 50.4756H44C43.8861 50.8037 43.7471 51.1569 43.583 51.5352C43.4189 51.9089 42.2705 54.3971 40.1377 59H38.9482L38.5244 49.0059H39.6865L39.8984 55.165L39.9121 55.7666C39.9121 56.2132 39.8893 56.8011 39.8438 57.5303H39.8848C40.2904 56.4229 40.6458 55.5501 40.9512 54.9121L43.7197 49.0059H44.9365L45.2305 54.8848C45.2715 55.582 45.292 56.2747 45.292 56.9629L45.2852 57.5303H45.3467C45.6885 56.5094 45.987 55.7028 46.2422 55.1104L48.8877 49.0059H50.1318L45.5928 59ZM53.3311 51.4121C54.1969 51.4121 54.8805 51.6696 55.3818 52.1846C55.8831 52.695 56.1338 53.3991 56.1338 54.2969C56.1338 55.1536 55.9697 55.9626 55.6416 56.7236C55.3135 57.4847 54.8691 58.0726 54.3086 58.4873C53.748 58.902 53.1146 59.1094 52.4082 59.1094C51.5332 59.1094 50.8473 58.8519 50.3506 58.3369C49.8538 57.8219 49.6055 57.1178 49.6055 56.2246C49.6055 55.3587 49.7718 54.5452 50.1045 53.7842C50.4372 53.0186 50.8861 52.4329 51.4512 52.0273C52.0163 51.6172 52.6429 51.4121 53.3311 51.4121ZM54.9443 54.1396C54.9443 53.6156 54.8008 53.1917 54.5137 52.8682C54.2311 52.54 53.846 52.376 53.3584 52.376C52.8617 52.376 52.415 52.5446 52.0186 52.8818C51.6266 53.2191 51.3213 53.6885 51.1025 54.29C50.8883 54.887 50.7812 55.5524 50.7812 56.2861C50.7812 56.8831 50.9248 57.3457 51.2119 57.6738C51.5036 57.9974 51.9206 58.1592 52.4629 58.1592C52.9368 58.1592 53.363 57.9928 53.7412 57.6602C54.1195 57.3275 54.4134 56.8558 54.623 56.2451C54.8372 55.6299 54.9443 54.9281 54.9443 54.1396ZM61.9375 51.3711C62.252 51.3711 62.5254 51.403 62.7578 51.4668L62.5117 52.4922C62.2702 52.4329 62.0309 52.4033 61.7939 52.4033C61.3792 52.4033 60.9896 52.54 60.625 52.8135C60.265 53.0869 59.9482 53.4674 59.6748 53.9551C59.4059 54.4382 59.2077 54.9759 59.0801 55.5684L58.3486 59H57.2002L58.7998 51.5078H59.75L59.5996 52.8955H59.668C59.9961 52.4626 60.2673 52.1527 60.4814 51.9658C60.6956 51.7744 60.9189 51.6286 61.1514 51.5283C61.3883 51.4235 61.6504 51.3711 61.9375 51.3711ZM64.6035 55.1787L68.1992 51.5078H69.5732L66.3672 54.7002L68.3838 59H67.1055L65.499 55.418L64.46 56.2588L63.8994 59H62.7373L64.9932 48.3633H66.1553C65.8271 49.8945 65.5332 51.2663 65.2734 52.4785C65.0137 53.6908 64.7812 54.5908 64.5762 55.1787H64.6035ZM74.208 56.874C74.208 57.585 73.9551 58.141 73.4492 58.542C72.9479 58.9385 72.2393 59.1367 71.3232 59.1367C70.5531 59.1367 69.8581 58.9795 69.2383 58.665V57.585C69.5573 57.7764 69.9014 57.9245 70.2705 58.0293C70.6396 58.1341 70.9814 58.1865 71.2959 58.1865C71.8701 58.1865 72.3031 58.0726 72.5947 57.8447C72.8864 57.6169 73.0322 57.3252 73.0322 56.9697C73.0322 56.71 72.9525 56.4912 72.793 56.3135C72.6335 56.1357 72.2894 55.8919 71.7607 55.582C71.1683 55.2493 70.749 54.9235 70.5029 54.6045C70.2568 54.2855 70.1338 53.9072 70.1338 53.4697C70.1338 52.8408 70.3639 52.335 70.8242 51.9521C71.2845 51.5648 71.8906 51.3711 72.6426 51.3711C73.4219 51.3711 74.1738 51.5397 74.8984 51.877L74.5293 52.8135L74.1465 52.6426C73.6862 52.4466 73.1849 52.3486 72.6426 52.3486C72.2188 52.3486 71.8861 52.4489 71.6445 52.6494C71.403 52.8454 71.2822 53.1006 71.2822 53.415C71.2822 53.6702 71.362 53.889 71.5215 54.0713C71.6855 54.2536 72.0205 54.4883 72.5264 54.7754C73.014 55.0488 73.3626 55.2835 73.5723 55.4795C73.7865 55.6755 73.946 55.8874 74.0508 56.1152C74.1556 56.3385 74.208 56.5915 74.208 56.874ZM80.1689 59L81.1807 54.2695C81.2627 53.8411 81.3037 53.5335 81.3037 53.3467C81.3037 52.6722 80.9688 52.335 80.2988 52.335C79.8932 52.335 79.4967 52.4694 79.1094 52.7383C78.7266 53.0072 78.387 53.3991 78.0908 53.9141C77.7992 54.4245 77.5781 55.042 77.4277 55.7666L76.7373 59H75.5889L77.8447 48.3633H78.9932C78.9111 48.737 78.8314 49.0993 78.7539 49.4502C78.681 49.8011 78.6035 50.1589 78.5215 50.5234C78.444 50.8835 78.3574 51.2617 78.2617 51.6582C78.1706 52.0547 78.0635 52.4854 77.9404 52.9502H78.0156C78.444 52.3896 78.8656 51.9886 79.2803 51.7471C79.6995 51.5055 80.137 51.3848 80.5928 51.3848C81.1898 51.3848 81.6501 51.5488 81.9736 51.877C82.3018 52.2051 82.4658 52.6699 82.4658 53.2715C82.4658 53.554 82.4134 53.9323 82.3086 54.4062C82.1309 55.2858 81.8005 56.8171 81.3174 59H80.1689ZM87.6611 51.4121C88.527 51.4121 89.2106 51.6696 89.7119 52.1846C90.2132 52.695 90.4639 53.3991 90.4639 54.2969C90.4639 55.1536 90.2998 55.9626 89.9717 56.7236C89.6436 57.4847 89.1992 58.0726 88.6387 58.4873C88.0781 58.902 87.4447 59.1094 86.7383 59.1094C85.8633 59.1094 85.1774 58.8519 84.6807 58.3369C84.1839 57.8219 83.9355 57.1178 83.9355 56.2246C83.9355 55.3587 84.1019 54.5452 84.4346 53.7842C84.7673 53.0186 85.2161 52.4329 85.7812 52.0273C86.3464 51.6172 86.973 51.4121 87.6611 51.4121ZM89.2744 54.1396C89.2744 53.6156 89.1309 53.1917 88.8438 52.8682C88.5612 52.54 88.1761 52.376 87.6885 52.376C87.1917 52.376 86.7451 52.5446 86.3486 52.8818C85.9567 53.2191 85.6514 53.6885 85.4326 54.29C85.2184 54.887 85.1113 55.5524 85.1113 56.2861C85.1113 56.8831 85.2549 57.3457 85.542 57.6738C85.8337 57.9974 86.2507 58.1592 86.793 58.1592C87.2669 58.1592 87.693 57.9928 88.0713 57.6602C88.4495 57.3275 88.7435 56.8558 88.9531 56.2451C89.1673 55.6299 89.2744 54.9281 89.2744 54.1396ZM94.8525 59.1367C94.4105 59.1367 94.0231 59.0228 93.6904 58.7949C93.3577 58.5671 93.1003 58.248 92.918 57.8379H92.8496L92.8223 58.0977C92.8086 58.2116 92.7835 58.3711 92.7471 58.5762C92.7152 58.7812 92.4554 60.0436 91.9678 62.3633H90.833L93.1299 51.5078H94.0801L93.9023 52.9365H93.957C94.7728 51.902 95.6204 51.3848 96.5 51.3848C97.1243 51.3848 97.6165 51.6081 97.9766 52.0547C98.3366 52.4967 98.5166 53.1188 98.5166 53.9209C98.5166 54.887 98.3594 55.7734 98.0449 56.5801C97.7305 57.3867 97.2952 58.0156 96.7393 58.4668C96.1833 58.9134 95.5544 59.1367 94.8525 59.1367ZM96.124 52.335C95.6865 52.335 95.2399 52.5514 94.7842 52.9844C94.333 53.4173 93.973 53.9619 93.7041 54.6182C93.4398 55.2744 93.3076 55.9466 93.3076 56.6348C93.3076 57.1361 93.4329 57.5212 93.6836 57.79C93.9388 58.0544 94.3057 58.1865 94.7842 58.1865C95.2354 58.1865 95.6546 58.002 96.042 57.6328C96.4339 57.2637 96.7484 56.7396 96.9854 56.0605C97.2223 55.377 97.3408 54.6523 97.3408 53.8867C97.3408 52.8522 96.9352 52.335 96.124 52.335ZM99.501 58.4941C99.501 58.1432 99.5921 57.8652 99.7744 57.6602C99.9613 57.4505 100.216 57.3457 100.54 57.3457C100.736 57.3457 100.893 57.4049 101.012 57.5234C101.135 57.6419 101.196 57.8219 101.196 58.0635C101.196 58.387 101.105 58.6582 100.923 58.877C100.741 59.0911 100.494 59.1982 100.185 59.1982C99.9749 59.1982 99.8086 59.139 99.6855 59.0205C99.5625 58.902 99.501 58.7266 99.501 58.4941ZM100.595 52.4648C100.595 52.1139 100.686 51.8359 100.868 51.6309C101.05 51.4212 101.303 51.3164 101.627 51.3164C102.069 51.3164 102.29 51.5534 102.29 52.0273C102.29 52.36 102.194 52.6335 102.003 52.8477C101.816 53.0573 101.575 53.1621 101.278 53.1621C101.069 53.1621 100.902 53.1029 100.779 52.9844C100.656 52.8613 100.595 52.6882 100.595 52.4648ZM41.6211 79L40.4863 70.1406H40.4316C40.3997 70.4688 40.3337 70.9199 40.2334 71.4941C40.1377 72.0638 40.0534 72.5173 39.9805 72.8545L38.6816 79H37.5742L39.6865 69.0059H41.3545L42.373 77.2363H42.4346L46.9395 69.0059H48.7578L46.6865 79H45.4971C46.0713 76.3112 46.5111 74.249 46.8164 72.8135C47.1217 71.3734 47.3359 70.4779 47.459 70.127H47.418L42.5166 79H41.6211ZM53.085 71.3711C53.5042 71.3711 53.8779 71.485 54.2061 71.7129C54.5342 71.9362 54.7894 72.2598 54.9717 72.6836H55.0469L55.5049 71.5078H56.373L54.7803 79H53.8711L54.0488 77.5713H53.9941C53.1784 78.6149 52.3193 79.1367 51.417 79.1367C50.7835 79.1367 50.2868 78.9111 49.9268 78.46C49.5667 78.0088 49.3867 77.3913 49.3867 76.6074C49.3867 75.6595 49.5485 74.7799 49.8721 73.9688C50.1956 73.1576 50.6423 72.5218 51.2119 72.0615C51.7816 71.6012 52.4059 71.3711 53.085 71.3711ZM51.7861 78.1865C52.2282 78.1865 52.668 77.9769 53.1055 77.5576C53.543 77.1338 53.8984 76.5846 54.1719 75.9102C54.4453 75.2311 54.582 74.5521 54.582 73.873C54.582 73.4036 54.4544 73.0299 54.1992 72.752C53.944 72.474 53.609 72.335 53.1943 72.335C52.7204 72.335 52.2783 72.5309 51.8682 72.9229C51.4626 73.3148 51.1436 73.8457 50.9111 74.5156C50.6787 75.1855 50.5625 75.8919 50.5625 76.6348C50.5625 77.1543 50.6696 77.5439 50.8838 77.8037C51.098 78.0589 51.3988 78.1865 51.7861 78.1865ZM59.333 78.2002C59.5837 78.2002 59.9118 78.141 60.3174 78.0225V78.9043C60.1624 78.9681 59.971 79.0228 59.7432 79.0684C59.5153 79.1139 59.333 79.1367 59.1963 79.1367C58.6266 79.1367 58.1891 79.0023 57.8838 78.7334C57.583 78.46 57.4326 78.0544 57.4326 77.5166C57.4326 77.2158 57.4736 76.874 57.5557 76.4912L58.4238 72.376H57.248L57.3438 71.877L58.6084 71.3438L59.4629 69.7852H60.1328L59.7568 71.5078H61.6299L61.4521 72.376H59.5859L58.7041 76.5049C58.6221 76.9014 58.5811 77.2021 58.5811 77.4072C58.5811 77.6624 58.6471 77.8584 58.7793 77.9951C58.9115 78.1318 59.096 78.2002 59.333 78.2002ZM62.71 79H61.5615L63.8311 68.3633H64.9795L62.71 79ZM69.0947 71.3711C69.514 71.3711 69.8877 71.485 70.2158 71.7129C70.5439 71.9362 70.7992 72.2598 70.9814 72.6836H71.0566L71.5146 71.5078H72.3828L70.79 79H69.8809L70.0586 77.5713H70.0039C69.1882 78.6149 68.3291 79.1367 67.4268 79.1367C66.7933 79.1367 66.2965 78.9111 65.9365 78.46C65.5765 78.0088 65.3965 77.3913 65.3965 76.6074C65.3965 75.6595 65.5583 74.7799 65.8818 73.9688C66.2054 73.1576 66.652 72.5218 67.2217 72.0615C67.7913 71.6012 68.4157 71.3711 69.0947 71.3711ZM67.7959 78.1865C68.238 78.1865 68.6777 77.9769 69.1152 77.5576C69.5527 77.1338 69.9082 76.5846 70.1816 75.9102C70.4551 75.2311 70.5918 74.5521 70.5918 73.873C70.5918 73.4036 70.4642 73.0299 70.209 72.752C69.9538 72.474 69.6188 72.335 69.2041 72.335C68.7301 72.335 68.2881 72.5309 67.8779 72.9229C67.4723 73.3148 67.1533 73.8457 66.9209 74.5156C66.6885 75.1855 66.5723 75.8919 66.5723 76.6348C66.5723 77.1543 66.6794 77.5439 66.8936 77.8037C67.1077 78.0589 67.4085 78.1865 67.7959 78.1865ZM80.1621 71.5078L79.9912 72.2393L78.5488 72.4033C78.7357 72.6859 78.8291 73.0459 78.8291 73.4834C78.8291 74.3538 78.5625 75.0488 78.0293 75.5684C77.5007 76.0833 76.792 76.3408 75.9033 76.3408C75.6527 76.3408 75.4613 76.3226 75.3291 76.2861C74.6956 76.5277 74.3789 76.8262 74.3789 77.1816C74.3789 77.3685 74.4541 77.4938 74.6045 77.5576C74.7549 77.6169 74.9736 77.6647 75.2607 77.7012L76.0605 77.7969C76.8854 77.8971 77.4824 78.0977 77.8516 78.3984C78.2253 78.6992 78.4121 79.1413 78.4121 79.7246C78.4121 80.5632 78.0794 81.2126 77.4141 81.6729C76.7487 82.1331 75.8122 82.3633 74.6045 82.3633C73.7204 82.3633 73.0277 82.1947 72.5264 81.8574C72.0251 81.5247 71.7744 81.0531 71.7744 80.4424C71.7744 79.9639 71.9385 79.5492 72.2666 79.1982C72.5947 78.8473 73.1257 78.5488 73.8594 78.3027C73.5039 78.1159 73.3262 77.8402 73.3262 77.4756C73.3262 77.1611 73.4424 76.8923 73.6748 76.6689C73.9072 76.4411 74.2308 76.2292 74.6455 76.0332C74.3584 75.8874 74.1237 75.6732 73.9414 75.3906C73.7591 75.1035 73.668 74.7708 73.668 74.3926C73.668 73.5085 73.9391 72.7839 74.4814 72.2188C75.0283 71.6536 75.7256 71.3711 76.5732 71.3711C76.9287 71.3711 77.2796 71.4167 77.626 71.5078H80.1621ZM72.8818 80.333C72.8818 80.6839 73.0299 80.9619 73.3262 81.167C73.6224 81.3721 74.0622 81.4746 74.6455 81.4746C75.4749 81.4746 76.1221 81.3288 76.5869 81.0371C77.0563 80.75 77.291 80.3421 77.291 79.8135C77.291 79.5309 77.168 79.3076 76.9219 79.1436C76.6758 78.9795 76.2565 78.8656 75.6641 78.8018L74.5771 78.6924C74.0303 78.8063 73.611 79.0068 73.3193 79.2939C73.0277 79.5811 72.8818 79.9274 72.8818 80.333ZM74.7822 74.3516C74.7822 74.7389 74.8848 75.0352 75.0898 75.2402C75.2949 75.4408 75.5798 75.541 75.9443 75.541C76.3044 75.541 76.6188 75.4453 76.8877 75.2539C77.1566 75.0625 77.3617 74.8005 77.5029 74.4678C77.6488 74.1305 77.7217 73.766 77.7217 73.374C77.7217 73.0003 77.6214 72.7155 77.4209 72.5195C77.2204 72.3236 76.9333 72.2256 76.5596 72.2256C76.2041 72.2256 75.8919 72.319 75.623 72.5059C75.3587 72.6882 75.1514 72.9456 75.001 73.2783C74.8551 73.6064 74.7822 73.9642 74.7822 74.3516ZM84.6396 79L85.6514 74.2695C85.7425 73.7956 85.7881 73.4674 85.7881 73.2852C85.7881 72.998 85.7061 72.7679 85.542 72.5947C85.3825 72.4215 85.125 72.335 84.7695 72.335C84.3639 72.335 83.9674 72.4717 83.5801 72.7451C83.1973 73.0186 82.8577 73.4082 82.5615 73.9141C82.2699 74.4199 82.0488 75.0329 81.8984 75.7529L81.208 79H80.0596L81.6592 71.5078H82.6094L82.459 72.8955H82.5273C82.9648 72.3395 83.3864 71.9476 83.792 71.7197C84.2021 71.4873 84.626 71.3711 85.0635 71.3711C85.6423 71.3711 86.098 71.5306 86.4307 71.8496C86.7679 72.1641 86.9365 72.6061 86.9365 73.1758C86.9365 73.5358 86.8841 73.946 86.7793 74.4062L85.8018 79H84.6396ZM89.2881 79H88.1396L89.7393 71.5078H90.8877L89.2881 79ZM90.0605 69.5938C90.0605 69.3385 90.1335 69.1312 90.2793 68.9717C90.4251 68.8076 90.6143 68.7256 90.8467 68.7256C91.2477 68.7256 91.4482 68.9307 91.4482 69.3408C91.4482 69.5915 91.3708 69.8034 91.2158 69.9766C91.0654 70.1497 90.89 70.2363 90.6895 70.2363C90.5072 70.2363 90.3568 70.1816 90.2383 70.0723C90.1198 69.9583 90.0605 69.7988 90.0605 69.5938ZM96.2744 79L97.2861 74.2695C97.3773 73.7956 97.4229 73.4674 97.4229 73.2852C97.4229 72.998 97.3408 72.7679 97.1768 72.5947C97.0173 72.4215 96.7598 72.335 96.4043 72.335C95.9987 72.335 95.6022 72.4717 95.2148 72.7451C94.832 73.0186 94.4925 73.4082 94.1963 73.9141C93.9046 74.4199 93.6836 75.0329 93.5332 75.7529L92.8428 79H91.6943L93.2939 71.5078H94.2441L94.0938 72.8955H94.1621C94.5996 72.3395 95.0212 71.9476 95.4268 71.7197C95.8369 71.4873 96.2607 71.3711 96.6982 71.3711C97.277 71.3711 97.7327 71.5306 98.0654 71.8496C98.4027 72.1641 98.5713 72.6061 98.5713 73.1758C98.5713 73.5358 98.5189 73.946 98.4141 74.4062L97.4365 79H96.2744ZM106.891 71.5078L106.72 72.2393L105.277 72.4033C105.464 72.6859 105.558 73.0459 105.558 73.4834C105.558 74.3538 105.291 75.0488 104.758 75.5684C104.229 76.0833 103.521 76.3408 102.632 76.3408C102.381 76.3408 102.19 76.3226 102.058 76.2861C101.424 76.5277 101.107 76.8262 101.107 77.1816C101.107 77.3685 101.183 77.4938 101.333 77.5576C101.483 77.6169 101.702 77.6647 101.989 77.7012L102.789 77.7969C103.614 77.8971 104.211 78.0977 104.58 78.3984C104.954 78.6992 105.141 79.1413 105.141 79.7246C105.141 80.5632 104.808 81.2126 104.143 81.6729C103.477 82.1331 102.541 82.3633 101.333 82.3633C100.449 82.3633 99.7562 82.1947 99.2549 81.8574C98.7536 81.5247 98.5029 81.0531 98.5029 80.4424C98.5029 79.9639 98.667 79.5492 98.9951 79.1982C99.3232 78.8473 99.8542 78.5488 100.588 78.3027C100.232 78.1159 100.055 77.8402 100.055 77.4756C100.055 77.1611 100.171 76.8923 100.403 76.6689C100.636 76.4411 100.959 76.2292 101.374 76.0332C101.087 75.8874 100.852 75.6732 100.67 75.3906C100.488 75.1035 100.396 74.7708 100.396 74.3926C100.396 73.5085 100.668 72.7839 101.21 72.2188C101.757 71.6536 102.454 71.3711 103.302 71.3711C103.657 71.3711 104.008 71.4167 104.354 71.5078H106.891ZM99.6104 80.333C99.6104 80.6839 99.7585 80.9619 100.055 81.167C100.351 81.3721 100.791 81.4746 101.374 81.4746C102.203 81.4746 102.851 81.3288 103.315 81.0371C103.785 80.75 104.02 80.3421 104.02 79.8135C104.02 79.5309 103.896 79.3076 103.65 79.1436C103.404 78.9795 102.985 78.8656 102.393 78.8018L101.306 78.6924C100.759 78.8063 100.34 79.0068 100.048 79.2939C99.7562 79.5811 99.6104 79.9274 99.6104 80.333ZM101.511 74.3516C101.511 74.7389 101.613 75.0352 101.818 75.2402C102.023 75.4408 102.308 75.541 102.673 75.541C103.033 75.541 103.347 75.4453 103.616 75.2539C103.885 75.0625 104.09 74.8005 104.231 74.4678C104.377 74.1305 104.45 73.766 104.45 73.374C104.45 73.0003 104.35 72.7155 104.149 72.5195C103.949 72.3236 103.662 72.2256 103.288 72.2256C102.933 72.2256 102.62 72.319 102.352 72.5059C102.087 72.6882 101.88 72.9456 101.729 73.2783C101.584 73.6064 101.511 73.9642 101.511 74.3516Z" fill="#DEF8D9"/>
</svg>
