<svg width="132" height="132" viewBox="0 0 132 132" fill="none" xmlns="http://www.w3.org/2000/svg">
<path d="M77.8464 17.5464C96.6127 35.2602 134.763 95.17 54.1574 109.782C-18.067 122.874 38.8914 -24.688 77.8464 17.5464Z" fill="#045837" stroke="#045837"/>
<path d="M37.0063 72H35.6201L36.8071 66.2891H31.3286L30.125 72H28.7139L31.2788 59.8643H32.6899L31.6025 65.0273H37.0811L38.1851 59.8643H39.5796L37.0063 72ZM44.8423 62.7363C45.3514 62.7363 45.8052 62.8747 46.2036 63.1514C46.6021 63.4225 46.9119 63.8154 47.1333 64.3301H47.2246L47.7808 62.9023H48.835L46.9009 72H45.7969L46.0127 70.2651H45.9463C44.9557 71.5324 43.9126 72.166 42.8169 72.166C42.0477 72.166 41.4445 71.8921 41.0073 71.3442C40.5701 70.7964 40.3516 70.0465 40.3516 69.0947C40.3516 67.9437 40.548 66.8757 40.9409 65.8906C41.3338 64.9056 41.8761 64.1336 42.5679 63.5747C43.2596 63.0158 44.0177 62.7363 44.8423 62.7363ZM43.2651 71.0122C43.8019 71.0122 44.3359 70.7576 44.8672 70.2485C45.3984 69.7339 45.8301 69.0671 46.1621 68.248C46.4941 67.4235 46.6602 66.599 46.6602 65.7744C46.6602 65.2044 46.5052 64.7507 46.1953 64.4131C45.8854 64.0755 45.4787 63.9067 44.9751 63.9067C44.3996 63.9067 43.8628 64.1447 43.3647 64.6206C42.8722 65.0965 42.4849 65.7412 42.2026 66.5547C41.9204 67.3682 41.7793 68.2259 41.7793 69.1279C41.7793 69.7588 41.9093 70.2319 42.1694 70.5474C42.4295 70.8573 42.7948 71.0122 43.2651 71.0122ZM55.2017 72L56.4302 66.2559C56.5409 65.6803 56.5962 65.2819 56.5962 65.0605C56.5962 64.7119 56.4966 64.4325 56.2974 64.2222C56.1037 64.0119 55.791 63.9067 55.3594 63.9067C54.8669 63.9067 54.3854 64.0728 53.915 64.4048C53.4502 64.7368 53.0379 65.21 52.6782 65.8242C52.3241 66.4385 52.0557 67.1828 51.873 68.0571L51.0347 72H49.6401L51.5825 62.9023H52.7363L52.5537 64.5874H52.6367C53.168 63.9123 53.6799 63.4364 54.1724 63.1597C54.6704 62.8774 55.1851 62.7363 55.7163 62.7363C56.4191 62.7363 56.9725 62.93 57.3765 63.3174C57.786 63.6992 57.9907 64.236 57.9907 64.9277C57.9907 65.3649 57.9271 65.863 57.7998 66.4219L56.6128 72H55.2017ZM62.2407 71.0288C62.5451 71.0288 62.9435 70.9569 63.436 70.813V71.8838C63.2479 71.9613 63.0155 72.0277 62.7388 72.083C62.4621 72.1383 62.2407 72.166 62.0747 72.166C61.383 72.166 60.8517 72.0028 60.481 71.6763C60.1157 71.3442 59.9331 70.8517 59.9331 70.1987C59.9331 69.8335 59.9829 69.4185 60.0825 68.9536L61.1367 63.9565H59.709L59.8252 63.3506L61.3608 62.7031L62.3984 60.8105H63.2119L62.7554 62.9023H65.0298L64.814 63.9565H62.5479L61.4771 68.9702C61.3774 69.4517 61.3276 69.8169 61.3276 70.0659C61.3276 70.3758 61.4079 70.6138 61.5684 70.7798C61.7288 70.9458 61.953 71.0288 62.2407 71.0288ZM66.3247 72L65.2871 62.9023H66.6816L67.2129 67.9907C67.3457 69.4185 67.4121 70.4201 67.4121 70.9956H67.4619C68.1647 69.4738 68.66 68.4473 68.9478 67.916L71.6455 62.9023H73.123L68.2173 72H66.3247ZM76.4102 72.166C75.3919 72.166 74.5923 71.8644 74.0112 71.2612C73.4302 70.658 73.1396 69.8224 73.1396 68.7544C73.1396 67.714 73.3444 66.7179 73.7539 65.7661C74.1689 64.8088 74.7168 64.0645 75.3975 63.5332C76.0781 63.002 76.828 62.7363 77.647 62.7363C78.4937 62.7363 79.13 62.9217 79.5562 63.2925C79.9823 63.6577 80.1953 64.1696 80.1953 64.8281C80.1953 65.8242 79.736 66.6073 78.8174 67.1772C77.8988 67.7417 76.5845 68.0239 74.8745 68.0239H74.6006L74.5674 68.688C74.5674 69.4129 74.7362 69.9801 75.0737 70.3896C75.4168 70.7936 75.9453 70.9956 76.6592 70.9956C77.0078 70.9956 77.3647 70.9458 77.73 70.8462C78.1007 70.7466 78.5601 70.564 79.1079 70.2983V71.5103C78.5877 71.7537 78.1284 71.9225 77.73 72.0166C77.3315 72.1162 76.8916 72.166 76.4102 72.166ZM77.564 63.9233C76.994 63.9233 76.4572 64.1834 75.9536 64.7036C75.4556 65.2238 75.0737 65.946 74.8081 66.8701H74.9077C76.1694 66.8701 77.1351 66.7069 77.8047 66.3804C78.4798 66.0483 78.8174 65.5697 78.8174 64.9443C78.8174 64.651 78.715 64.4076 78.5103 64.2139C78.311 64.0202 77.9956 63.9233 77.564 63.9233ZM86.9521 62.7363C87.334 62.7363 87.666 62.7751 87.9482 62.8525L87.6494 64.0977C87.3561 64.0257 87.0656 63.9897 86.7778 63.9897C86.2743 63.9897 85.8011 64.1558 85.3584 64.4878C84.9212 64.8198 84.5366 65.2819 84.2046 65.874C83.8781 66.4606 83.6374 67.1136 83.4824 67.833L82.5942 72H81.1997L83.1421 62.9023H84.2959L84.1133 64.5874H84.1963C84.5947 64.0617 84.924 63.6854 85.1841 63.4585C85.4442 63.2261 85.7153 63.049 85.9976 62.9272C86.2853 62.8 86.6035 62.7363 86.9521 62.7363ZM90.1895 67.3599L94.5557 62.9023H96.2241L92.3311 66.7788L94.7798 72H93.2275L91.2769 67.6504L90.0151 68.6714L89.3345 72H87.9233L90.6626 59.084H92.0737C91.6753 60.9434 91.3184 62.609 91.0029 64.0811C90.6875 65.5531 90.4053 66.646 90.1562 67.3599H90.1895Z" fill="#DEF8D9"/>
</svg>
