<svg width="181" height="235" viewBox="0 0 181 235" fill="none" xmlns="http://www.w3.org/2000/svg">
<g id="indian">
<g id="right-leg">
<path id="Vector" d="M114.434 218.312C114.309 218.393 114.339 217.882 114.469 217.922C114.599 217.962 114.639 218.267 114.654 218.513C114.75 220.44 114.379 222.327 114.259 224.249C114.139 226.172 114.374 228.454 115.26 229.34C115.961 230.031 116.802 229.626 117.563 229.21L125.152 225.02L124.826 215.084C124.838 214.616 124.772 214.149 124.631 213.702C124.589 213.589 124.524 213.486 124.441 213.399C124.357 213.312 124.257 213.243 124.146 213.196C124.035 213.149 123.915 213.126 123.795 213.127C123.674 213.128 123.555 213.153 123.445 213.201C120.117 213.95 116.849 214.944 113.668 216.175C113.869 217.161 114.069 218.162 114.434 218.312Z" fill="#CD8E89"/>
<path id="Vector_2" d="M98.5557 164.375C106.495 179.477 104.773 197.914 110.87 213.862C111.251 214.863 111.721 215.9 112.647 216.415C113.483 216.876 114.499 216.801 115.45 216.706L129.001 215.399C129.378 215.395 129.748 215.297 130.077 215.114C130.773 214.653 130.763 213.652 130.678 212.821C129.173 197.964 128.275 183.06 127.985 168.109C127.64 150.318 128.09 132.027 121.878 115.348C121.377 113.981 120.661 112.479 119.27 112.039C118.269 111.723 117.187 112.064 116.191 112.399L106.18 115.793L99.4568 154.248C98.796 158.222 97.6847 162.698 98.5557 164.375Z" fill="url(#paint0_linear)"/>
<path id="Vector_3" d="M126.583 221.576C124.585 223.116 122.201 224.075 119.694 224.35C117.186 224.625 114.651 224.204 112.367 223.133C112.117 225.748 112.206 228.385 112.632 230.977C112.705 231.744 112.965 232.481 113.388 233.125C114.034 233.839 114.908 234.306 115.861 234.446C117.749 234.788 119.673 234.892 121.588 234.757L145.851 234.056C146.952 234.026 148.294 233.841 148.709 232.819C148.815 232.45 148.827 232.061 148.745 231.686C148.663 231.311 148.489 230.963 148.239 230.672C146.672 228.489 143.778 227.808 141.14 227.288L132.37 225.546C129.917 225.06 126.979 224.109 126.583 221.576Z" fill="#045837"/>
</g>
<g id="left-leg">
<path id="Vector_4" d="M62.1183 215.474C61.2993 220.088 60.7211 224.741 60.3863 229.415C63.6451 230.917 66.8939 226.287 70.2077 226.597C70.5682 226.632 70.9736 226.692 71.2439 226.207C71.4568 225.687 71.5706 225.131 71.5793 224.57L72.5354 213.522C69.1265 214.498 65.7175 215.474 62.1183 215.474Z" fill="#CD8E89"/>
<path id="Vector_5" d="M74.0823 110.367C75.0584 125.479 76.0245 140.807 72.946 155.629C71.6144 162.022 69.552 168.234 67.6849 174.486C63.4677 188.636 60.2592 203.068 58.0837 217.672C62.6677 216.239 67.5195 215.878 72.2652 216.615C73.6668 216.836 75.2286 217.116 76.41 216.335C77.0467 215.838 77.5605 215.201 77.9118 214.473C83.0427 205.658 88.1937 196.792 91.838 187.266C94.6462 179.938 96.5284 172.289 98.3706 164.66C102.165 148.952 105.823 133.21 109.343 117.435C109.539 116.564 109.714 115.583 109.228 114.832C108.743 114.081 107.847 113.861 107.011 113.666C96.3232 111.198 85.4105 109.656 74.0823 110.367Z" fill="url(#paint1_linear)"/>
<path id="Vector_6" d="M73.6618 221.441C71.6465 222.542 69.418 223.197 67.1275 223.361C64.837 223.525 62.538 223.194 60.3863 222.392L61.2173 232.169C61.2013 232.787 61.3954 233.392 61.7679 233.886C62.1212 234.2 62.5572 234.407 63.0244 234.481C65.065 234.891 67.1467 235.059 69.2266 234.982C76.9256 234.982 84.6229 234.827 92.3185 234.516C93.5399 234.471 94.8214 234.411 95.9077 233.866C96.9939 233.32 97.91 232.149 97.7098 230.932C97.5526 230.222 97.1782 229.578 96.6385 229.09C94.2908 226.732 90.7517 226.122 87.4578 225.631L80.1744 224.55C77.7716 224.164 74.9933 223.544 73.6618 221.441Z" fill="#045837"/>
</g>
<g id="torso">
<path id="Vector_7" d="M92.9042 50.8224H103.181C103.181 50.8224 121.237 91.4898 129.211 94.9638C137.186 98.4379 132.716 94.9638 132.716 94.9638L142.142 109.346L113.458 113.315L92.9042 50.8224Z" fill="#B8AD4C"/>
<path id="Vector_8" d="M78.6577 52.8198H88.9346C88.9346 52.8198 106.996 93.4871 114.99 96.9611C122.984 100.435 118.494 96.9611 118.494 96.9611L127.92 111.343L99.2166 115.318L78.6577 52.8198Z" fill="#B8AD4C"/>
<path id="Vector_9" d="M84.925 52.8198H95.2019C95.2019 52.8198 113.258 93.4871 121.232 96.9611C129.207 100.435 124.736 96.9611 124.736 96.9611L134.162 111.343L105.479 115.318L84.925 52.8198Z" fill="#B8AD4C"/>
</g>
<g id="left-arm">
<path id="Vector_10" d="M75.9895 51.4182C74.8682 50.2819 73.1262 49.0905 71.9348 50.0816C71.5994 50.362 60.0059 82.4393 59.4503 99.1387C59.25 104.986 99.3517 150.088 101.444 150.078C132.02 149.913 111.881 136.087 106.87 129.409C104.092 125.71 99.3617 123.142 98.5758 118.561C97.87 114.457 100.768 110.767 103.747 108.049C106.725 105.331 110.179 102.703 111.17 98.7032C112.602 92.9415 87.8483 63.4322 75.9895 51.4182Z" fill="#045837"/>
<path id="Vector_11" d="M105.894 146.249C107.088 149.562 109.005 152.568 111.506 155.049C114.027 157.529 117.307 159.092 120.822 159.489C121.298 159.57 121.788 159.507 122.228 159.309C123.154 158.808 123.154 157.482 122.919 156.45C122.145 153.1 120.258 150.111 117.568 147.971C117.212 147.69 116.807 147.195 117.112 146.854C117.222 146.748 117.362 146.678 117.513 146.654C118.534 146.394 119.605 146.394 120.626 146.654C121.332 146.834 122.258 147.069 122.664 146.459C123.134 145.753 122.288 144.922 121.552 144.501C119.004 143.03 116.011 141.523 113.253 142.544C111.926 143.045 110.875 144.046 109.749 144.917C108.622 145.788 107.306 146.549 105.894 146.249Z" fill="#CD8E89"/>
</g>
<g id="right-arm">
<path id="Vector_12" d="M164.087 83.6958C164.426 83.904 164.811 84.026 165.208 84.0513C165.605 84.0766 166.002 84.0044 166.365 83.8409C167.084 83.5074 167.745 83.0594 168.322 82.5144C171.345 79.9847 174.502 77.6186 177.778 75.4261C178.339 75.0507 179.084 74.6702 179.655 75.0407C180.416 75.5413 180.026 76.7076 179.53 77.4635C178.307 79.3116 176.885 81.0204 175.29 82.5594C174.724 83.1051 174.099 83.9661 174.594 84.5618C175.28 85.4077 176.722 84.1863 177.713 84.6469C177.985 84.8029 178.216 85.0207 178.389 85.2826C178.684 85.648 179.004 86.1035 178.864 86.5541C178.782 86.7319 178.664 86.8908 178.518 87.0209C178.371 87.151 178.199 87.2494 178.013 87.31C174.875 88.7566 171.37 89.1421 167.931 89.4925C167.131 89.5776 166.154 89.5876 165.704 88.9168C165.541 88.6224 165.444 88.2963 165.419 87.9607C165.188 86.4389 164.973 84.9372 164.087 83.6958Z" fill="#CD8E89"/>
<path id="Vector_13" d="M104.803 52.8198L117.918 71.7919C122.494 78.4045 127.164 85.1274 133.436 90.1382C134.888 91.2946 136.47 92.3758 138.287 92.7613C141.185 93.377 144.124 92.1255 146.797 90.819C151.542 88.4849 156.145 85.8741 160.583 82.9999C162.085 81.9987 163.712 80.9725 165.514 80.9675C168.753 80.9675 171.085 84.5467 170.88 87.7805C170.675 91.0142 168.672 93.8375 166.575 96.2904C160.313 103.664 151.873 109.906 142.227 110.632C140.371 110.836 138.493 110.638 136.72 110.051C134.683 109.301 133.006 107.834 131.434 106.342C116.316 92.0404 106.04 72.6629 104.803 52.8198Z" fill="#045837"/>
</g>
<g id="face">
<path id="Vector_14" d="M84.4794 52.2741C84.1897 49.1672 84.2468 46.0376 84.6496 42.9433C84.6851 42.3899 84.8388 41.8505 85.1001 41.3614C85.5006 40.7457 86.1914 40.5755 86.8221 40.3603C88.9049 39.6144 90.679 38.1944 91.863 36.3256C92.1341 35.9732 92.3325 35.5705 92.4468 35.1409C92.5611 34.7112 92.589 34.2632 92.5288 33.8227C92.3335 32.8966 91.6277 32.2458 91.027 31.6301C89.4752 30.0983 88.0686 28.0309 87.7782 25.6832C87.4879 23.3355 88.7093 20.8426 90.5765 20.9327C91.5776 20.9827 92.5288 21.7036 93.4999 22.1541C94.471 22.6046 95.6824 22.7047 96.2431 21.7536C96.7086 20.9527 96.5234 19.7513 96.3182 18.7501L95.0667 12.3877L105.804 11.6368C106.365 11.5352 106.944 11.6382 107.436 11.9272C108.062 12.3727 108.387 13.2788 108.638 14.1147C110.865 21.5534 111.481 29.3525 112.071 37.0314C112.252 39.4092 112.427 41.8871 111.731 43.9845C111.293 45.364 110.406 46.5572 109.212 47.3738C108.017 48.1903 106.583 48.5832 105.138 48.4897C102.355 48.3346 99.607 46.6876 97.1842 44.6002C96.0529 43.6241 94.2558 42.683 93.7552 44.0996C93.6353 44.5664 93.6234 45.0542 93.7201 45.5263C94.0545 48.0626 94.7525 50.5375 95.7926 52.8748C92.0983 53.015 88.3839 53.1552 84.4794 52.2741Z" fill="#CD8E89"/>
</g>
<g id="hair">
<path id="Vector_15" d="M98.4656 27.1299C96.8788 25.2828 94.6963 23.2654 92.799 24.2215C90.7967 25.2227 90.9169 28.7268 91.9581 31.1496C92.8415 33.2431 94.2149 35.0938 95.9627 36.5459C96.5267 36.9155 96.9758 37.4357 97.2592 38.0476C97.7348 39.4192 96.4783 40.5505 95.362 41.0211C92.1142 42.326 88.4922 42.35 85.2273 41.0883C81.9624 39.8265 79.2978 37.3731 77.7716 34.2232C75.8643 30.2185 75.8043 25.518 76.395 21.208C76.6561 18.9437 77.2254 16.7256 78.0869 14.6153C81.4208 7.01148 89.4251 4.39344 96.7937 3.18703C98.5908 2.88668 100.443 2.62638 102.275 3.0719C103.26 3.30468 104.179 3.75757 104.964 4.39655C105.748 5.03552 106.378 5.84398 106.805 6.76119C107.676 8.76352 107.256 11.4667 105.634 12.3377C104.327 13.0385 102.42 12.613 101.654 14.0347C101.254 14.7805 101.344 15.7667 101.394 16.6827C101.567 19.6912 101.108 22.7025 100.047 25.523C99.8372 26.0687 99.5469 26.6443 99.0713 26.8145C98.6792 26.8996 98.2701 26.8557 97.905 26.6894C96.4783 26.2138 95.0367 25.7383 98.4656 27.1299Z" fill="black"/>
<path id="Vector_16" d="M77.7966 16.1521C72.6406 5.32452 62.4988 -2.39947 54.3343 0.684121C45.7343 3.94792 41.8498 17.2534 33.3749 20.8326C30.3714 22.094 27.0225 22.044 24.0841 23.4306C16.4452 27.0298 12.6508 39.7246 4.27101 40.4104C2.91443 40.5205 1.35261 40.3753 0.506629 41.6568C-0.719798 43.514 0.476594 46.8879 2.00838 48.9303C7.40966 56.1086 15.6443 55.9084 21.9416 53.0401C25.5658 51.3881 29.0499 48.9453 31.2074 44.8255C33.9556 39.5794 34.371 31.9705 38.0153 27.8507C38.7211 27.0548 39.6021 26.3941 40.6083 26.5442C41.5194 26.6844 42.3704 27.4603 43.2163 28.101C47.1659 31.1045 51.9465 31.2647 55.3455 28.5466C58.6093 25.9385 60.5315 21.0078 63.9905 18.8202C68.2605 16.1271 73.9171 18.1645 77.7966 16.1521Z" fill="black"/>
</g>
</g>
<defs>
<linearGradient id="paint0_linear" x1="9357.09" y1="48114.3" x2="27621.1" y2="45637.6" gradientUnits="userSpaceOnUse">
<stop stop-color="#045837"/>
<stop offset="0.35" stop-color="#B8AD4C"/>
</linearGradient>
<linearGradient id="paint1_linear" x1="28.5843" y1="183.802" x2="269.124" y2="78.4997" gradientUnits="userSpaceOnUse">
<stop stop-color="#045837"/>
<stop offset="0.35" stop-color="#B8AD4C"/>
</linearGradient>
</defs>
</svg>
