<svg width="189" height="88" viewBox="0 0 189 88" fill="none" xmlns="http://www.w3.org/2000/svg">
<path d="M1.18838 60.7876C-2.48178 10.7418 48.0906 -23.6904 99.2641 23.2557C158.907 77.9717 53.2754 96.2155 1.18838 60.7876Z" fill="#045837" stroke="#045837"/>
<path d="M20.6992 44.0312C20.6992 45.6797 20.1484 46.9609 19.0469 47.875C17.9531 48.7812 16.4102 49.2344 14.418 49.2344C13.5898 49.2344 12.8594 49.1758 12.2266 49.0586C11.6016 48.9492 11.0117 48.7617 10.457 48.4961V46.5039C11.7227 47.1602 13.0508 47.4883 14.4414 47.4883C15.707 47.4883 16.7109 47.1953 17.4531 46.6094C18.1953 46.0156 18.5664 45.2031 18.5664 44.1719C18.5664 43.5625 18.3594 43.0273 17.9453 42.5664C17.5391 42.0977 16.7773 41.5469 15.6602 40.9141C14.4805 40.25 13.6602 39.5859 13.1992 38.9219C12.7461 38.2578 12.5195 37.4727 12.5195 36.5664C12.5195 35.1055 13.0352 33.918 14.0664 33.0039C15.0977 32.082 16.4531 31.6211 18.1328 31.6211C18.9062 31.6211 19.625 31.6953 20.2891 31.8438C20.9609 31.9922 21.668 32.2461 22.4102 32.6055L21.6367 34.3633C21.1211 34.0664 20.543 33.832 19.9023 33.6602C19.2617 33.4883 18.6719 33.4023 18.1328 33.4023C17.0859 33.4023 16.2422 33.6758 15.6016 34.2227C14.9688 34.7617 14.6523 35.4961 14.6523 36.4258C14.6523 36.8477 14.7188 37.2109 14.8516 37.5156C14.9844 37.8125 15.1953 38.0938 15.4844 38.3594C15.7734 38.625 16.3281 38.9961 17.1484 39.4727C18.2969 40.1602 19.0703 40.6992 19.4688 41.0898C19.875 41.4805 20.1797 41.9141 20.3828 42.3906C20.5938 42.8594 20.6992 43.4062 20.6992 44.0312ZM28.4336 49.2344C27.6758 49.2344 27.0117 49.0391 26.4414 48.6484C25.8711 48.2578 25.4297 47.7109 25.1172 47.0078H25L24.9531 47.4531C24.9297 47.6484 24.8867 47.9219 24.8242 48.2734C24.7695 48.625 24.3242 50.7891 23.4883 54.7656H21.543L25.4805 36.1562H27.1094L26.8047 38.6055H26.8984C28.2969 36.832 29.75 35.9453 31.2578 35.9453C32.3281 35.9453 33.1719 36.3281 33.7891 37.0938C34.4062 37.8516 34.7148 38.918 34.7148 40.293C34.7148 41.9492 34.4453 43.4688 33.9062 44.8516C33.3672 46.2344 32.6211 47.3125 31.668 48.0859C30.7148 48.8516 29.6367 49.2344 28.4336 49.2344ZM30.6133 37.5742C29.8633 37.5742 29.0977 37.9453 28.3164 38.6875C27.543 39.4297 26.9258 40.3633 26.4648 41.4883C26.0117 42.6133 25.7852 43.7656 25.7852 44.9453C25.7852 45.8047 26 46.4648 26.4297 46.9258C26.8672 47.3789 27.4961 47.6055 28.3164 47.6055C29.0898 47.6055 29.8086 47.2891 30.4727 46.6562C31.1445 46.0234 31.6836 45.125 32.0898 43.9609C32.4961 42.7891 32.6992 41.5469 32.6992 40.2344C32.6992 38.4609 32.0039 37.5742 30.6133 37.5742ZM41.6641 49.2344C40.2266 49.2344 39.0977 48.8086 38.2773 47.957C37.457 47.1055 37.0469 45.9258 37.0469 44.418C37.0469 42.9492 37.3359 41.543 37.9141 40.1992C38.5 38.8477 39.2734 37.7969 40.2344 37.0469C41.1953 36.2969 42.2539 35.9219 43.4102 35.9219C44.6055 35.9219 45.5039 36.1836 46.1055 36.707C46.707 37.2227 47.0078 37.9453 47.0078 38.875C47.0078 40.2812 46.3594 41.3867 45.0625 42.1914C43.7656 42.9883 41.9102 43.3867 39.4961 43.3867H39.1094L39.0625 44.3242C39.0625 45.3477 39.3008 46.1484 39.7773 46.7266C40.2617 47.2969 41.0078 47.582 42.0156 47.582C42.5078 47.582 43.0117 47.5117 43.5273 47.3711C44.0508 47.2305 44.6992 46.9727 45.4727 46.5977V48.3086C44.7383 48.6523 44.0898 48.8906 43.5273 49.0234C42.9648 49.1641 42.3438 49.2344 41.6641 49.2344ZM43.293 37.5977C42.4883 37.5977 41.7305 37.9648 41.0195 38.6992C40.3164 39.4336 39.7773 40.4531 39.4023 41.7578H39.543C41.3242 41.7578 42.6875 41.5273 43.6328 41.0664C44.5859 40.5977 45.0625 39.9219 45.0625 39.0391C45.0625 38.625 44.918 38.2812 44.6289 38.0078C44.3477 37.7344 43.9023 37.5977 43.293 37.5977ZM50.3711 49H48.4023L52.293 30.7656H54.2617L50.3711 49ZM62.3711 49L64.1055 40.8906C64.2617 40.0781 64.3398 39.5156 64.3398 39.2031C64.3398 38.7109 64.1992 38.3164 63.918 38.0195C63.6445 37.7227 63.2031 37.5742 62.5938 37.5742C61.8984 37.5742 61.2188 37.8086 60.5547 38.2773C59.8984 38.7461 59.3164 39.4141 58.8086 40.2812C58.3086 41.1484 57.9297 42.1992 57.6719 43.4336L56.4883 49H54.5195L57.2617 36.1562H58.8906L58.6328 38.5352H58.75C59.5 37.582 60.2227 36.9102 60.918 36.5195C61.6211 36.1211 62.3477 35.9219 63.0977 35.9219C64.0898 35.9219 64.8711 36.1953 65.4414 36.7422C66.0195 37.2812 66.3086 38.0391 66.3086 39.0156C66.3086 39.6328 66.2188 40.3359 66.0391 41.125L64.3633 49H62.3711ZM70.3398 49H68.3711L71.1133 36.1562H73.082L70.3398 49ZM71.6641 32.875C71.6641 32.4375 71.7891 32.082 72.0391 31.8086C72.2891 31.5273 72.6133 31.3867 73.0117 31.3867C73.6992 31.3867 74.043 31.7383 74.043 32.4414C74.043 32.8711 73.9102 33.2344 73.6445 33.5312C73.3867 33.8281 73.0859 33.9766 72.7422 33.9766C72.4297 33.9766 72.1719 33.8828 71.9688 33.6953C71.7656 33.5 71.6641 33.2266 71.6641 32.875ZM82.3164 49L84.0508 40.8906C84.207 40.0781 84.2852 39.5156 84.2852 39.2031C84.2852 38.7109 84.1445 38.3164 83.8633 38.0195C83.5898 37.7227 83.1484 37.5742 82.5391 37.5742C81.8438 37.5742 81.1641 37.8086 80.5 38.2773C79.8438 38.7461 79.2617 39.4141 78.7539 40.2812C78.2539 41.1484 77.875 42.1992 77.6172 43.4336L76.4336 49H74.4648L77.207 36.1562H78.8359L78.5781 38.5352H78.6953C79.4453 37.582 80.168 36.9102 80.8633 36.5195C81.5664 36.1211 82.293 35.9219 83.043 35.9219C84.0352 35.9219 84.8164 36.1953 85.3867 36.7422C85.9648 37.2812 86.2539 38.0391 86.2539 39.0156C86.2539 39.6328 86.1641 40.3359 85.9844 41.125L84.3086 49H82.3164ZM100.516 36.1562L100.223 37.4102L97.75 37.6914C98.0703 38.1758 98.2305 38.793 98.2305 39.543C98.2305 41.0352 97.7734 42.2266 96.8594 43.1172C95.9531 44 94.7383 44.4414 93.2148 44.4414C92.7852 44.4414 92.457 44.4102 92.2305 44.3477C91.1445 44.7617 90.6016 45.2734 90.6016 45.8828C90.6016 46.2031 90.7305 46.418 90.9883 46.5273C91.2461 46.6289 91.6211 46.7109 92.1133 46.7734L93.4844 46.9375C94.8984 47.1094 95.9219 47.4531 96.5547 47.9688C97.1953 48.4844 97.5156 49.2422 97.5156 50.2422C97.5156 51.6797 96.9453 52.793 95.8047 53.582C94.6641 54.3711 93.0586 54.7656 90.9883 54.7656C89.4727 54.7656 88.2852 54.4766 87.4258 53.8984C86.5664 53.3281 86.1367 52.5195 86.1367 51.4727C86.1367 50.6523 86.418 49.9414 86.9805 49.3398C87.543 48.7383 88.4531 48.2266 89.7109 47.8047C89.1016 47.4844 88.7969 47.0117 88.7969 46.3867C88.7969 45.8477 88.9961 45.3867 89.3945 45.0039C89.793 44.6133 90.3477 44.25 91.0586 43.9141C90.5664 43.6641 90.1641 43.2969 89.8516 42.8125C89.5391 42.3203 89.3828 41.75 89.3828 41.1016C89.3828 39.5859 89.8477 38.3438 90.7773 37.375C91.7148 36.4062 92.9102 35.9219 94.3633 35.9219C94.9727 35.9219 95.5742 36 96.168 36.1562H100.516ZM88.0352 51.2852C88.0352 51.8867 88.2891 52.3633 88.7969 52.7148C89.3047 53.0664 90.0586 53.2422 91.0586 53.2422C92.4805 53.2422 93.5898 52.9922 94.3867 52.4922C95.1914 52 95.5938 51.3008 95.5938 50.3945C95.5938 49.9102 95.3828 49.5273 94.9609 49.2461C94.5391 48.9648 93.8203 48.7695 92.8047 48.6602L90.9414 48.4727C90.0039 48.668 89.2852 49.0117 88.7852 49.5039C88.2852 49.9961 88.0352 50.5898 88.0352 51.2852ZM91.293 41.0312C91.293 41.6953 91.4688 42.2031 91.8203 42.5547C92.1719 42.8984 92.6602 43.0703 93.2852 43.0703C93.9023 43.0703 94.4414 42.9062 94.9023 42.5781C95.3633 42.25 95.7148 41.8008 95.957 41.2305C96.207 40.6523 96.332 40.0273 96.332 39.3555C96.332 38.7148 96.1602 38.2266 95.8164 37.8906C95.4727 37.5547 94.9805 37.3867 94.3398 37.3867C93.7305 37.3867 93.1953 37.5469 92.7344 37.8672C92.2812 38.1797 91.9258 38.6211 91.668 39.1914C91.418 39.7539 91.293 40.3672 91.293 41.0312Z" fill="#DEF8D9"/>
</svg>
