<svg width="266" height="333" viewBox="0 0 266 333" fill="none" xmlns="http://www.w3.org/2000/svg">
<path d="M56.4246 239.667C48.6212 205.452 49.8217 170.037 45.0196 135.222C40.2175 100.407 27.9122 64.3909 0 43.3817C20.1088 37.9793 41.7182 45.7828 57.9253 58.6884C74.1323 71.594 85.2372 89.6019 95.4416 107.61C102.045 119.315 108.647 131.02 111.949 143.926C114.65 154.73 115.25 166.135 114.95 177.24C114.05 201.551 108.948 226.161 95.1415 245.97C89.1389 254.374 81.6356 261.877 74.1323 268.78C71.131 271.481 68.1297 274.182 64.228 275.383C60.3263 276.583 55.5242 275.683 53.4233 272.382C51.6225 269.68 51.9226 266.379 52.2228 263.378C53.1232 252.573 54.3237 241.168 56.4246 239.667Z" fill="#045837"/>
<path d="M113.15 194.047C137.46 176.04 147.665 144.526 152.767 114.513C158.469 82.6989 159.97 49.0842 147.365 19.3713C144.063 11.868 139.561 4.36472 132.058 1.36341C123.654 -1.93803 113.75 1.06328 107.147 7.0659C100.544 13.0685 96.9425 21.7723 94.5415 30.4761C86.4379 59.5888 90.9399 90.8024 95.742 120.816C99.3436 146.027 103.245 170.937 113.15 194.047Z" fill="#045837"/>
<path d="M127.856 197.649C140.461 195.248 150.366 185.344 156.368 174.239C162.371 163.134 165.372 150.528 169.574 138.523C177.377 116.314 189.082 95.9046 201.388 75.7959C211.292 59.5888 221.196 43.3817 231.401 27.1747C235.603 20.5718 240.405 13.3686 247.908 10.9676C249.409 10.3673 250.909 10.0672 252.41 10.6675C255.111 11.5679 256.312 14.5692 257.212 16.9702C272.219 60.4892 268.317 111.211 243.106 149.928C217.895 188.645 171.075 213.256 125.155 207.553C129.356 201.251 135.659 196.449 127.856 197.649Z" fill="#045837"/>
<path d="M146.164 49.3843C146.164 47.5835 145.864 45.4826 145.864 43.6818C145.864 42.7814 143.763 42.4813 143.763 43.6818C143.463 45.1825 143.763 46.383 143.763 47.8837C143.763 49.6845 143.763 51.1851 143.463 52.9859C143.163 56.2873 143.163 59.2886 142.863 62.29C142.262 65.2913 141.662 67.9924 141.062 70.6936C140.161 73.6949 139.261 76.3961 138.361 78.7971C136.26 83.5992 134.459 87.8011 132.358 92.0029C131.458 94.1038 130.557 96.5049 129.657 98.9059C128.756 101.307 127.856 103.408 126.655 105.509C126.055 106.709 125.755 107.91 125.155 109.11C124.555 110.311 123.954 111.211 123.354 112.112V112.412C123.354 111.211 123.654 110.311 123.654 109.11C123.954 106.109 123.954 103.408 124.254 100.407C124.555 97.4053 124.555 94.1038 124.555 91.1025C124.555 88.1012 124.555 85.4 124.555 82.3987C124.555 79.0973 124.855 75.7958 124.855 72.1943C124.855 69.193 124.855 66.4918 124.555 63.4905C124.254 60.7893 123.954 58.0881 123.654 55.6871C123.354 52.9859 123.054 50.5849 122.754 47.5835C122.454 44.8824 122.154 41.8811 121.853 39.48C121.253 36.4787 120.653 34.0777 120.353 31.3765C120.053 28.9754 119.452 26.5744 118.852 24.1733C118.252 21.7723 117.351 19.3712 116.451 17.2703C115.551 15.1694 114.35 13.3686 113.45 11.5678C113.15 10.9676 112.549 10.9676 111.949 10.9676C111.949 10.9676 111.049 11.2677 111.049 11.5678C112.549 15.4695 114.35 17.8706 115.551 22.3725C116.751 26.5744 117.652 31.3765 118.552 35.8784C119.752 40.6805 120.053 46.383 120.653 51.7854C121.253 56.5875 121.853 61.3896 122.154 66.4918C121.853 65.5914 121.553 64.9911 120.953 64.3909C119.452 62.29 117.952 60.7893 116.151 59.5888C115.251 58.9885 114.35 58.6884 113.45 58.6884C112.549 58.3883 111.649 57.788 110.749 57.788C109.848 57.4879 108.948 58.0881 108.047 58.0881C107.147 58.3882 106.247 58.0881 105.346 58.0881C105.346 58.0881 104.446 58.0881 104.446 58.6884C104.446 59.2886 105.346 59.2886 105.346 59.2886C106.247 59.5888 106.847 59.5888 107.747 59.5888C108.648 59.5888 109.548 59.2886 110.148 59.2886C110.749 59.2886 111.649 59.8889 112.249 60.189C112.849 60.4892 113.75 60.4892 114.35 61.0894C115.851 61.9898 117.051 63.4905 118.552 65.2913C119.752 66.7919 120.653 69.7932 121.553 72.4944C121.553 72.7945 121.853 73.0947 122.154 73.0947C122.154 74.5953 122.154 75.7958 122.154 77.2965C121.853 80.2978 121.853 83.2991 121.853 86.3004C121.853 92.6032 121.553 98.9059 121.253 105.209C120.953 107.91 120.653 110.611 120.653 113.312C120.353 116.314 120.353 119.315 120.053 122.316C119.452 127.718 119.452 133.121 119.152 138.523C119.152 138.223 119.152 137.923 119.152 137.923C118.852 135.522 118.552 132.821 118.252 130.42C117.952 128.319 117.351 126.818 116.751 125.317C116.151 123.517 115.551 121.416 114.95 119.615C114.35 117.814 113.45 116.314 112.849 114.813C111.349 111.511 110.148 107.009 108.648 104.008C108.348 103.408 107.747 103.408 107.147 103.408C107.147 103.408 106.247 103.708 106.247 104.308C106.847 106.109 107.447 107.91 108.047 109.711C108.648 111.511 109.248 113.312 109.848 114.813C110.448 116.314 111.349 117.514 111.949 119.315C112.549 121.116 113.15 123.217 113.75 125.017C114.35 126.818 114.95 128.319 115.251 130.42C115.551 132.821 115.851 135.222 116.151 137.623C116.751 142.425 117.652 147.227 117.952 152.629C117.952 152.929 118.252 153.23 118.552 153.23C118.252 155.931 118.252 158.932 117.952 161.633C117.652 164.935 117.351 168.536 117.051 171.838C116.751 175.439 116.751 178.741 116.151 182.342C116.151 182.642 118.552 184.143 118.852 182.342C120.053 176.64 119.752 170.037 120.353 164.034C120.953 157.732 121.253 151.729 121.553 145.426C121.853 139.123 122.154 132.521 122.454 126.218C122.454 124.117 122.754 121.716 123.054 119.615L123.354 119.315C124.254 117.214 125.155 114.813 126.055 113.012C126.655 112.112 126.956 111.211 127.556 110.611C128.156 109.711 128.456 108.21 129.057 107.31C129.957 104.909 131.157 103.108 132.058 100.707C132.958 98.3057 133.859 95.6045 134.759 93.2034C135.659 91.1025 136.86 89.3017 137.76 87.2008C138.961 84.7998 139.861 82.3987 140.762 79.9977C142.562 75.4957 144.063 70.3935 145.564 64.3909C146.464 60.7893 146.464 57.4879 146.764 53.8863C146.164 52.9859 146.164 51.1851 146.164 49.3843Z" fill="#B8AD4C"/>
<path d="M262.315 81.1982C263.215 79.3974 264.116 77.2965 264.716 75.4957C265.016 74.5953 263.215 73.3948 262.615 74.2952C261.714 75.4957 261.114 76.9964 260.514 78.497C259.614 80.2978 258.713 81.7985 257.813 83.2991C256.012 86.3004 254.511 89.3018 252.41 92.0029C250.61 94.7041 248.509 97.1052 246.408 99.2061C244.307 101.907 241.906 104.008 239.805 105.809C235.603 109.711 231.401 112.712 227.199 115.713C225.399 117.214 223.298 119.315 221.197 121.116C219.096 123.217 216.995 124.717 215.194 126.218C213.994 127.118 213.093 128.019 211.893 128.919C210.692 129.819 209.792 130.42 208.891 131.02L208.591 131.32C209.192 130.42 209.792 129.219 210.392 128.319C212.193 125.618 213.694 122.916 215.194 119.915C216.995 116.914 218.496 113.912 220.296 110.911C221.797 108.21 222.998 105.209 224.498 102.508C226.299 99.2061 228.1 96.2048 229.901 92.9033C231.401 90.2021 232.602 87.2008 233.802 84.4997C235.003 81.7985 235.903 79.0973 236.804 76.3961C237.704 73.6949 238.604 70.9938 239.805 68.2926C241.005 65.2913 242.206 62.5901 243.106 59.8889C244.007 56.8876 244.607 54.1864 245.507 51.1851C246.408 48.484 247.008 46.0829 247.608 43.6819C248.209 40.9807 248.509 38.2795 248.809 35.8785C248.809 33.4774 248.809 31.0764 248.809 28.6753C248.809 27.7749 248.209 27.7749 247.608 27.4748C247.608 27.4748 246.408 27.1747 246.408 27.7749C245.808 32.2769 246.408 35.5783 245.507 40.6806C244.607 45.4826 243.106 50.5849 241.606 55.387C240.405 60.4892 237.704 66.4918 235.903 71.8942C234.102 76.9964 232.302 81.7985 230.201 86.9007C230.201 86.0003 230.201 85.0999 230.201 84.4997C229.6 81.7985 229 79.3974 227.8 77.5966C227.199 76.6963 226.599 76.096 225.699 75.1956C225.098 74.5953 224.498 73.695 223.598 73.0947C222.697 72.4944 221.797 72.1943 220.597 72.1943C219.696 71.8942 218.796 71.2939 217.895 70.9938C217.895 70.9938 216.995 70.6936 216.695 70.9938C216.395 71.594 216.995 71.8942 217.295 72.1943C217.895 72.7946 218.796 73.0947 219.396 73.695C220.296 73.9951 221.197 73.9951 222.097 74.5953C222.697 74.8955 223.298 75.7959 223.898 76.3961C224.498 76.9964 225.098 77.5967 225.699 78.497C226.599 80.2978 227.199 82.3987 227.5 84.4997C227.8 86.6006 227.199 89.902 226.599 92.9033C226.599 93.5036 226.599 93.5036 226.899 93.8037C226.299 95.3044 225.399 96.5049 224.798 98.0055C223.298 100.707 221.497 103.708 220.296 106.409C217.295 112.412 213.694 118.414 210.392 124.417C208.891 127.118 207.391 129.519 205.59 131.92C203.789 134.622 202.289 137.623 200.488 140.324C197.486 145.126 194.485 150.528 191.784 155.631C191.784 155.331 192.084 155.03 192.084 154.73C192.984 152.329 193.885 149.628 194.785 147.227C195.386 145.126 195.686 143.325 195.986 141.525C196.286 139.424 196.586 137.323 196.886 135.222C197.186 133.121 197.186 131.32 197.186 129.519C197.186 125.618 198.387 120.815 198.387 116.914C198.387 116.013 197.787 115.713 197.186 115.713C197.186 115.713 195.986 115.413 195.986 116.013C195.686 118.114 195.386 120.215 195.085 122.316C194.785 124.417 194.485 126.518 194.485 128.319C194.485 130.12 194.485 131.62 194.185 133.721C193.885 135.822 193.585 137.923 193.285 140.024C192.984 141.825 192.684 143.926 192.084 146.026C191.484 148.428 190.283 151.129 189.383 153.53C187.582 158.632 186.081 163.734 183.68 168.836C183.38 169.137 183.68 169.437 183.68 169.737C182.18 172.438 180.679 175.139 178.878 177.54C176.777 180.842 174.977 183.843 173.176 187.144C171.375 190.446 169.274 193.747 167.173 196.749C166.873 197.049 168.674 199.75 169.574 198.249C173.476 193.147 176.477 186.844 180.079 181.142C183.68 175.439 186.982 169.437 190.283 163.734C193.585 157.732 197.186 151.429 200.488 145.426C201.688 143.325 202.889 141.224 204.089 139.123C204.089 139.123 204.389 139.123 204.389 138.823C206.19 137.323 208.291 135.522 210.092 134.021C210.992 133.421 211.893 132.821 212.793 132.22C213.694 131.62 214.894 130.42 216.095 129.519C218.195 127.718 219.996 126.518 222.097 124.717C224.198 122.916 226.299 120.515 228.4 119.015C230.501 117.214 232.302 116.314 234.102 114.813C236.203 113.012 238.304 111.211 240.705 109.411C244.907 105.809 248.809 101.607 253.011 96.5049C255.412 93.5036 257.213 90.5023 259.313 86.6006C260.514 84.4997 261.414 82.999 262.315 81.1982Z" fill="#B8AD4C"/>
<path d="M78.0343 172.738C78.3344 172.738 78.3344 172.438 78.3344 172.438C78.0343 171.838 78.0343 170.937 78.0343 170.337C78.0343 169.737 78.0343 168.836 78.0343 168.236C78.0343 166.736 78.3344 165.535 78.3344 164.034C78.3344 163.434 78.6345 162.834 78.6345 161.933C78.9347 161.333 78.9347 160.733 78.9347 159.833C78.9347 159.232 78.6345 158.632 78.6345 158.032C78.6345 157.431 78.6345 156.531 78.6345 155.931C78.6345 154.43 78.9347 152.93 79.2348 151.729C79.5349 150.528 79.8351 149.028 79.8351 147.827C79.8351 146.327 79.8351 145.126 79.8351 143.625C79.8351 142.125 79.8351 140.624 80.1352 139.424C80.4353 137.923 80.7354 136.422 81.0356 134.922C81.3357 133.421 81.6358 131.92 81.936 130.72C82.2361 130.42 81.3357 129.819 81.3357 130.42C80.7354 131.62 80.4353 133.121 80.4353 134.321C80.1352 135.822 79.8351 137.023 79.8351 138.523C79.5349 140.024 79.5349 141.224 79.2348 142.725C79.2348 144.226 79.2348 145.726 79.2348 146.927C79.2348 148.428 79.2348 149.628 78.9347 151.129C78.6345 151.729 78.6345 152.629 78.3344 153.23C78.3344 153.83 78.0343 154.73 78.0343 155.331C78.0343 155.931 78.0343 156.831 78.0343 157.431C78.0343 158.032 78.0343 158.632 78.3344 159.532C78.3344 160.133 78.3344 161.033 78.3344 161.633C78.3344 162.234 78.0343 162.834 78.0343 163.734C78.0343 164.635 77.7341 165.235 77.7341 166.135C77.7341 167.036 77.434 167.636 77.434 168.536C77.434 169.137 77.434 169.737 77.434 170.637C77.434 170.637 77.434 170.337 77.1339 170.337C76.2335 167.636 75.3331 164.635 74.4327 161.933C72.6319 156.231 70.8311 150.228 69.0303 144.526C68.1299 141.825 67.2296 138.823 65.7289 136.122C65.4288 135.222 64.8285 134.321 64.5284 133.421C64.8285 133.421 64.8285 133.121 65.1286 133.121C66.029 132.22 66.3292 130.42 66.3292 129.219C66.6293 127.118 66.6293 125.317 66.9294 123.217C67.2296 121.116 67.2296 119.015 67.5297 116.914C67.8298 114.513 68.1299 112.412 68.4301 110.011C68.4301 108.81 68.7302 107.91 68.7302 106.709C68.7302 105.809 68.7302 105.209 69.0303 104.308C69.3305 104.308 69.6306 104.008 69.3305 103.708C69.3305 103.708 69.3305 103.408 69.0303 103.408C69.0303 103.108 68.4301 103.108 68.4301 103.408C67.8298 104.909 68.13 107.009 67.8298 108.51C67.5297 110.611 67.2296 112.412 66.9294 114.513C66.3292 118.414 66.029 122.616 65.7289 126.818C65.7289 127.719 65.4288 128.319 65.4288 129.219C65.4288 129.819 65.4288 130.72 65.1286 131.32C64.8285 131.92 64.5284 132.22 64.2282 132.521C63.628 131.02 63.3279 129.219 62.7276 127.719C62.4275 126.218 61.8272 125.017 61.5271 123.517C61.2269 122.016 61.2269 120.816 60.9268 119.315C60.6267 118.114 60.3265 116.914 60.0264 115.413C59.4262 113.913 59.126 112.412 58.8259 110.911C58.8259 110.611 58.5258 110.011 58.5258 109.711C58.8259 109.11 58.5258 108.21 58.8259 107.61C58.8259 107.009 58.8259 106.709 58.8259 106.109C58.8259 105.509 59.126 105.209 59.126 104.608C59.4262 102.808 59.7263 101.307 60.0264 99.5062C60.3265 97.7054 60.6267 95.6045 61.2269 93.8037C61.8272 92.0029 62.4275 89.902 63.3279 88.1012C63.628 87.8011 62.7276 87.2008 62.7276 87.8011C61.5271 91.1026 60.3265 94.1039 59.7263 97.7054C59.4262 99.5062 59.126 101.007 58.8259 102.808C58.5258 103.708 58.5258 104.608 58.2256 105.509C58.2256 106.109 58.2256 106.709 58.2256 107.31C57.9255 105.809 57.3252 104.008 57.0251 102.508C56.1247 99.5062 55.5245 96.805 54.9242 93.8037C54.9242 93.5036 54.9242 92.9033 54.9242 92.6032C54.9242 92.3031 54.9242 91.7028 54.9242 91.4027C55.2243 88.4014 55.8246 85.4001 56.4248 82.3988C56.725 80.8981 57.3252 79.3974 57.6254 77.8968C57.9255 76.3961 58.5258 75.1956 58.8259 73.695C59.126 72.7946 59.7263 71.594 59.126 70.3935C59.126 70.0934 58.8259 70.0934 58.5258 70.3935C57.9255 71.594 57.6254 73.0947 57.0251 74.5953C57.0251 74.8955 57.3252 75.1956 57.6254 74.8955C57.6254 74.5953 57.9255 74.2952 57.9255 73.9951C57.6254 75.1956 57.3252 76.3961 57.0251 77.5967C56.1247 80.598 55.5245 83.2991 54.9242 86.3005C54.3239 87.2008 54.0238 88.7015 54.0238 90.2022C53.4235 88.1012 52.8233 86.3005 51.9229 84.1995C51.3226 82.0986 50.7224 79.9977 49.822 77.8968C49.5218 76.096 50.1221 74.2952 50.4222 72.4944C50.7224 70.3935 51.0225 68.2926 51.3226 65.8916C51.3226 64.691 51.3226 63.1904 51.3226 61.9899C51.3226 61.3896 50.7224 61.3896 50.7224 61.9899C50.7224 64.3909 50.7224 66.4918 50.4222 68.8929C50.4222 70.0934 50.1221 70.9938 49.822 72.1943C49.5218 73.0947 49.5218 73.9951 49.2217 75.1956C49.2217 75.4957 49.2217 75.7959 49.2217 76.096C48.0212 73.695 46.8207 71.594 46.2204 69.193C45.6201 67.3922 45.32 65.2913 44.1195 63.7906C43.5192 63.1904 42.919 62.5901 42.3187 62.29C42.0186 61.9899 41.7184 62.8902 42.0186 62.8902C43.8193 63.7906 44.4196 65.8916 45.0199 67.6923C45.6201 69.7933 46.2204 71.594 47.1208 73.695C47.721 74.8955 48.6214 76.3961 49.2217 77.5967C49.822 79.0973 50.1221 80.2978 50.7224 81.7985C51.6227 84.7998 52.8233 87.501 53.4235 90.2022C53.7237 91.1025 54.0238 92.0029 54.0238 92.6032C54.0238 92.9033 54.0238 92.9033 54.0238 93.2035C54.0238 93.2035 54.0238 93.2035 54.0238 93.5036C53.7237 93.8037 53.7237 93.5036 53.4235 93.2035C53.1234 92.9033 52.8233 92.6032 52.223 92.3031C51.6227 91.7028 51.0225 91.1025 50.1221 90.2022C49.5218 89.6019 48.6214 88.7015 48.0212 88.1012C46.5205 86.9007 45.0199 85.7002 43.5192 84.4997C41.7184 82.999 40.2178 81.4984 39.0173 79.9977C38.7171 79.6976 38.417 79.9977 38.417 80.598C39.6175 82.0986 41.4183 83.5993 42.919 85.0999C44.4196 86.6006 46.2204 87.8011 47.721 89.0016C48.6214 89.6019 49.2217 90.5023 50.1221 91.1025C50.7224 91.7028 51.6227 92.6032 52.223 93.2035C52.5231 93.5036 52.8233 93.8037 53.1234 94.1039C53.4235 94.404 53.7237 94.404 54.0238 94.1039C54.3239 95.6045 54.6241 97.1052 55.2243 98.6058C56.1247 101.607 57.0251 104.308 57.6254 107.31C57.6254 107.61 57.6254 107.91 57.9255 108.21V108.51C57.9255 108.81 57.9255 108.81 57.6254 109.11C57.3252 109.11 57.0251 109.11 57.0251 109.11C56.4248 108.81 56.1247 108.51 55.8246 108.21C55.2243 107.61 54.3239 107.31 53.7237 106.709C52.223 105.809 50.7224 104.608 49.2217 103.708C47.721 102.808 46.5205 101.607 45.0199 100.707C44.4196 100.106 43.5192 99.8063 42.919 99.2061C42.6188 98.906 42.3187 98.6058 42.0186 98.3057C41.4183 98.0056 41.1182 97.7054 40.5179 97.4053C40.2178 97.1052 39.6175 97.1052 39.3174 97.1052C39.0173 97.4053 39.0173 98.0056 39.6175 97.7054C39.9176 97.7054 40.2178 97.7054 40.5179 98.0056C40.818 98.3057 41.4183 98.6058 41.7184 98.906C42.0186 99.2061 42.3187 99.5062 42.6188 99.5062C43.2191 99.8063 43.8193 100.407 44.4196 100.707C45.9203 101.607 47.4209 102.808 48.6214 104.008C50.1221 105.209 51.6228 106.109 52.8233 107.009C53.4235 107.61 54.3239 107.91 54.9242 108.51C55.2243 108.81 55.8246 109.11 56.1247 109.411C56.4248 109.711 57.0251 109.711 57.6254 109.411L57.9255 109.11C57.9255 109.711 58.2256 110.611 58.2256 111.211C58.5258 112.712 59.126 113.913 59.4262 115.413C60.3265 118.114 60.0264 120.816 60.9268 123.517C61.2269 125.017 61.8272 126.218 62.1273 127.719C62.4275 128.919 62.7276 130.12 63.3279 131.02C62.7276 131.02 62.1273 130.72 61.5271 130.42C60.0264 129.519 58.5258 128.619 57.0251 127.418C55.5245 126.218 54.0238 125.317 52.5231 124.117C50.7224 122.916 49.2217 121.716 47.4209 120.515C45.6201 119.315 43.8193 118.114 42.0186 117.514C41.7184 117.214 41.4183 117.814 41.7184 118.114C43.2191 119.015 45.0199 119.915 46.5205 121.116C48.0212 122.016 49.822 123.217 51.3226 124.417C52.8233 125.618 54.3239 126.518 55.8246 127.719C57.3252 128.919 58.8259 129.819 60.3265 130.72C61.2269 131.32 62.4275 131.62 63.3279 131.62C64.2282 134.321 65.7289 137.023 66.6293 139.724C67.5297 142.725 68.4301 145.426 69.3305 148.428C70.2309 151.429 70.8311 154.13 71.7315 157.131C72.6319 160.133 73.8324 163.434 74.7328 166.435C74.1326 165.835 73.5323 164.935 72.932 164.334C72.0317 163.434 70.8311 162.534 69.6306 161.633C68.4301 160.733 67.5297 159.532 66.3292 158.632C64.2282 156.831 62.1273 155.03 59.7263 153.23C57.6254 151.429 55.2243 149.928 52.8233 148.428C51.6228 147.827 50.1221 146.927 48.9216 146.026C47.721 145.126 46.5205 144.226 45.0199 143.625C44.7197 143.325 44.4196 143.926 44.7197 144.226C47.1208 145.426 49.2217 147.227 51.3226 148.728C52.5231 149.328 53.7237 149.928 54.6241 150.829C55.8246 151.729 57.0251 152.329 57.9255 153.23C60.0264 155.03 62.1273 156.531 64.2282 158.332C65.4288 159.232 66.3292 160.433 67.5297 161.333C68.4301 162.234 69.6306 163.134 70.8311 164.034C72.3318 165.235 73.5323 166.736 74.7328 168.236C75.3331 170.337 75.9334 172.138 76.8337 174.239C77.434 176.64 78.3344 178.741 78.9347 181.142C78.6345 180.542 78.3344 180.241 78.0343 179.641C77.1339 178.441 76.2335 177.54 75.033 176.64C72.932 174.539 70.8311 172.438 68.4301 170.937C66.029 169.137 63.628 167.936 61.5271 166.135C59.126 164.334 57.0251 162.834 54.6241 161.033C53.4235 160.133 51.9229 159.232 50.7224 158.332C49.2217 157.431 47.721 156.831 46.5205 155.931C46.2204 155.631 45.9203 156.231 46.2204 156.531C47.4209 157.131 48.6214 157.732 50.1221 158.632C51.3226 159.232 52.5231 160.133 53.7237 161.033C56.1247 162.534 58.5258 164.334 60.6267 166.135C63.0277 167.936 65.4288 169.137 67.8298 170.937C70.2309 172.738 72.3318 174.839 74.4327 176.64C75.6332 177.54 76.8337 178.741 77.7341 179.941C78.0343 180.542 78.3344 181.142 78.6345 181.742C78.9347 182.042 79.2348 182.642 79.5349 182.642C80.4353 185.044 81.0356 187.445 81.936 189.846C81.6358 189.245 81.0356 188.645 80.7354 188.345C78.9347 186.244 76.8337 184.743 74.4327 182.943C72.3318 181.442 69.9307 179.941 67.5297 178.441C65.1286 176.94 63.0277 175.139 60.6267 173.639C59.4262 173.038 58.5258 172.138 57.3252 171.838C56.725 171.538 56.1247 171.237 55.8246 171.237C55.5245 170.937 54.9242 170.637 54.9242 170.337C54.6241 170.037 54.0238 170.037 54.3239 170.637C54.6241 171.538 55.8246 172.138 56.4248 172.438C56.725 172.738 57.3252 172.738 57.9255 173.038C58.5258 173.338 58.8259 173.639 59.4262 173.939C61.8272 175.439 63.9281 177.24 66.3292 178.741C67.5297 179.641 68.7302 180.241 69.9307 180.842C71.1313 181.442 72.3318 182.342 73.5323 183.243C75.9334 184.743 78.0343 186.544 80.1352 188.645C80.7355 189.245 81.3357 190.146 82.2361 191.046C82.5362 191.346 82.8364 191.646 83.1365 191.947C84.0369 194.348 85.2374 196.749 86.4379 198.85C86.1378 199.75 85.8377 200.95 85.5375 201.851C84.6371 201.251 84.0369 200.65 83.1365 200.05C82.2361 199.45 81.6358 198.549 80.7354 197.949C78.6345 196.449 76.5336 194.948 74.4327 193.447C72.3318 191.947 70.2309 190.746 67.8298 189.245C65.4288 188.045 63.0277 186.844 60.6267 185.644C59.4262 185.044 57.9255 184.443 56.725 183.543C55.5245 182.943 54.0238 182.042 52.8233 181.442C52.5231 181.142 52.223 182.042 52.5231 182.042C53.7237 182.642 54.9242 183.243 56.1247 183.843C57.3252 184.443 58.5258 185.044 59.7263 185.644C62.1273 186.844 64.5284 188.045 66.9294 189.245C71.4314 191.646 75.6332 194.648 79.8351 197.649C80.7354 198.249 81.6358 199.15 82.8364 200.05C83.7368 200.95 84.6371 201.551 85.8377 202.151H86.1378C86.7381 201.251 87.0382 200.65 87.0382 199.75C87.9386 202.451 88.839 205.152 89.7394 208.154C90.0395 209.354 90.3396 210.555 90.9399 211.455H90.6398C89.7394 210.855 88.839 210.255 88.2387 209.354C87.3383 208.454 86.4379 207.553 85.5375 206.653C84.6371 205.753 83.7368 204.852 82.5362 204.252C80.4353 202.751 78.6345 201.251 76.5336 200.05C74.4327 198.549 72.6319 197.049 70.531 195.848C68.4301 194.348 66.3292 193.147 64.2282 191.947C63.0277 191.346 62.1273 190.746 60.9268 190.446C60.3265 190.146 59.7263 189.846 59.4262 189.545C59.126 189.245 58.8259 188.945 58.2256 188.945C57.9255 188.945 57.6254 188.945 57.0251 189.245C56.725 189.545 57.0251 190.146 57.3252 189.846C57.6254 189.545 57.9255 189.846 58.2256 190.146C58.8259 190.446 59.126 190.746 59.7263 191.046C60.9268 191.646 61.8272 192.247 63.0277 192.547C65.1286 193.747 67.2296 194.948 69.3305 196.449C71.4314 197.949 73.5323 199.15 75.3331 200.65C77.434 202.151 79.5349 203.352 81.6358 205.152C82.5362 206.053 83.7368 206.653 84.6371 207.553C85.5375 208.454 86.4379 209.354 87.3383 210.255C88.2387 211.455 89.7394 212.656 90.9399 212.956C92.1404 216.857 93.341 220.759 95.1417 224.361C95.1417 224.361 95.1417 224.361 95.1417 224.661C95.1417 224.961 95.1417 225.261 94.8416 225.261C94.5415 224.961 94.2413 224.361 93.9412 223.76C93.6411 223.16 93.0408 222.86 92.4406 222.26C91.24 221.359 90.3396 220.459 89.1391 219.559C86.7381 217.758 84.337 215.957 81.936 214.456C79.5349 212.956 76.8337 211.455 74.4327 209.954C71.7315 208.454 69.0303 207.253 66.3292 205.753C64.8285 205.152 63.3279 204.252 61.8272 203.652C61.2269 203.352 60.3265 203.051 59.7263 202.751C59.126 202.451 58.2256 202.451 57.6254 202.151C57.3252 201.851 57.0251 202.451 57.3252 202.751C58.2256 203.352 59.4262 203.652 60.6267 203.952C61.8272 204.552 63.0277 205.152 64.2282 205.753C66.6293 206.953 69.0303 208.154 71.4314 209.354C76.2335 211.755 80.7354 214.456 85.2374 217.458C86.4379 218.358 87.3383 218.958 88.5389 219.859C89.4392 220.759 90.6398 221.659 91.5402 222.26C92.1404 222.56 92.4406 223.16 93.0408 223.46C93.3409 223.76 93.6411 224.361 93.9412 224.961C94.2413 225.261 94.5415 225.861 95.1417 225.861C95.4419 225.861 95.742 225.561 95.742 225.261C96.3423 226.462 96.9425 227.662 97.8429 228.863C98.143 229.163 98.7433 228.863 98.4432 228.562C97.5428 227.062 96.9425 225.861 96.0421 224.361C96.0421 223.76 96.0421 223.46 96.0421 222.86C96.0421 221.659 96.3423 220.159 96.3423 218.958C96.6424 216.257 97.2426 213.556 97.5428 210.855C97.8429 208.154 98.143 205.452 98.7433 202.451C99.3436 199.75 99.9438 197.049 100.544 194.348C100.544 193.747 100.844 193.147 100.844 192.247C100.844 191.646 100.244 191.646 100.244 191.947C99.6437 196.749 98.4432 201.251 97.5428 206.053C97.2426 208.454 96.9425 210.855 96.6424 212.956C96.3423 214.156 96.3423 215.357 96.0421 216.557C95.742 217.758 95.742 218.958 95.742 220.159C95.742 221.059 95.742 221.96 95.4419 222.86C93.9412 219.559 92.7407 216.257 91.8403 212.956C92.1404 212.956 92.1404 212.956 92.4406 212.656C93.3409 212.355 93.6411 211.755 93.6411 210.555C93.6411 209.954 93.6411 209.654 93.3409 209.054C93.3409 208.454 93.3409 207.853 93.3409 207.253C93.3409 206.053 93.3409 204.852 93.3409 203.652C93.3409 202.451 93.6411 200.95 93.9412 199.75C94.5415 194.348 95.1417 188.945 95.742 183.543C95.742 182.943 95.742 182.042 96.0421 181.442C96.0421 180.842 95.4419 180.842 95.4419 181.142C94.8416 186.544 94.2413 191.947 93.6411 197.049C93.341 199.75 92.7407 202.151 92.7407 204.852C92.7407 206.053 92.7407 207.253 92.7407 208.454C92.7407 209.054 92.7407 209.654 93.0408 210.255C93.0408 210.555 93.0408 211.155 93.0408 211.455C92.7407 211.755 92.4406 212.055 91.8403 212.055V211.755C90.9399 209.054 90.0395 206.053 89.1391 203.351C88.839 201.851 88.2387 200.65 87.6385 199.45C87.6385 199.15 87.6385 199.15 87.6385 198.85C87.9386 197.049 88.5388 195.548 88.839 193.747C89.4392 191.947 90.0395 190.446 90.6398 188.645C91.24 187.144 91.5402 185.344 91.8403 183.843C92.1404 182.042 92.7407 179.941 93.6411 178.441C93.9412 178.141 93.0408 177.54 93.0408 178.141C91.8403 181.142 91.24 184.743 90.3396 187.745C89.7394 189.545 89.1391 191.046 88.839 192.547C88.2387 194.047 87.9386 195.848 87.3383 197.349C87.3383 197.649 87.3383 197.949 87.0382 197.949C86.4379 196.749 86.1378 195.848 85.5375 194.648C85.2374 194.047 84.9373 193.147 84.6371 192.547H84.9373C85.2374 192.547 85.2374 192.247 85.2374 192.247C85.2374 191.346 85.2374 190.446 85.5375 189.545C85.5375 188.645 85.5375 187.745 85.8377 186.844C85.8377 185.644 85.8377 184.743 86.1378 183.543C86.1378 182.642 86.1378 181.442 86.1378 180.542C86.4379 176.64 87.0382 172.738 87.6385 168.836C87.9386 166.736 88.5389 164.635 89.1391 162.234C89.1391 161.633 88.5389 161.633 88.5389 161.933C87.6385 165.835 86.7381 169.737 86.1378 173.639C85.8377 175.739 85.5375 177.54 85.5375 179.641C85.5375 180.542 85.5375 181.742 85.5375 182.642C85.5375 183.543 85.5375 184.743 85.2374 185.644C85.2374 186.844 85.2374 187.745 84.9373 188.945C84.9373 189.846 84.6371 190.746 84.6371 191.646C84.6371 191.646 84.337 191.646 84.337 191.346C83.1365 188.645 82.2361 185.644 81.3357 182.642C81.3357 182.642 81.3357 182.642 81.3357 182.342C81.3357 181.742 81.0356 181.142 80.7354 180.542C80.4353 179.941 80.7354 179.341 80.7354 178.741C80.7354 177.54 81.0356 176.34 81.0356 175.139C81.3357 172.738 81.936 170.337 82.2361 168.236C82.5362 165.835 82.8364 163.434 83.1365 161.333C83.4366 160.133 83.7368 158.932 83.7368 158.032C83.7368 156.831 83.7368 155.931 83.7368 154.73C83.7368 153.23 84.0369 152.029 84.337 150.829C84.6371 149.328 84.6371 148.127 84.9373 146.627C84.9373 146.026 84.337 146.027 84.337 146.327C84.0369 147.527 84.0369 148.728 83.7368 149.928C83.4366 151.129 83.4366 152.329 83.1365 153.53C83.1365 154.73 83.1365 155.931 83.1365 156.831C83.1365 158.032 82.8364 159.232 82.5362 160.133C82.2361 162.534 81.936 164.935 81.6358 167.036C81.3357 169.437 80.7354 171.538 80.4353 173.939C80.1352 175.139 80.1352 176.64 80.1352 177.84V178.141C79.8351 177.54 79.8351 176.94 79.5349 176.34C79.2348 176.64 78.6345 174.839 78.0343 172.738Z" fill="#B8AD4C"/>
<path d="M48.321 78.1969C46.8203 76.3961 45.0195 74.5953 43.2187 73.0947C42.3183 72.1943 41.418 71.594 40.5176 70.6936C39.9173 70.0934 39.317 69.193 38.7168 68.5927C38.1165 67.9925 37.2161 67.0921 36.3157 66.7919C36.0156 66.7919 36.0156 66.7919 35.7155 67.0921C35.7155 67.3922 35.4153 67.3922 35.4153 67.6923C35.1152 67.9925 35.4153 68.2926 35.7155 68.2926L36.0156 67.9925C37.5162 68.8929 38.4166 70.3935 39.6172 71.594C41.418 73.3948 43.2187 74.8955 44.7194 76.3961C45.6198 77.2965 46.5202 78.1969 47.4206 79.3974C48.0208 79.0973 48.6211 78.497 48.321 78.1969Z" fill="#B8AD4C"/>
<path d="M71.4311 152.029C69.6303 150.829 68.1297 149.328 66.629 147.827C65.1284 146.327 63.6277 144.526 62.1271 143.325C58.5255 140.324 54.9239 137.323 51.6225 134.021C51.0222 133.121 50.1218 132.521 49.5216 131.62C48.9213 131.02 48.0209 130.12 47.1205 130.12C46.8204 130.12 46.8204 130.12 46.8204 130.42C46.8204 130.72 46.5203 130.72 46.5203 131.02C46.5203 131.32 46.8204 131.62 47.1205 131.32C47.1205 131.32 47.1205 131.02 47.4207 131.02C48.9213 131.62 50.1218 133.121 51.0222 134.321C52.5229 136.122 54.3237 137.623 56.1245 139.123C57.9252 140.624 59.726 142.125 61.5268 143.625C63.0275 145.126 64.8282 146.627 66.3289 148.127C67.8296 149.928 69.6303 151.429 71.7313 152.93C71.4311 153.23 71.7313 152.329 71.4311 152.029Z" fill="#B8AD4C"/>
<path d="M73.5317 123.817H73.2315C72.9314 123.817 72.9314 124.417 73.2315 124.417C73.5317 125.618 73.2315 127.118 72.9314 128.319C72.6313 130.12 72.6313 131.62 72.6313 133.421C72.6313 135.222 72.3311 137.023 72.031 138.823C71.7309 139.724 71.7309 140.324 71.4307 141.224C71.1306 142.125 71.1306 143.025 71.1306 143.625C70.8305 145.726 70.8305 147.827 70.2302 149.928C70.2302 150.529 70.8305 150.529 70.8305 150.228C71.1306 148.428 71.4307 146.327 71.4307 144.526C71.4307 143.625 71.7309 142.725 71.7309 141.825C72.031 140.924 72.031 140.024 72.3311 139.424C72.6313 138.523 72.6313 137.623 72.9314 137.023C72.9314 136.122 72.9314 135.222 73.2315 134.321C73.2315 132.521 73.2315 130.72 73.5317 128.919C73.5317 128.019 73.8318 127.418 73.8318 126.518C73.8318 125.618 73.8318 125.017 73.5317 124.117C73.8318 123.817 73.8318 123.517 73.5317 123.817Z" fill="#B8AD4C"/>
<path d="M112.549 209.654C112.849 209.954 113.149 210.555 113.449 211.155L112.549 209.654Z" fill="#B8AD4C"/>
<path d="M112.549 209.654C112.849 209.954 113.149 210.555 113.449 211.155" stroke="#245921" stroke-width="0.1747" stroke-miterlimit="10"/>
<path d="M111.048 208.454C111.649 208.754 111.949 209.354 112.549 209.654L111.048 208.454Z" fill="#B8AD4C"/>
<path d="M111.048 208.454C111.649 208.754 111.949 209.354 112.549 209.654" stroke="#245921" stroke-width="0.1747" stroke-miterlimit="10"/>
<path d="M108.047 205.753C108.948 206.653 110.148 207.553 111.048 208.154L108.047 205.753Z" fill="#B8AD4C"/>
<path d="M108.047 205.753C108.948 206.653 110.148 207.553 111.048 208.154" stroke="#245921" stroke-width="0.1747" stroke-miterlimit="10"/>
<path d="M104.745 203.352C105.946 204.252 106.846 204.852 108.047 205.753L104.745 203.352Z" fill="#B8AD4C"/>
<path d="M104.745 203.352C105.946 204.252 106.846 204.852 108.047 205.753" stroke="#245921" stroke-width="0.1747" stroke-miterlimit="10"/>
<path d="M90.9397 195.248C95.7418 197.649 100.244 200.35 104.746 203.352L90.9397 195.248Z" fill="#B8AD4C"/>
<path d="M90.9397 195.248C95.7418 197.649 100.244 200.35 104.746 203.352" stroke="#245921" stroke-width="0.1747" stroke-miterlimit="10"/>
<path d="M83.7363 191.646C86.1374 192.847 88.5384 194.047 90.9395 195.248L83.7363 191.646Z" fill="#B8AD4C"/>
<path d="M83.7363 191.646C86.1374 192.847 88.5384 194.047 90.9395 195.248" stroke="#245921" stroke-width="0.1747" stroke-miterlimit="10"/>
<path d="M93.9404 196.148C91.2393 194.648 88.5381 193.447 85.8369 191.947L93.9404 196.148Z" fill="#B8AD4C"/>
<path d="M93.9404 196.148C91.2393 194.648 88.5381 193.447 85.8369 191.947" stroke="#245921" stroke-width="0.1747" stroke-miterlimit="10"/>
<path d="M101.144 191.046C102.044 191.947 103.245 192.547 104.145 193.447L101.144 191.046Z" fill="#B8AD4C"/>
<path d="M101.144 191.046C102.044 191.947 103.245 192.547 104.145 193.447" stroke="#245921" stroke-width="0.1747" stroke-miterlimit="10"/>
<path d="M95.1414 186.844C97.2423 188.345 99.3432 189.545 101.444 191.346L95.1414 186.844Z" fill="#B8AD4C"/>
<path d="M95.1414 186.844C97.2423 188.345 99.3432 189.545 101.444 191.346" stroke="#245921" stroke-width="0.1747" stroke-miterlimit="10"/>
<path d="M88.8384 182.642C90.9393 184.143 93.0402 185.344 94.841 186.844L88.8384 182.642Z" fill="#B8AD4C"/>
<path d="M88.8384 182.642C90.9393 184.143 93.0402 185.344 94.841 186.844" stroke="#245921" stroke-width="0.1747" stroke-miterlimit="10"/>
<path d="M82.5359 178.741C84.6368 179.941 86.7377 181.142 88.8386 182.642L82.5359 178.741Z" fill="#B8AD4C"/>
<path d="M82.5359 178.741C84.6368 179.941 86.7377 181.142 88.8386 182.642" stroke="#245921" stroke-width="0.1747" stroke-miterlimit="10"/>
<path d="M89.7393 182.342C87.6384 180.842 85.5374 179.641 83.4365 178.441L89.7393 182.342Z" fill="#B8AD4C"/>
<path d="M89.7393 182.342C87.6384 180.842 85.5374 179.641 83.4365 178.441" stroke="#245921" stroke-width="0.1747" stroke-miterlimit="10"/>
<path d="M105.046 193.147C104.145 192.247 103.245 191.346 102.044 190.746L105.046 193.147Z" fill="#B8AD4C"/>
<path d="M105.046 193.147C104.145 192.247 103.245 191.346 102.044 190.746" stroke="#245921" stroke-width="0.1747" stroke-miterlimit="10"/>
<path d="M102.044 186.844C102.945 187.745 103.845 188.345 105.046 188.945L102.044 186.844Z" fill="#B8AD4C"/>
<path d="M102.044 186.844C102.945 187.745 103.845 188.345 105.046 188.945" stroke="#245921" stroke-width="0.1747" stroke-miterlimit="10"/>
<path d="M99.3428 184.443C100.243 185.043 101.144 185.944 102.344 186.844L99.3428 184.443Z" fill="#B8AD4C"/>
<path d="M99.3428 184.443C100.243 185.043 101.144 185.944 102.344 186.844" stroke="#245921" stroke-width="0.1747" stroke-miterlimit="10"/>
<path d="M86.4377 176.04C90.9397 178.441 95.1415 181.442 99.3434 184.443L86.4377 176.04Z" fill="#B8AD4C"/>
<path d="M86.4377 176.04C90.9397 178.441 95.1415 181.442 99.3434 184.443" stroke="#245921" stroke-width="0.1747" stroke-miterlimit="10"/>
<path d="M94.2411 179.941C92.1401 178.441 90.0392 177.24 87.6382 175.739L94.2411 179.941Z" fill="#B8AD4C"/>
<path d="M94.2411 179.941C92.1401 178.441 90.0392 177.24 87.6382 175.739" stroke="#245921" stroke-width="0.1747" stroke-miterlimit="10"/>
<path d="M100.244 184.443C98.143 182.943 96.0421 181.442 93.9412 179.941L100.244 184.443Z" fill="#B8AD4C"/>
<path d="M100.244 184.443C98.143 182.943 96.0421 181.442 93.9412 179.941" stroke="#245921" stroke-width="0.1747" stroke-miterlimit="10"/>
<path d="M131.457 311.699C126.955 291.59 127.555 270.581 124.854 250.172C122.153 229.763 114.65 208.454 98.1426 196.148C109.848 193.147 122.753 197.649 132.057 205.152C141.361 212.956 148.264 223.46 154.267 233.965C158.169 240.868 162.07 247.771 163.871 255.274C165.372 261.577 165.672 268.18 165.672 274.783C165.072 288.889 162.07 303.595 153.967 315.3C150.365 320.402 146.164 324.604 141.662 328.806C139.861 330.307 138.06 332.108 135.959 332.708C133.858 333.308 130.857 333.008 129.656 330.907C128.756 329.406 128.756 327.306 129.056 325.505C129.356 319.202 130.257 312.299 131.457 311.699Z" fill="#045837"/>
<path d="M164.772 284.687C179.178 274.182 184.881 255.574 188.182 237.867C191.484 219.258 192.384 199.45 184.881 182.042C183.08 177.54 180.379 173.338 175.877 171.237C171.075 169.137 165.072 170.937 161.171 174.539C157.269 178.14 155.168 183.243 153.667 188.345C148.865 205.452 151.566 223.76 154.268 241.468C156.669 256.475 158.77 271.181 164.772 284.687Z" fill="#045837"/>
<path d="M173.476 286.788C180.979 285.587 186.682 279.585 190.283 272.982C193.885 266.379 195.685 258.876 198.086 251.973C202.588 238.767 209.792 226.762 216.695 215.057C222.397 205.452 228.4 195.848 234.402 186.544C236.803 182.642 239.805 178.441 244.007 176.94C244.907 176.64 245.807 176.64 246.708 176.64C248.208 177.24 249.109 178.741 249.709 180.542C258.413 206.353 256.312 236.066 241.305 258.876C226.599 281.686 198.687 296.092 171.975 292.79C174.376 288.889 177.978 286.188 173.476 286.788Z" fill="#045837"/>
<path d="M184.28 199.75C184.28 198.549 184.28 197.349 183.98 196.448C183.98 195.848 182.779 195.848 182.779 196.448C182.779 197.349 182.779 197.949 182.779 198.849C182.779 199.75 182.779 200.95 182.779 201.851C182.779 203.652 182.779 205.452 182.479 207.253C182.179 209.054 181.879 210.555 181.279 212.055C180.678 213.856 180.378 215.357 179.778 216.857C178.578 219.559 177.377 222.26 176.176 224.661C175.576 225.861 174.976 227.362 174.676 228.863C174.076 230.363 173.475 231.564 172.875 232.764C172.575 233.365 172.275 234.265 171.975 234.865C171.675 235.465 171.374 236.066 171.074 236.666C171.074 236.666 171.074 236.666 171.074 236.966C171.074 236.366 171.074 235.766 171.374 235.165C171.374 233.365 171.675 231.864 171.675 230.063C171.675 228.262 171.975 226.462 171.975 224.661C171.975 222.86 171.975 221.359 171.975 219.559C171.975 217.458 172.275 215.657 172.275 213.556C172.275 211.755 172.275 210.254 171.975 208.454C171.975 206.953 171.675 205.452 171.374 203.952C171.074 202.451 171.074 200.95 170.774 199.15C170.474 197.649 170.474 195.848 170.174 194.348C169.874 192.547 169.574 191.046 169.273 189.545C168.973 188.045 168.673 186.544 168.373 185.344C168.073 183.843 167.473 182.342 166.872 181.442C166.272 180.241 165.672 179.041 165.072 178.14C164.471 177.24 164.171 177.24 163.871 177.24C163.871 177.24 163.271 177.24 163.271 177.54C164.171 179.941 165.072 181.442 165.972 183.843C166.572 186.244 167.173 189.245 167.773 191.946C168.373 194.648 168.673 198.249 168.973 201.251C169.273 203.952 169.874 206.953 169.874 209.954C169.574 209.654 169.574 209.054 169.273 208.754C168.373 207.553 167.473 206.653 166.572 206.053C165.972 205.753 165.672 205.452 165.072 205.452C164.471 205.152 164.171 204.852 163.571 204.852C162.971 204.852 162.37 204.852 161.77 205.152C161.17 205.152 160.57 205.152 159.969 205.152C159.969 205.152 159.369 205.152 159.369 205.452C159.369 205.753 159.669 205.753 159.969 205.753C160.57 205.753 160.87 205.753 161.47 205.753C162.07 205.753 162.37 205.452 162.971 205.452C163.271 205.452 163.871 205.753 164.171 206.053C164.471 206.053 165.072 206.353 165.372 206.653C166.272 207.253 167.173 208.154 167.773 209.054C168.373 209.954 168.973 211.755 169.574 213.256C169.574 213.556 169.874 213.556 169.874 213.556C169.874 214.456 169.874 215.357 169.874 215.957C169.874 217.758 169.574 219.559 169.574 221.059C169.574 224.661 169.273 228.562 169.273 232.164C169.273 233.665 168.973 235.465 168.973 236.966C168.673 238.767 168.673 240.568 168.673 242.068C168.373 245.07 168.373 248.371 168.073 251.673V251.372C167.773 249.872 167.773 248.371 167.473 247.171C167.173 245.97 166.872 245.07 166.572 244.169C166.272 242.969 165.972 241.768 165.372 240.868C165.072 239.667 164.471 239.067 164.171 238.167C163.271 236.366 162.671 233.665 161.77 231.864C161.47 231.564 161.17 231.564 160.87 231.564C160.87 231.564 160.27 231.564 160.27 232.164C160.57 233.365 160.87 234.265 161.47 235.465C161.77 236.666 162.07 237.566 162.671 238.467C162.971 239.367 163.571 240.268 163.871 241.168C164.171 242.068 164.471 243.269 165.072 244.469C165.372 245.37 165.672 246.27 165.972 247.771C166.272 248.971 166.272 250.772 166.572 251.973C166.872 254.674 167.473 257.675 167.473 260.676C167.473 260.977 167.473 260.977 167.773 260.977C167.773 262.777 167.473 264.278 167.473 266.079C167.173 268.18 167.173 269.981 166.872 272.081C166.872 274.182 166.572 276.283 166.272 278.084C166.272 278.384 167.773 278.984 167.773 278.084C168.373 274.783 168.373 270.881 168.673 267.279C168.973 263.678 169.273 260.076 169.273 256.475C169.574 252.573 169.574 248.971 169.874 245.07C169.874 243.869 170.174 242.368 170.174 241.168C170.174 241.168 170.174 241.168 170.474 240.868C171.074 239.667 171.374 238.167 171.975 237.266C172.275 236.666 172.575 236.366 172.875 235.766C173.175 235.165 173.475 234.565 173.775 233.665C174.376 232.464 174.976 231.264 175.576 229.763C176.176 228.262 176.477 226.762 177.077 225.561C177.677 224.361 178.277 223.16 178.878 221.96C179.478 220.759 180.078 219.258 180.678 217.758C181.879 215.057 182.779 212.055 183.38 208.454C183.98 206.353 183.98 204.552 183.98 202.151C183.98 201.851 184.28 200.65 184.28 199.75Z" fill="#B8AD4C"/>
<path d="M252.41 218.358C253.01 217.157 253.31 215.957 253.91 215.057C254.21 214.456 253.01 213.856 252.71 214.456C252.109 215.357 251.809 215.957 251.509 216.857C250.909 217.758 250.609 218.658 250.009 219.859C249.108 221.659 248.208 223.46 247.007 224.961C245.807 226.462 244.606 227.962 243.406 229.163C242.205 230.663 240.704 231.864 239.504 233.064C237.103 235.165 234.702 237.266 232.301 239.067C231.1 239.967 229.9 241.168 228.699 242.368C227.499 243.569 226.298 244.469 225.098 245.37C224.497 245.97 223.897 246.57 223.297 246.87C222.697 247.471 222.096 247.771 221.496 248.071C221.496 248.071 221.496 248.071 221.196 248.071C221.496 247.471 221.796 246.87 222.396 246.27C223.297 244.77 224.197 242.969 225.098 241.468C225.998 239.667 227.199 237.867 228.099 236.366C228.999 234.565 229.6 233.064 230.8 231.264C232.001 229.463 232.901 227.662 233.801 225.561C234.702 223.76 235.602 222.26 236.202 220.459C236.803 218.958 237.403 217.157 238.003 215.657C238.604 214.156 239.204 212.355 239.804 210.855C240.404 209.054 241.005 207.553 241.605 205.753C242.205 203.952 242.505 202.451 243.105 200.65C243.706 199.15 244.006 197.649 244.306 196.148C244.606 194.648 244.906 192.847 244.906 191.646C244.906 190.146 244.906 188.945 244.906 187.445C244.906 186.844 244.606 186.844 244.306 186.844C244.306 186.844 243.706 186.544 243.706 187.144C243.406 189.846 243.706 191.646 243.105 194.648C242.505 197.349 241.605 200.35 241.005 203.351C240.104 206.353 238.604 209.654 237.703 212.956C236.803 215.957 235.602 218.658 234.402 221.96C234.402 221.359 234.402 221.059 234.402 220.459C234.102 218.958 233.801 217.458 233.201 216.257C232.901 215.657 232.301 215.357 232.001 215.057C231.701 214.756 231.1 214.156 230.8 213.856C230.2 213.556 229.6 213.556 228.999 213.256C228.399 212.956 228.099 212.656 227.499 212.355C227.499 212.355 226.898 212.055 226.898 212.355C226.598 212.656 227.199 212.956 227.199 212.956C227.499 213.256 228.099 213.556 228.399 213.856C228.999 214.156 229.6 214.156 229.9 214.456C230.2 214.756 230.5 215.357 230.8 215.657C231.1 215.957 231.4 216.257 231.701 216.857C232.301 217.758 232.601 218.958 232.901 220.459C233.201 221.659 232.901 223.76 232.301 225.561C232.301 225.861 232.301 225.861 232.601 226.161C232.301 227.062 231.701 227.662 231.4 228.562C230.5 230.363 229.6 231.864 228.699 233.665C226.898 237.266 224.798 240.868 222.697 244.169C221.796 245.67 220.896 247.171 219.995 248.671C219.095 250.172 218.195 251.973 216.994 253.473C215.193 256.475 213.393 259.476 211.892 262.477C211.892 262.477 211.892 262.177 212.192 262.177C212.792 260.676 213.393 259.176 213.693 257.675C213.993 256.475 214.293 255.274 214.293 254.374C214.593 253.173 214.593 251.973 214.893 250.472C215.193 249.271 214.893 248.071 215.193 247.171C215.193 244.77 216.094 242.068 216.094 239.667C216.094 239.067 215.794 239.067 215.493 239.067C215.493 239.067 214.893 238.767 214.893 239.367C214.593 240.568 214.593 241.768 214.293 242.969C213.993 244.169 213.993 245.37 213.993 246.57C213.993 247.471 213.993 248.671 213.993 249.572C213.993 250.772 213.693 251.973 213.393 253.473C213.092 254.674 213.092 255.574 212.792 257.075C212.492 258.576 211.592 260.076 211.292 261.577C210.391 264.578 209.191 267.579 207.99 270.581C207.99 270.881 207.99 270.881 207.99 271.181C207.09 272.682 206.189 274.182 205.289 275.983C204.088 277.784 202.888 279.585 201.988 281.686C200.787 283.787 199.887 285.587 198.386 287.388C198.386 287.388 199.286 289.189 199.887 288.289C202.288 285.287 204.088 281.385 206.189 278.384C208.29 275.083 210.391 271.481 212.192 268.18C214.293 264.578 216.094 260.977 218.195 257.375C218.795 256.174 219.695 254.974 220.296 253.773H220.596C221.796 252.873 222.997 251.673 223.897 250.772C224.497 250.472 224.798 250.172 225.398 249.572C225.998 249.271 226.598 248.671 227.199 248.071C228.399 247.171 229.6 246.27 230.8 245.37C232.001 244.169 233.201 242.969 234.402 242.068C235.602 241.168 236.803 240.568 237.703 239.667C238.904 238.767 240.104 237.566 241.605 236.366C244.006 234.265 246.407 231.864 248.808 228.863C250.309 227.062 251.209 225.261 252.41 223.16C251.509 220.459 252.109 219.258 252.41 218.358Z" fill="#B8AD4C"/>
<path d="M144.062 272.382C144.062 272.382 144.362 272.081 144.062 272.382C144.062 271.781 144.062 271.181 144.062 270.881C144.062 270.581 144.062 269.981 144.062 269.68C144.062 268.78 144.062 268.18 144.362 267.279C144.362 266.979 144.362 266.379 144.662 266.079C144.662 265.779 144.962 265.178 144.962 264.878C144.962 264.578 144.962 263.978 144.962 263.678C144.962 263.378 144.962 262.777 144.962 262.477C144.962 261.577 144.962 260.676 145.263 260.076C145.563 259.176 145.563 258.576 145.563 257.675C145.563 256.775 145.563 256.175 145.563 255.274C145.563 254.374 145.563 253.473 145.863 252.873C145.863 251.973 146.163 251.072 146.463 250.172C146.463 249.272 146.763 248.371 147.063 247.471C147.063 247.171 146.763 246.87 146.763 247.171C146.463 247.771 146.163 248.671 146.163 249.572C146.163 250.472 145.863 251.072 145.863 251.973C145.863 252.873 145.563 253.773 145.563 254.374C145.563 255.274 145.563 256.175 145.563 256.775C145.563 257.675 145.563 258.275 145.263 259.176C145.263 259.476 144.962 260.076 144.962 260.376C144.962 260.676 144.962 261.277 144.662 261.577C144.662 261.877 144.662 262.477 144.662 262.777C144.662 263.078 144.662 263.678 144.662 263.978C144.662 264.278 144.662 264.878 144.662 265.178C144.662 265.479 144.362 266.079 144.362 266.379C144.362 266.979 144.362 267.279 144.362 267.88C144.362 268.48 144.362 268.78 144.362 269.38C144.362 269.68 144.362 270.281 144.362 270.581C144.362 270.581 144.362 270.581 144.362 270.281C143.762 268.78 143.162 266.979 142.862 265.479C141.661 262.177 140.761 258.576 139.86 255.274C139.26 253.473 138.66 251.973 138.059 250.472C137.759 249.872 137.459 249.272 137.459 248.971C137.459 248.971 137.759 248.971 137.759 248.671C138.36 248.071 138.36 247.171 138.36 246.27C138.36 245.07 138.66 243.869 138.66 242.669C138.66 241.468 138.96 240.268 138.96 239.067C139.26 237.867 139.26 236.366 139.56 235.165C139.56 234.565 139.56 233.965 139.86 233.365C139.86 232.764 139.86 232.464 140.16 231.864L140.46 231.564C140.46 231.564 140.46 231.564 140.46 231.264H140.16C138.059 232.164 138.059 233.064 138.059 234.265C138.059 235.465 137.759 236.666 137.459 237.867C137.159 240.268 136.859 242.669 136.559 245.07C136.559 245.67 136.559 245.97 136.559 246.57C136.559 246.87 136.559 247.471 136.259 247.771C136.259 248.071 135.959 248.371 135.658 248.671C135.358 247.771 135.058 246.87 134.758 245.97C134.458 245.07 134.158 244.469 134.158 243.569C134.158 242.669 133.858 241.768 133.858 241.168C133.858 240.268 133.557 239.667 133.257 239.067C132.957 238.167 132.657 237.266 132.657 236.366C132.657 236.066 132.657 236.066 132.657 235.766C132.657 235.465 132.657 234.865 132.657 234.565C132.657 234.265 132.657 233.965 132.657 233.665C132.657 233.365 132.657 233.064 132.957 232.764C133.257 231.864 133.257 230.663 133.557 229.763C133.858 228.562 133.858 227.362 134.158 226.462C134.458 225.261 135.058 224.361 135.358 223.16C135.358 222.86 135.058 222.56 135.058 222.86C134.158 224.661 133.557 226.762 133.257 228.562C132.957 229.463 132.957 230.663 132.657 231.564C132.657 232.164 132.357 232.464 132.357 233.064C132.357 233.365 132.357 233.665 132.357 234.265C132.057 233.365 131.757 232.464 131.757 231.564C131.156 229.763 130.856 228.262 130.556 226.462C130.556 226.161 130.556 225.861 130.556 225.561C130.556 225.261 130.556 225.261 130.556 224.961C130.556 223.16 131.156 221.359 131.457 219.559C131.757 218.658 132.057 217.758 132.057 216.857C132.357 215.957 132.657 215.057 132.657 214.456C132.957 213.856 133.257 213.256 132.957 212.656H132.657C132.357 213.556 132.057 214.156 131.757 215.057C131.757 215.357 132.057 215.357 132.057 215.357C132.057 215.057 132.057 215.057 132.357 214.756C132.057 215.357 132.057 216.257 131.757 216.857C131.156 218.658 130.856 220.159 130.556 221.96C130.256 222.86 130.256 223.76 130.256 224.661C129.956 223.46 129.356 222.26 129.056 221.059C128.755 219.859 128.155 218.658 127.855 217.458C127.555 216.257 128.155 215.357 128.155 214.156C128.455 212.956 128.455 211.455 128.755 210.254C128.755 209.654 128.755 208.754 128.755 207.853C128.755 207.553 128.455 207.553 128.455 207.853C128.455 209.354 128.455 210.555 128.155 211.755C128.155 212.355 127.855 212.956 127.855 213.556C127.855 214.156 127.555 214.756 127.555 215.357C127.555 215.657 127.555 215.657 127.555 215.957C126.955 214.756 126.054 213.256 125.754 211.755C125.454 210.555 125.154 209.654 124.554 208.454C124.253 208.154 123.953 207.853 123.653 207.553C123.353 207.553 123.353 207.853 123.353 207.853C124.253 208.454 124.854 209.654 125.154 210.855C125.454 212.055 125.754 213.256 126.354 214.456C126.654 215.357 127.255 215.957 127.555 216.857C127.855 217.758 128.155 218.658 128.455 219.258C129.056 221.059 129.656 222.56 130.256 224.361C130.556 224.961 130.556 225.261 130.556 225.861V226.161C130.556 226.462 130.256 226.161 130.256 226.161C129.956 225.861 129.956 225.861 129.656 225.561C129.356 225.261 128.755 224.661 128.455 224.361C128.155 224.061 127.555 223.46 127.255 223.16C126.354 222.56 125.454 221.659 124.554 221.059C123.653 220.159 122.753 219.258 121.852 218.358C121.552 218.058 121.552 218.358 121.552 218.658C122.453 219.559 123.353 220.459 124.253 221.359C125.154 222.26 126.054 222.86 126.955 223.76C127.555 224.061 127.855 224.661 128.155 224.961C128.455 225.261 129.056 225.861 129.356 226.161C129.656 226.462 129.656 226.462 129.956 226.762C130.256 226.762 130.256 227.062 130.556 226.762C130.856 227.662 130.856 228.562 131.156 229.463C131.757 231.264 132.057 232.764 132.657 234.565C132.657 234.865 132.657 234.865 132.657 235.165V235.465C132.657 235.465 132.657 235.766 132.357 235.766H132.057C131.757 235.766 131.457 235.466 131.457 235.165C131.156 234.865 130.556 234.565 130.256 234.265C129.356 233.665 128.455 233.064 127.555 232.464C126.654 231.864 126.054 231.264 125.154 230.663C124.854 230.363 124.253 230.063 123.953 229.763C123.653 229.763 123.653 229.463 123.353 229.163C123.053 228.863 122.753 228.863 122.453 228.562C122.153 228.562 121.852 228.262 121.852 228.562C121.552 228.562 121.852 229.163 121.852 228.863C121.852 228.863 122.153 228.863 122.453 229.163C122.753 229.163 123.053 229.463 123.053 229.763C123.353 229.763 123.353 230.063 123.653 230.063C123.953 230.363 124.253 230.663 124.854 230.663C125.754 231.264 126.654 231.864 127.255 232.464C128.155 233.064 129.056 233.665 129.656 234.265C129.956 234.565 130.556 234.865 130.856 235.165C131.156 235.466 131.457 235.465 131.757 235.766C132.057 235.766 132.357 236.066 132.657 235.766C132.657 236.066 132.657 236.666 132.957 236.966C133.257 237.867 133.557 238.467 133.557 239.367C134.158 240.868 133.858 242.669 134.458 244.169C134.758 245.07 135.058 245.67 135.058 246.57C135.358 247.171 135.358 247.771 135.658 248.671C135.358 248.671 134.758 248.671 134.458 248.371C133.557 247.771 132.657 247.171 131.757 246.57C130.856 245.97 129.956 245.37 129.056 244.77C128.155 244.169 126.955 243.269 126.054 242.669C125.154 242.068 123.953 241.168 122.753 240.868C122.453 240.868 122.453 241.168 122.453 241.168C123.353 241.768 124.253 242.369 125.454 242.969C126.354 243.569 127.255 244.169 128.155 244.77C129.056 245.37 129.956 245.97 130.856 246.57C131.757 247.171 132.657 247.771 133.557 248.371C134.158 248.671 134.758 248.971 135.358 248.971C135.959 250.472 136.859 251.973 137.459 253.773C138.059 255.574 138.66 257.075 138.96 258.876C139.56 260.676 139.86 262.177 140.46 263.978C141.061 265.779 141.661 267.579 142.261 269.38C141.961 269.08 141.661 268.48 141.061 268.18C140.46 267.58 139.86 266.979 139.26 266.679C138.66 266.079 138.059 265.479 137.459 264.878C136.259 263.678 135.058 262.777 133.557 261.577C132.357 260.676 130.856 259.476 129.656 258.876C128.755 258.576 128.155 257.975 127.255 257.375C126.654 256.775 125.754 256.175 124.854 255.874C124.554 255.874 124.554 256.175 124.554 256.175C126.054 257.075 127.255 257.975 128.455 258.876C129.056 259.176 129.956 259.776 130.556 260.076C131.156 260.376 131.757 260.977 132.657 261.577C133.858 262.477 135.058 263.678 136.259 264.578C136.859 265.178 137.459 265.779 138.059 266.379C138.66 266.979 139.26 267.58 139.86 268.18C140.761 268.78 141.661 269.68 142.261 270.581C142.561 271.781 143.162 272.982 143.462 274.182C143.762 275.383 144.362 276.884 144.662 278.084C144.362 277.784 144.362 277.484 144.062 277.184C143.462 276.583 142.862 275.983 142.261 275.383C141.061 274.182 139.86 272.982 138.36 272.081C137.159 271.181 135.658 270.281 134.158 269.38C132.657 268.48 131.457 267.279 129.956 266.379C129.056 265.779 128.455 265.178 127.555 264.878C126.654 264.278 125.754 263.978 125.154 263.378C124.854 263.378 124.854 263.678 124.854 263.678C125.454 263.978 126.354 264.578 126.955 264.878C127.555 265.178 128.455 265.779 129.056 266.379C130.556 267.279 131.757 268.48 133.257 269.38C134.758 270.281 135.959 271.181 137.459 272.081C138.96 272.982 140.16 274.182 141.361 275.383C141.961 275.983 142.862 276.583 143.162 277.184C143.462 277.484 143.462 277.784 143.762 278.084C143.762 278.384 144.062 278.384 144.362 278.684C144.962 280.185 145.263 281.386 145.863 282.886C145.563 282.586 145.263 282.286 144.962 281.986C143.762 280.785 142.561 279.885 141.361 278.984C140.16 278.084 138.66 277.184 137.459 276.283C135.959 275.383 134.758 274.483 133.557 273.582C132.957 273.282 132.357 272.682 131.457 272.382C131.156 272.382 130.856 272.081 130.556 272.081C130.256 272.081 129.956 271.781 129.956 271.481C129.956 271.181 129.356 271.481 129.656 271.481C129.956 272.081 130.556 272.382 130.856 272.682C131.156 272.682 131.457 272.982 131.757 272.982C132.057 272.982 132.357 273.282 132.657 273.582C134.158 274.483 135.358 275.383 136.859 276.283C137.459 276.583 138.36 277.184 138.96 277.484C139.56 277.784 140.46 278.384 141.061 278.984C142.561 279.885 143.762 281.085 144.962 282.286C145.263 282.586 145.863 283.186 146.163 283.787C146.163 284.087 146.463 284.087 146.763 284.387C147.364 285.887 147.964 287.088 148.564 288.589C148.564 289.189 148.264 289.789 147.964 290.389C147.364 290.089 147.063 289.789 146.763 289.489C146.163 289.189 145.863 288.589 145.263 288.289C144.062 287.388 142.862 286.488 141.661 285.587C140.46 284.687 139.26 283.787 137.759 283.186C136.259 282.286 135.058 281.686 133.557 281.085C132.657 280.785 132.057 280.185 131.156 279.885C130.256 279.585 129.656 278.984 128.755 278.684C128.455 278.684 128.455 278.984 128.455 278.984C129.056 279.285 129.956 279.885 130.556 280.185C131.156 280.485 132.057 280.785 132.657 281.386C134.158 281.986 135.358 282.886 136.859 283.486C139.56 284.987 141.961 286.788 144.362 288.589C144.962 288.889 145.563 289.489 146.163 290.089C146.763 290.69 147.364 290.99 147.964 291.29H148.264C148.564 290.99 148.864 290.389 148.864 289.789C149.464 291.29 150.065 293.091 150.365 294.591C150.665 295.192 150.665 295.792 150.965 296.692H150.665C150.065 296.392 149.765 295.792 149.164 295.492C148.564 294.891 148.264 294.291 147.664 293.991C147.063 293.391 146.463 293.091 145.863 292.49C144.662 291.59 143.462 290.69 142.261 290.089C141.061 289.189 139.86 288.289 138.66 287.688C137.459 286.788 136.259 286.188 135.058 285.287C134.458 284.987 133.858 284.687 133.257 284.387C132.957 284.087 132.657 284.087 132.357 283.787C132.057 283.787 132.057 283.486 131.757 283.486C131.457 283.486 131.457 283.486 131.156 283.486C130.856 283.486 131.156 284.087 131.457 283.787C131.757 283.787 131.757 283.787 132.057 283.787C132.357 284.087 132.657 284.087 132.957 284.387C133.557 284.687 134.158 284.987 134.758 285.287C135.959 285.887 137.159 286.788 138.66 287.688C139.86 288.589 141.061 289.489 142.261 290.089C143.462 290.99 144.662 291.89 145.863 292.79C146.463 293.091 147.063 293.691 147.664 294.291C148.264 294.891 148.864 295.192 149.164 295.792C149.765 296.392 150.365 297.292 151.265 297.292C151.865 299.694 152.766 301.794 153.666 303.895C153.666 303.895 153.666 304.195 153.366 304.195C153.066 303.895 153.066 303.595 152.766 303.295C152.466 302.995 152.166 302.695 151.865 302.395C151.265 301.794 150.665 301.194 150.065 300.894C148.564 299.693 147.363 298.793 145.863 297.893C144.362 296.992 142.862 296.092 141.361 295.192C139.86 294.291 138.059 293.691 136.559 292.79C135.658 292.49 134.758 291.89 133.858 291.59C133.557 291.29 132.957 291.29 132.657 290.99C132.357 290.99 131.757 290.69 131.457 290.69C131.156 290.69 131.156 290.99 131.156 290.99C131.757 291.29 132.357 291.59 132.957 291.59C133.557 291.89 134.458 292.19 135.058 292.49C136.559 293.091 138.059 293.991 139.26 294.591C141.961 296.092 144.662 297.593 147.363 299.393C147.964 299.693 148.564 300.294 149.164 300.894C149.765 301.494 150.365 301.794 150.965 302.395C151.265 302.695 151.565 302.995 151.865 303.295C152.166 303.595 152.166 303.895 152.466 304.195C152.466 304.496 152.766 304.796 153.066 304.796C153.366 304.796 153.366 304.496 153.366 304.496C153.666 305.096 154.267 305.996 154.567 306.597C154.867 306.897 155.167 306.597 154.867 306.296C154.267 305.396 153.966 304.796 153.366 303.895C153.366 303.595 153.366 303.295 153.366 302.995C153.366 302.095 153.366 301.494 153.666 300.594C153.666 299.093 154.267 297.292 154.267 295.792C154.567 294.291 154.567 292.49 155.167 290.99C155.467 289.489 155.767 287.688 156.067 286.188C156.067 285.887 156.067 285.287 156.367 284.987C156.367 284.687 156.067 284.687 156.067 284.987C155.767 287.688 154.867 290.389 154.567 293.091C154.267 294.591 154.267 295.792 153.966 297.292C153.966 297.893 153.666 298.793 153.666 299.393C153.666 299.994 153.666 300.894 153.366 301.494C153.366 302.095 153.366 302.695 153.366 302.995C152.466 301.194 151.865 299.093 151.265 296.992H151.565C152.166 296.692 152.466 296.392 152.466 295.792C152.466 295.492 152.466 295.192 152.466 294.891C152.466 294.591 152.466 294.291 152.466 293.691C152.466 293.091 152.466 292.19 152.466 291.59C152.466 290.69 152.766 290.089 152.766 289.189C153.066 285.887 153.366 282.886 153.966 279.585C153.966 279.285 153.966 278.684 153.966 278.384C153.966 278.084 153.666 278.084 153.666 278.384C153.366 281.386 153.066 284.687 152.766 287.688C152.466 289.189 152.166 290.69 152.166 292.19C152.166 292.791 152.166 293.691 152.166 294.291C152.166 294.591 152.166 294.891 152.166 295.192C152.166 295.492 152.166 295.792 152.166 295.792C151.865 296.092 151.865 296.092 151.565 296.092C151.565 296.092 151.565 296.092 151.565 295.792C150.965 293.991 150.365 292.49 150.065 290.69C149.765 289.789 149.464 289.189 149.164 288.289V287.988C149.464 287.088 149.765 285.887 150.065 284.987C150.365 284.087 150.665 283.186 150.965 281.986C151.265 281.085 151.565 280.185 151.565 278.984C151.865 277.784 152.166 276.884 152.466 275.683C152.466 275.383 152.166 275.083 152.166 275.383C151.265 277.184 151.265 279.285 150.665 281.085C150.365 281.986 150.065 282.886 149.765 284.087C149.464 284.987 149.164 285.887 148.864 287.088V287.388C148.564 286.788 148.264 286.188 147.964 285.587C147.664 285.287 147.664 284.687 147.363 284.387C147.363 284.387 147.364 284.387 147.664 284.387C147.664 284.387 147.964 284.387 147.964 284.087C147.964 283.486 147.964 282.886 147.964 282.586C147.964 281.986 147.964 281.686 147.964 281.085C147.964 280.485 147.964 279.885 147.964 279.285C147.964 278.684 147.964 278.084 147.964 277.484C147.964 275.083 148.564 272.682 148.864 270.581C149.164 269.38 149.464 268.18 149.765 266.679C149.765 266.379 149.464 266.379 149.464 266.679C148.864 269.08 148.264 271.181 147.964 273.582C147.664 274.783 147.664 275.983 147.664 277.184C147.664 277.784 147.664 278.384 147.664 278.984C147.664 279.585 147.664 280.185 147.664 280.785C147.664 281.386 147.664 281.986 147.664 282.586C147.664 283.186 147.664 283.486 147.664 284.087C147.664 284.087 147.664 284.087 147.363 284.087C146.763 282.286 146.163 280.785 145.563 278.984C145.563 278.684 145.263 278.384 145.263 278.084C145.263 277.784 145.263 277.484 145.263 276.884C145.263 276.283 145.263 275.383 145.563 274.783C145.863 273.282 146.163 272.081 146.163 270.581C146.463 269.08 146.463 267.88 146.763 266.379C146.763 265.779 147.063 265.178 147.063 264.278C147.063 263.678 147.063 263.078 147.063 262.477C147.063 261.577 147.363 260.977 147.363 260.076C147.363 259.176 147.664 258.576 147.664 257.675C147.664 257.375 147.363 257.375 147.363 257.675C147.363 258.275 147.063 259.176 147.063 259.776C147.063 260.376 146.763 261.277 146.763 261.877C146.763 262.477 146.763 263.078 146.763 263.978C146.763 264.578 146.463 265.178 146.463 266.079C146.163 267.579 146.163 268.78 145.863 270.281C145.563 271.781 145.263 272.982 145.263 274.483C145.263 275.383 145.263 275.983 144.962 276.884C144.962 276.884 144.962 276.884 144.962 277.184C144.962 276.884 144.662 276.583 144.662 276.283C144.662 274.483 144.362 273.282 144.062 272.382Z" fill="#B8AD4C"/>
<path d="M126.655 216.557C125.754 215.357 124.854 214.456 123.653 213.556C123.053 212.956 122.753 212.656 122.153 212.055C121.853 211.755 121.252 211.155 120.952 210.855C120.652 210.555 120.052 209.954 119.452 209.654H119.151C119.151 209.654 119.151 209.954 118.851 209.954C118.851 210.255 118.851 210.255 119.151 210.255C119.151 210.255 119.452 210.255 119.452 209.954C120.352 210.555 120.952 211.455 121.553 212.055C122.453 212.956 123.653 213.856 124.554 215.057C125.154 215.657 125.754 216.257 126.054 216.857C126.355 217.158 126.655 216.857 126.655 216.557Z" fill="#B8AD4C"/>
<path d="M140.161 260.076C139.261 259.476 138.36 258.576 137.46 257.675C136.56 256.775 135.659 255.874 134.759 254.974C132.658 253.173 130.557 251.372 128.456 249.572C128.156 248.971 127.556 248.671 127.255 248.071C126.955 247.771 126.355 247.171 125.755 247.171H125.455C125.455 247.171 125.455 247.471 125.155 247.471C125.155 247.771 125.455 247.771 125.455 247.771C125.455 247.771 125.455 247.771 125.455 247.471C126.355 247.771 126.955 248.671 127.556 249.572C128.456 250.472 129.356 251.372 130.557 252.273C131.757 253.173 132.658 254.074 133.858 254.974C134.759 255.874 135.659 256.775 136.56 257.675C137.46 258.576 138.36 259.776 139.561 260.376C140.161 260.676 140.461 260.376 140.161 260.076Z" fill="#B8AD4C"/>
<path d="M141.361 243.269C141.061 243.269 141.061 243.869 141.061 243.869C141.361 244.469 141.061 245.37 141.061 246.27C140.761 247.171 140.761 248.371 140.761 249.271C140.761 250.472 140.761 251.372 140.461 252.273C140.461 252.873 140.161 253.173 140.161 253.773C140.161 254.374 139.861 254.674 139.861 255.274C139.561 256.475 139.561 257.675 139.26 258.876C139.26 259.176 139.561 259.176 139.561 258.876C139.861 257.675 139.861 256.775 139.861 255.574C139.861 254.974 139.861 254.674 140.161 254.074C140.161 253.473 140.461 253.173 140.461 252.573C140.461 251.973 140.761 251.673 140.761 251.072C140.761 250.472 140.761 249.872 140.761 249.271C140.761 248.371 140.761 247.171 141.061 246.27C141.061 245.67 141.361 245.37 141.361 244.77C141.962 244.469 141.962 243.869 141.361 243.269C141.662 243.269 141.662 243.269 141.361 243.269Z" fill="#B8AD4C"/>
<path d="M164.471 293.991C164.771 294.291 164.771 294.591 165.071 294.891L164.471 293.991Z" fill="#B8AD4C"/>
<path d="M164.471 293.991C164.771 294.291 164.771 294.591 165.071 294.891" stroke="#245921" stroke-width="0.1028" stroke-miterlimit="10"/>
<path d="M163.571 293.091C163.871 293.391 164.171 293.691 164.471 293.991L163.571 293.091Z" fill="#B8AD4C"/>
<path d="M163.571 293.091C163.871 293.391 164.171 293.691 164.471 293.991" stroke="#245921" stroke-width="0.1028" stroke-miterlimit="10"/>
<path d="M161.77 291.59C162.371 292.19 162.971 292.49 163.571 293.091L161.77 291.59Z" fill="#B8AD4C"/>
<path d="M161.77 291.59C162.371 292.19 162.971 292.49 163.571 293.091" stroke="#245921" stroke-width="0.1028" stroke-miterlimit="10"/>
<path d="M159.969 290.389C160.57 290.69 161.17 291.29 161.77 291.89L159.969 290.389Z" fill="#B8AD4C"/>
<path d="M159.969 290.389C160.57 290.69 161.17 291.29 161.77 291.89" stroke="#245921" stroke-width="0.1028" stroke-miterlimit="10"/>
<path d="M151.565 285.587C154.267 287.088 156.968 288.589 159.669 290.389L151.565 285.587Z" fill="#B8AD4C"/>
<path d="M151.565 285.587C154.267 287.088 156.968 288.589 159.669 290.389" stroke="#245921" stroke-width="0.1028" stroke-miterlimit="10"/>
<path d="M147.364 283.486C148.864 284.087 150.365 284.987 151.566 285.587L147.364 283.486Z" fill="#B8AD4C"/>
<path d="M147.364 283.486C148.864 284.087 150.365 284.987 151.566 285.587" stroke="#245921" stroke-width="0.1028" stroke-miterlimit="10"/>
<path d="M153.366 285.887C151.865 284.987 150.065 284.387 148.564 283.486L153.366 285.887Z" fill="#B8AD4C"/>
<path d="M153.366 285.887C151.865 284.987 150.065 284.387 148.564 283.486" stroke="#245921" stroke-width="0.1028" stroke-miterlimit="10"/>
<path d="M157.868 283.186C158.469 283.486 159.069 284.087 159.669 284.687L157.868 283.186Z" fill="#B8AD4C"/>
<path d="M157.868 283.186C158.469 283.486 159.069 284.087 159.669 284.687" stroke="#245921" stroke-width="0.1028" stroke-miterlimit="10"/>
<path d="M153.967 280.485C155.167 281.386 156.368 282.286 157.568 283.186L153.967 280.485Z" fill="#B8AD4C"/>
<path d="M153.967 280.485C155.167 281.386 156.368 282.286 157.568 283.186" stroke="#245921" stroke-width="0.1028" stroke-miterlimit="10"/>
<path d="M150.365 278.084C151.566 278.984 152.766 279.885 153.967 280.485L150.365 278.084Z" fill="#B8AD4C"/>
<path d="M150.365 278.084C151.566 278.984 152.766 279.885 153.967 280.485" stroke="#245921" stroke-width="0.1028" stroke-miterlimit="10"/>
<path d="M146.764 275.683C147.964 276.283 149.165 277.184 150.665 278.084L146.764 275.683Z" fill="#B8AD4C"/>
<path d="M146.764 275.683C147.964 276.283 149.165 277.184 150.665 278.084" stroke="#245921" stroke-width="0.1028" stroke-miterlimit="10"/>
<path d="M150.965 277.784C149.765 276.884 148.564 276.283 147.364 275.383L150.965 277.784Z" fill="#B8AD4C"/>
<path d="M150.965 277.784C149.765 276.884 148.564 276.283 147.364 275.383" stroke="#245921" stroke-width="0.1028" stroke-miterlimit="10"/>
<path d="M159.97 284.387C159.369 283.787 158.769 283.486 158.169 282.886L159.97 284.387Z" fill="#B8AD4C"/>
<path d="M159.97 284.387C159.369 283.787 158.769 283.486 158.169 282.886" stroke="#245921" stroke-width="0.1028" stroke-miterlimit="10"/>
<path d="M158.169 280.485C158.769 281.085 159.369 281.386 159.97 281.686L158.169 280.485Z" fill="#B8AD4C"/>
<path d="M158.169 280.485C158.769 281.085 159.369 281.386 159.97 281.686" stroke="#245921" stroke-width="0.1028" stroke-miterlimit="10"/>
<path d="M156.668 279.285C157.268 279.585 157.869 280.185 158.469 280.785L156.668 279.285Z" fill="#B8AD4C"/>
<path d="M156.668 279.285C157.268 279.585 157.869 280.185 158.469 280.785" stroke="#245921" stroke-width="0.1028" stroke-miterlimit="10"/>
<path d="M149.165 274.182C151.866 275.683 154.267 277.484 156.668 279.285L149.165 274.182Z" fill="#B8AD4C"/>
<path d="M149.165 274.182C151.866 275.683 154.267 277.484 156.668 279.285" stroke="#245921" stroke-width="0.1028" stroke-miterlimit="10"/>
<path d="M153.667 276.283C152.466 275.383 151.266 274.483 149.765 273.882L153.667 276.283Z" fill="#B8AD4C"/>
<path d="M153.667 276.283C152.466 275.383 151.266 274.483 149.765 273.882" stroke="#245921" stroke-width="0.1028" stroke-miterlimit="10"/>
<path d="M157.269 278.984C156.068 278.084 154.868 277.184 153.667 276.283L157.269 278.984Z" fill="#B8AD4C"/>
<path d="M157.269 278.984C156.068 278.084 154.868 277.184 153.667 276.283" stroke="#245921" stroke-width="0.1028" stroke-miterlimit="10"/>
</svg>
