<svg width="152" height="417" viewBox="0 0 152 417" fill="none" xmlns="http://www.w3.org/2000/svg">
<path d="M39.8798 294.984C40.1948 298.192 41.6126 301.056 41.7844 304.293C41.9562 307.529 41.455 310.379 41.7844 313.414C42.0578 314.876 42.4505 316.313 42.9586 317.71C43.2858 319.357 43.4631 321.03 43.4885 322.708C44.1758 329.41 46.7964 335.854 48.4719 342.284C50.1473 348.714 51.651 355.573 54.2716 361.63C55.4315 364.323 56.8491 366.829 57.9948 369.521C58.8952 372.082 60.1021 374.524 61.5891 376.795C63.0211 378.614 65.1405 379.387 66.7157 381.005C67.3315 381.65 68.2623 380.59 67.6466 379.96C66.0427 378.313 63.7944 377.511 62.4197 375.664C61.7207 374.5 61.1219 373.278 60.6297 372.012C59.9566 370.58 59.1977 369.148 58.6821 367.645C57.5652 364.781 55.8181 362.26 54.8157 359.31C53.8133 356.361 52.7107 352.938 51.8085 349.702C50.9063 346.465 50.0328 342.885 49.1163 339.477C48.1998 336.069 47.1831 333.047 46.3239 329.797C45.8943 328.164 45.5076 326.532 45.1926 324.871C44.8775 323.209 44.8346 321.276 44.6484 319.429C44.4582 318.112 44.122 316.82 43.646 315.577C43.1484 313.944 42.921 312.242 42.973 310.536C42.973 307.4 43.3739 304.25 42.6293 301.171C42.2713 299.739 41.6985 298.307 41.4121 296.875C41.1108 295.057 40.9528 293.218 40.9395 291.376C40.739 284.76 41.3691 278.144 41.2975 271.528C41.2259 264.497 40.9538 257.638 42.171 250.707C42.7535 247.61 43.0365 244.464 43.0159 241.313C42.7889 237.698 42.8847 234.07 43.3023 230.472C43.8322 227.308 44.5195 224.243 44.9205 221.05C45.3644 217.598 45.9516 214.176 46.6532 210.782C48.1154 204.291 49.9029 197.877 52.009 191.565C52.9466 188.525 53.6974 185.431 54.2572 182.299C54.9894 179.223 56.0804 176.243 57.5079 173.421C58.7394 170.557 59.3122 167.392 60.5008 164.499C61.7753 161.392 63.2359 158.313 64.6823 155.306C65.9138 152.743 67.6322 150.537 68.7921 147.931C69.7938 145.29 70.9559 142.712 72.2719 140.213C73.9383 137.755 75.4589 135.202 76.8258 132.566C78.1575 129.702 79.5752 126.838 81.1218 123.974C83.9858 118.518 87.4083 113.506 89.2413 107.405C90.1291 104.455 90.6733 101.419 91.4609 98.3978C92.2485 95.3762 93.3511 92.2688 94.3249 89.2472C96.2813 83.3585 97.4983 77.2495 97.9479 71.0607C98.5351 64.0152 99.2654 57.0556 99.38 49.9671C99.5375 43.3083 99.8239 36.4919 99.38 29.919C99.1508 26.4965 98.1914 23.2315 97.9479 19.8949C97.7045 16.5583 97.547 13.5654 97.0458 10.372C96.5446 7.17858 95.9002 3.78471 95.1698 0.534045C94.955 -0.396764 93.7378 -0.0100922 93.9097 0.920716C94.6543 4.28595 95.3417 7.69413 95.8285 11.1166C96.3154 14.5391 96.344 17.7755 96.745 21.1407C97.146 24.506 97.9909 27.8855 98.177 31.4082C98.3632 34.931 98.177 38.2676 98.177 41.7044C98.177 48.664 98.0052 55.5949 97.4754 62.5258C97.1252 69.3242 96.2442 76.0848 94.8405 82.7459C94.0481 85.9338 93.0921 89.0789 91.9764 92.1685C90.9549 95.2324 90.0992 98.3492 89.4131 101.505C88.7648 104.556 87.8986 107.557 86.8212 110.484C85.5401 113.408 84.0518 116.236 82.3676 118.947C80.7065 121.911 79.0883 124.933 77.5561 127.997C76.3168 130.871 74.8814 133.655 73.26 136.332C71.66 138.543 70.2923 140.914 69.1788 143.406C68.1417 146.114 66.897 148.737 65.4556 151.253C63.9337 153.954 62.5523 156.731 61.317 159.573C59.9655 162.342 58.8401 165.215 57.9518 168.165C57.021 171.359 55.6319 174.194 54.4291 177.259C53.4921 180.133 52.7647 183.072 52.2524 186.051C50.7345 192.438 48.3144 198.495 46.7248 204.854C45.8799 208.219 45.1639 211.627 44.5625 215.05C43.961 218.472 43.7033 221.837 43.1305 225.174C42.4314 228.127 41.9528 231.128 41.6984 234.153C41.5552 237.647 41.9276 241.141 41.6984 244.635C41.4693 248.129 40.5815 251.695 40.1662 255.246C39.8773 258.527 39.796 261.822 39.9228 265.113C39.9944 271.815 39.9228 278.459 39.6936 285.161C39.5557 288.436 39.6179 291.717 39.8798 294.984V294.984Z" fill="#B8AD4A"/>
<path d="M97.1318 27.7709C102.344 29.2029 106.869 32.74 111.266 36.2054L148.197 65.3326C149.656 66.2986 150.84 67.6256 151.634 69.1847C152.336 70.8458 152.049 73.1944 150.589 74.0249C149.682 74.418 148.663 74.4639 147.725 74.1538C125.844 69.514 106.497 51.9576 97.1318 27.7709Z" fill="#B8AD4A"/>
<path d="M97.991 29.7472C87.8094 27.6994 77.5705 25.6516 67.2314 25.6946C63.5224 25.6946 59.5701 26.1098 56.6631 28.7018C53.7561 31.2937 52.6535 36.807 55.36 39.6567C57.0134 41.0938 59.1575 41.8376 61.3458 41.7331C74.6635 42.5064 88.1531 38.9837 97.991 29.7472Z" fill="#B8AD4A"/>
<path d="M99.1364 46.8739C116.679 63.1415 134.822 80.2684 144.188 103.667C133.106 97.9029 123.365 89.8647 115.602 80.0781C107.838 70.2916 102.228 58.977 99.1364 46.8739V46.8739Z" fill="#B8AD4A"/>
<path d="M97.1318 48.2631C85.9345 46.1985 74.4563 46.1743 63.2503 48.1915C60.5347 48.4863 57.9481 49.5051 55.7609 51.1414C54.6243 52.0903 53.7906 53.3515 53.363 54.7691C52.9355 56.1867 52.9327 57.6985 53.3551 59.1176C54.8587 63.0843 59.6703 63.4137 63.4651 62.9268C70.9021 62.0485 78.296 60.8218 85.647 59.2466C91.103 58.0723 97.547 55.6522 97.1318 48.2631Z" fill="#B8AD4A"/>
<path d="M98.0053 71.3472C108.868 81.7855 118.979 92.9783 128.264 104.842C131.772 109.31 135.281 114.136 136.484 119.964C132.517 121.482 128.45 118.331 125.185 115.382C118.612 109.41 112.01 103.381 106.569 96.0494C101.127 88.7175 97.1032 79.9106 98.0053 71.3472Z" fill="#B8AD4A"/>
<path d="M96.2725 70.0297C83.098 67.8435 69.871 66.106 56.5915 64.8171C53.8706 64.5451 50.534 64.6596 49.2309 67.3804C48.7859 68.5858 48.7435 69.9029 49.1101 71.1344C49.4767 72.3659 50.2326 73.4454 51.2644 74.2111C53.2677 75.4851 55.5787 76.1927 57.9518 76.2589L88.3105 79.6528C90.2309 80.057 92.2287 79.8672 94.0386 79.1086C95.8429 78.2208 97.0744 75.5859 96.2725 70.0297Z" fill="#B8AD4A"/>
<path d="M94.9409 86.9132C103.963 101.376 112.297 116.36 119.944 131.864C121.92 135.859 123.882 140.585 122.378 144.824C119.07 146.127 115.877 142.776 113.786 139.654C103.118 124.217 95.8574 105.973 94.9409 86.9132Z" fill="#B8AD4A"/>
<path d="M93.781 86.8128L62.1192 82.7888C56.1907 82.0299 49.9328 81.3568 44.5198 84.1349C43.4171 84.7077 42.2142 85.7245 42.3288 87.0849C42.4577 88.6744 44.1618 89.3188 45.5508 89.5766C62.0906 92.5408 79.0743 92.6984 93.781 86.8128Z" fill="#B8AD4A"/>
<path d="M90.5445 99.5147C95.127 119.143 99.423 138.862 103.433 158.671C99.4373 159.444 95.4993 156.566 93.1078 152.843C88.8118 146.241 88.4824 137.535 88.239 129.372C87.9239 118.589 87.6232 107.806 90.5445 99.5147Z" fill="#B8AD4A"/>
<path d="M87.294 97.3667L41.7989 95.4908C38.8633 95.3762 35.3549 95.5767 33.837 98.4264C32.319 101.276 33.837 104.928 36.1711 106.675C38.5053 108.422 41.4982 108.665 44.305 108.823C53.4126 109.329 62.5202 109.381 71.6278 108.98C74.9991 109.03 78.3486 108.432 81.4943 107.219C84.6018 105.816 87.3656 102.995 87.294 97.3667Z" fill="#B8AD4A"/>
<path d="M87.6231 98.6412C82.7972 108.193 81.9953 119.706 82.7686 130.661C83.5419 141.616 85.7472 152.399 86.5205 163.368C86.8528 165.992 86.6532 168.656 85.9333 171.201C85.0741 173.664 83.0693 175.784 80.7065 175.726C76.9117 175.64 74.9784 170.514 74.3913 166.275C72.2719 152.027 73.7899 137.119 87.6231 98.6412Z" fill="#B8AD4A"/>
<path d="M77.7852 125.606C69.5654 123.816 61.2741 122.012 52.9111 122.37C44.5482 122.728 36.0134 125.448 29.7412 131.721C28.9216 132.439 28.3087 133.364 27.9654 134.399C27.2924 136.933 29.3975 139.368 31.4453 140.513C35.2544 142.618 39.6364 142.719 43.8751 142.676C51.1068 142.59 58.496 142.189 65.2264 139.21C71.9569 136.232 78.0429 130.246 77.7852 125.606Z" fill="#B8AD4A"/>
<path d="M64.1954 152.471C52.8161 150.735 41.2002 151.384 30.0849 154.375C25.6743 155.549 20.3758 158.671 20.8913 163.726C21.3639 168.509 26.6194 170.414 30.9154 170.543C44.405 170.944 57.8946 164.242 64.1954 152.471Z" fill="#B8AD4A"/>
<path d="M61.8182 158.098C62.0474 178.147 69.7372 197.865 82.611 211.555C83.8712 212.887 85.6755 214.248 87.1792 213.303C88.9978 212.143 88.382 209.006 87.5372 206.901C80.1337 188.142 72.7302 169.383 61.8182 158.098Z" fill="#B8AD4A"/>
<path d="M52.8256 181.641C37.546 175.182 19.0873 179.865 7.70282 193.097C24.0564 199.942 43.5175 196.09 52.8256 181.641Z" fill="#B8AD4A"/>
<path d="M52.7106 180.867C51.729 190.67 52.2116 200.563 54.1426 210.224C56.2763 219.761 60.6439 228.84 67.403 235.083C70.3387 237.79 75.1359 239.68 77.5417 236.358C79.4176 233.737 78.3006 229.871 77.0691 226.821C70.5591 210.702 62.396 195.302 52.7106 180.867V180.867Z" fill="#B8AD4A"/>
<path d="M46.2238 209.021C33.9202 204.778 21.0416 202.436 8.03203 202.076C4.78137 201.99 0.470989 203.049 0.270508 206.73C0.306718 207.758 0.584942 208.763 1.08257 209.664C1.5802 210.565 2.2832 211.335 3.13453 211.913C9.10603 216.711 16.9535 217.212 24.2711 216.582C32.2474 215.909 40.1091 214.133 46.2238 209.021Z" fill="#B8AD4A"/>
<path d="M45.7226 222.553C44.8634 239.208 50.4912 256.177 60.816 268.091C61.4369 268.941 62.2861 269.596 63.2648 269.982C64.1033 270.094 64.955 269.913 65.6753 269.47C66.3957 269.026 66.9404 268.347 67.2171 267.547C67.8599 265.829 68.0425 263.973 67.747 262.163C67.1312 256.177 64.7541 250.635 62.3626 245.251C57.0212 233.222 51.465 221.308 45.7226 222.553Z" fill="#B8AD4A"/>
<path d="M40.109 247.986C30.951 243.044 20.2791 241.696 10.1799 244.205C6.89729 244.806 3.92001 246.514 1.74536 249.046C-0.331057 251.809 -0.76064 256.435 1.58786 258.912C3.16463 260.309 5.2098 261.061 7.31591 261.017C19.5739 261.891 31.9752 258.11 40.109 247.986Z" fill="#B8AD4A"/>
<path d="M42.558 250.163C41.1259 259.141 40.0233 268.564 42.4578 277.271C45.3934 287.71 53.5272 296.059 62.9928 298.35C64.4248 286.049 58.2242 274.421 52.1095 264.125C48.8159 258.583 45.4936 253.07 42.558 250.163Z" fill="#B8AD4A"/>
<path d="M40.109 294.641C35.368 292.385 30.0885 291.507 24.8725 292.107C19.6566 292.707 14.7143 294.761 10.6095 298.035C8.09435 299.811 6.2287 302.36 5.29677 305.295C4.48052 308.36 5.51157 312.226 8.16079 313.457C9.12603 313.787 10.1504 313.906 11.1655 313.807C12.1805 313.708 13.1627 313.394 14.0463 312.885C24.2423 308.302 31.6888 297.176 40.109 294.641Z" fill="#B8AD4A"/>
<path d="M41.4694 295.228C42.9014 308.66 51.1498 320.875 62.2049 325.973C63.6914 326.825 65.4277 327.134 67.1167 326.847C67.9879 326.601 68.7424 326.051 69.244 325.297C69.7456 324.544 69.9612 323.636 69.8519 322.737C69.5732 321.736 69.0347 320.827 68.291 320.102L62.8064 313.83C55.2597 305.195 47.2691 296.259 41.4694 295.228Z" fill="#B8AD4A"/>
<path d="M43.2595 319.014C33.7813 324.6 26.5799 333.353 22.9249 343.73C21.7077 347.081 21.3926 352.007 24.3569 353.282C25.9894 353.969 27.808 353.067 29.2401 351.95C37.7605 345.277 39.5219 332.088 43.2595 319.014Z" fill="#B8AD4A"/>
<path d="M42.5147 318.627C49.5459 335.339 63.3791 348.198 79.2172 352.752C76.7541 344.06 69.6943 338.26 63.0354 333.119C56.5111 327.856 49.6569 323.015 42.5147 318.627V318.627Z" fill="#B8AD4A"/>
<path d="M49.6461 350.905C40.2951 360.929 34.9393 375.578 35.326 390.156C36.4143 391.588 38.4334 390.242 39.622 388.853C47.269 379.187 51.565 365.912 49.6461 350.905Z" fill="#B8AD4A"/>
<path d="M51.1213 350.847C54.601 363.664 64.0094 374.232 75.3223 378.056C77.1853 378.85 79.2564 379.016 81.2221 378.528C82.2477 378.175 83.1287 377.495 83.7291 376.592C84.3295 375.688 84.616 374.613 84.5444 373.53C84.2558 372.112 83.5531 370.812 82.5253 369.793C73.2172 359.024 60.3577 352.236 51.1213 350.847Z" fill="#B8AD4A"/>
<path d="M57.9518 374.748C52.954 386.419 47.9277 398.662 48.2284 411.622C48.2284 413.584 48.7296 415.918 50.3764 416.591C52.0233 417.264 53.5698 415.76 54.6725 414.328C63.5939 402.872 65.3839 384.972 57.9518 374.748Z" fill="#B8AD4A"/>
</svg>
