<svg width="279" height="348" viewBox="0 0 279 348" fill="none" xmlns="http://www.w3.org/2000/svg">
<path d="M58.9887 250.354C50.8307 214.613 52.0858 177.619 47.0655 141.251C42.0451 104.884 29.1806 67.2621 0 45.3161C21.0226 39.6729 43.614 47.8242 60.5576 61.3053C77.5011 74.7864 89.1106 93.5972 99.7788 112.408C106.682 124.635 113.585 136.862 117.036 150.343C119.86 161.63 120.488 173.543 120.174 185.143C119.232 210.538 113.898 236.246 99.465 256.938C93.1896 265.716 85.3454 273.554 77.5011 280.765C74.3634 283.586 71.2257 286.408 67.1467 287.662C63.0677 288.916 58.0474 287.976 55.851 284.527C53.9684 281.705 54.2822 278.257 54.5959 275.121C55.5372 263.835 56.7923 251.921 58.9887 250.354Z" fill="#DEF8D9"/>
<path d="M118.291 202.7C143.707 183.889 154.375 150.97 159.709 119.619C165.671 86.3864 167.24 51.2728 154.061 20.235C150.61 12.3972 145.903 4.55934 138.059 1.4242C129.273 -2.02445 118.919 1.11069 112.016 7.38096C105.113 13.6512 101.348 22.7431 98.8377 31.835C90.3659 62.2458 95.0725 94.8512 100.093 126.203C103.858 152.538 107.937 178.559 118.291 202.7Z" fill="#DEF8D9"/>
<path d="M133.666 206.462C146.844 203.954 157.198 193.608 163.474 182.008C169.749 170.408 172.887 157.24 177.28 144.7C185.438 121.5 197.675 100.181 210.539 79.1755C220.894 62.2458 231.248 45.3161 241.916 28.3864C246.309 21.4891 251.329 13.9647 259.174 11.4566C260.742 10.8296 262.311 10.5161 263.88 11.1431C266.704 12.0837 267.959 15.2188 268.9 17.7269C284.589 63.1864 280.51 116.17 254.153 156.613C227.797 197.057 178.849 222.765 130.842 216.808C135.235 210.224 141.824 205.208 133.666 206.462Z" fill="#DEF8D9"/>
<path d="M152.806 51.5863C152.806 49.7053 152.492 47.5107 152.492 45.6296C152.492 44.6891 150.296 44.3755 150.296 45.6296C149.982 47.1972 150.296 48.4512 150.296 50.0188C150.296 51.8999 150.296 53.4674 149.982 55.3485C149.668 58.7972 149.668 61.9323 149.354 65.0674C148.727 68.2026 148.099 71.0242 147.472 73.8458C146.531 76.9809 145.589 79.8026 144.648 82.3107C142.451 87.3269 140.569 91.7161 138.372 96.1053C137.431 98.2999 136.49 100.808 135.549 103.316C134.607 105.824 133.666 108.019 132.411 110.213C131.783 111.467 131.47 112.721 130.842 113.976C130.214 115.23 129.587 116.17 128.959 117.111V117.424C128.959 116.17 129.273 115.23 129.273 113.976C129.587 110.84 129.587 108.019 129.901 104.884C130.214 101.749 130.214 98.2999 130.214 95.1647C130.214 92.0296 130.214 89.208 130.214 86.0728C130.214 82.6242 130.528 79.1755 130.528 75.4134C130.528 72.2782 130.528 69.4566 130.214 66.3215C129.901 63.4999 129.587 60.6782 129.273 58.1701C128.959 55.3485 128.646 52.8404 128.332 49.7053C128.018 46.8836 127.704 43.7485 127.391 41.2404C126.763 38.1053 126.135 35.5972 125.822 32.7755C125.508 30.2674 124.88 27.7593 124.253 25.2512C123.625 22.7431 122.684 20.235 121.743 18.0404C120.801 15.8458 119.546 13.9647 118.605 12.0836C118.291 11.4566 117.664 11.4566 117.036 11.4566C117.036 11.4566 116.095 11.7701 116.095 12.0836C117.664 16.1593 119.546 18.6674 120.801 23.3701C122.056 27.7593 122.998 32.7755 123.939 37.4782C125.194 42.4945 125.508 48.4512 126.135 54.0945C126.763 59.1107 127.391 64.1269 127.704 69.4566C127.391 68.5161 127.077 67.889 126.449 67.262C124.88 65.0674 123.312 63.4999 121.429 62.2458C120.488 61.6188 119.546 61.3053 118.605 61.3053C117.664 60.9918 116.722 60.3647 115.781 60.3647C114.84 60.0512 113.898 60.6782 112.957 60.6782C112.016 60.9918 111.075 60.6782 110.133 60.6782C110.133 60.6782 109.192 60.6782 109.192 61.3053C109.192 61.9323 110.133 61.9323 110.133 61.9323C111.075 62.2458 111.702 62.2458 112.643 62.2458C113.585 62.2458 114.526 61.9323 115.154 61.9323C115.781 61.9323 116.722 62.5593 117.35 62.8728C117.977 63.1863 118.919 63.1863 119.546 63.8134C121.115 64.7539 122.37 66.3215 123.939 68.2026C125.194 69.7701 126.135 72.9053 127.077 75.7269C127.077 76.0404 127.391 76.3539 127.704 76.3539C127.704 77.9215 127.704 79.1755 127.704 80.7431C127.391 83.8782 127.391 87.0134 127.391 90.1485C127.391 96.7323 127.077 103.316 126.763 109.9C126.449 112.721 126.135 115.543 126.135 118.365C125.822 121.5 125.822 124.635 125.508 127.77C124.88 133.413 124.88 139.057 124.567 144.7C124.567 144.386 124.567 144.073 124.567 144.073C124.253 141.565 123.939 138.743 123.625 136.235C123.312 134.04 122.684 132.473 122.056 130.905C121.429 129.024 120.801 126.83 120.174 124.949C119.546 123.067 118.605 121.5 117.977 119.932C116.409 116.484 115.154 111.781 113.585 108.646C113.271 108.019 112.643 108.019 112.016 108.019C112.016 108.019 111.075 108.332 111.075 108.959C111.702 110.84 112.33 112.721 112.957 114.603C113.585 116.484 114.212 118.365 114.84 119.932C115.467 121.5 116.409 122.754 117.036 124.635C117.664 126.516 118.291 128.711 118.919 130.592C119.546 132.473 120.174 134.04 120.488 136.235C120.801 138.743 121.115 141.251 121.429 143.759C122.056 148.776 122.998 153.792 123.312 159.435C123.312 159.749 123.625 160.062 123.939 160.062C123.625 162.884 123.625 166.019 123.312 168.84C122.998 172.289 122.684 176.051 122.37 179.5C122.056 183.262 122.056 186.711 121.429 190.473C121.429 190.786 123.939 192.354 124.253 190.473C125.508 184.516 125.194 177.619 125.822 171.349C126.449 164.765 126.763 158.494 127.077 151.911C127.391 145.327 127.704 138.43 128.018 131.846C128.018 129.651 128.332 127.143 128.646 124.949L128.959 124.635C129.901 122.44 130.842 119.932 131.783 118.051C132.411 117.111 132.725 116.17 133.352 115.543C133.98 114.603 134.293 113.035 134.921 112.094C135.862 109.586 137.117 107.705 138.059 105.197C139 102.689 139.941 99.8674 140.883 97.3593C141.824 95.1647 143.079 93.2836 144.02 91.0891C145.275 88.5809 146.217 86.0728 147.158 83.5647C149.041 78.862 150.61 73.5323 152.178 67.262C153.12 63.4999 153.12 60.0512 153.433 56.2891C152.806 55.3485 152.806 53.4674 152.806 51.5863Z" fill="#045837"/>
<path d="M274.235 84.8188C275.176 82.9377 276.118 80.7431 276.745 78.862C277.059 77.9215 275.176 76.6675 274.549 77.608C273.607 78.8621 272.98 80.4296 272.352 81.9972C271.411 83.8783 270.47 85.4458 269.528 87.0134C267.646 90.1485 266.077 93.2837 263.881 96.1053C261.998 98.9269 259.802 101.435 257.605 103.63C255.409 106.451 252.899 108.646 250.702 110.527C246.31 114.603 241.917 117.738 237.524 120.873C235.641 122.44 233.445 124.635 231.249 126.516C229.052 128.711 226.856 130.278 224.973 131.846C223.718 132.786 222.777 133.727 221.522 134.667C220.267 135.608 219.325 136.235 218.384 136.862L218.07 137.176C218.698 136.235 219.325 134.981 219.953 134.04C221.835 131.219 223.404 128.397 224.973 125.262C226.856 122.127 228.425 118.992 230.307 115.857C231.876 113.035 233.131 109.9 234.7 107.078C236.583 103.63 238.465 100.494 240.348 97.0458C241.917 94.2242 243.172 91.0891 244.427 88.2675C245.682 85.4458 246.623 82.6242 247.565 79.8026C248.506 76.981 249.447 74.1594 250.702 71.3377C251.957 68.2026 253.212 65.381 254.154 62.5593C255.095 59.4242 255.723 56.6026 256.664 53.4675C257.605 50.6458 258.233 48.1377 258.86 45.6296C259.488 42.808 259.802 39.9864 260.115 37.4783C260.115 34.9702 260.115 32.462 260.115 29.9539C260.115 29.0134 259.488 29.0134 258.86 28.6999C258.86 28.6999 257.605 28.3864 257.605 29.0134C256.978 33.7161 257.605 37.1647 256.664 42.4945C255.723 47.5107 254.154 52.8404 252.585 57.8566C251.33 63.1864 248.506 69.4566 246.623 75.0999C244.741 80.4296 242.858 85.4458 240.662 90.7756C240.662 89.835 240.662 88.8945 240.662 88.2675C240.034 85.4458 239.407 82.9377 238.151 81.0566C237.524 80.1161 236.896 79.4891 235.955 78.5485C235.328 77.9215 234.7 76.981 233.759 76.3539C232.817 75.7269 231.876 75.4134 230.621 75.4134C229.68 75.0999 228.738 74.4729 227.797 74.1593C227.797 74.1593 226.856 73.8458 226.542 74.1593C226.228 74.7864 226.856 75.0999 227.17 75.4134C227.797 76.0404 228.738 76.3539 229.366 76.981C230.307 77.2945 231.249 77.2945 232.19 77.9215C232.817 78.235 233.445 79.1756 234.072 79.8026C234.7 80.4296 235.328 81.0566 235.955 81.9972C236.896 83.8783 237.524 86.0729 237.838 88.2675C238.151 90.4621 237.524 93.9107 236.896 97.0458C236.896 97.6729 236.896 97.6729 237.21 97.9864C236.583 99.5539 235.641 100.808 235.014 102.376C233.445 105.197 231.562 108.332 230.307 111.154C227.17 117.424 223.404 123.694 219.953 129.965C218.384 132.786 216.815 135.294 214.933 137.803C213.05 140.624 211.481 143.759 209.598 146.581C206.461 151.597 203.323 157.24 200.499 162.57C200.499 162.257 200.813 161.943 200.813 161.63C201.754 159.122 202.695 156.3 203.637 153.792C204.264 151.597 204.578 149.716 204.892 147.835C205.206 145.64 205.519 143.446 205.833 141.251C206.147 139.057 206.147 137.176 206.147 135.294C206.147 131.219 207.402 126.203 207.402 122.127C207.402 121.186 206.774 120.873 206.147 120.873C206.147 120.873 204.892 120.559 204.892 121.186C204.578 123.381 204.264 125.576 203.951 127.77C203.637 129.965 203.323 132.159 203.323 134.04C203.323 135.922 203.323 137.489 203.009 139.684C202.695 141.878 202.382 144.073 202.068 146.267C201.754 148.149 201.44 150.343 200.813 152.538C200.185 155.046 198.93 157.867 197.989 160.376C196.106 165.705 194.537 171.035 192.027 176.365C191.714 176.678 192.027 176.992 192.027 177.305C190.458 180.127 188.89 182.949 187.007 185.457C184.811 188.905 182.928 192.04 181.045 195.489C179.163 198.938 176.966 202.386 174.77 205.522C174.456 205.835 176.339 208.657 177.28 207.089C181.359 201.759 184.497 195.176 188.262 189.219C192.027 183.262 195.479 176.992 198.93 171.035C202.382 164.765 206.147 158.181 209.598 151.911C210.854 149.716 212.109 147.522 213.364 145.327C213.364 145.327 213.677 145.327 213.677 145.013C215.56 143.446 217.756 141.565 219.639 139.997C220.58 139.37 221.522 138.743 222.463 138.116C223.404 137.489 224.659 136.235 225.914 135.294C228.111 133.413 229.993 132.159 232.19 130.278C234.386 128.397 236.583 125.889 238.779 124.322C240.975 122.44 242.858 121.5 244.741 119.932C246.937 118.051 249.133 116.17 251.644 114.289C256.036 110.527 260.115 106.138 264.508 100.808C267.018 97.6729 268.901 94.5377 271.097 90.462C272.352 88.2675 273.294 86.6999 274.235 84.8188Z" fill="#045837"/>
<path d="M81.5802 180.44C81.894 180.44 81.894 180.127 81.894 180.127C81.5802 179.5 81.5802 178.559 81.5802 177.932C81.5802 177.305 81.5802 176.365 81.5802 175.738C81.5802 174.17 81.894 172.916 81.894 171.349C81.894 170.721 82.2078 170.094 82.2078 169.154C82.5215 168.527 82.5215 167.9 82.5215 166.959C82.5215 166.332 82.2078 165.705 82.2078 165.078C82.2078 164.451 82.2078 163.511 82.2078 162.884C82.2078 161.316 82.5215 159.749 82.8353 158.494C83.1491 157.24 83.4628 155.673 83.4628 154.419C83.4628 152.851 83.4628 151.597 83.4628 150.03C83.4628 148.462 83.4628 146.894 83.7766 145.64C84.0904 144.073 84.4041 142.505 84.7179 140.938C85.0317 139.37 85.3454 137.803 85.6592 136.549C85.973 136.235 85.0317 135.608 85.0317 136.235C84.4041 137.489 84.0904 139.057 84.0904 140.311C83.7766 141.878 83.4628 143.132 83.4628 144.7C83.1491 146.267 83.1491 147.521 82.8353 149.089C82.8353 150.657 82.8353 152.224 82.8353 153.478C82.8353 155.046 82.8353 156.3 82.5215 157.867C82.2077 158.494 82.2078 159.435 81.894 160.062C81.894 160.689 81.5802 161.63 81.5802 162.257C81.5802 162.884 81.5802 163.824 81.5802 164.451C81.5802 165.078 81.5802 165.705 81.894 166.646C81.894 167.273 81.894 168.213 81.894 168.84C81.894 169.467 81.5802 170.094 81.5802 171.035C81.5802 171.976 81.2664 172.603 81.2664 173.543C81.2664 174.484 80.9527 175.111 80.9527 176.051C80.9527 176.678 80.9527 177.305 80.9527 178.246C80.9527 178.246 80.9527 177.932 80.6389 177.932C79.6976 175.111 78.7563 171.976 77.815 169.154C75.9324 163.197 74.0497 156.927 72.1671 150.97C71.2258 148.149 70.2845 145.013 68.7156 142.192C68.4019 141.251 67.7743 140.311 67.4606 139.37C67.7743 139.37 67.7743 139.057 68.0881 139.057C69.0294 138.116 69.3432 136.235 69.3432 134.981C69.657 132.786 69.657 130.905 69.9707 128.711C70.2845 126.516 70.2845 124.321 70.5983 122.127C70.912 119.619 71.2258 117.424 71.5396 114.916C71.5396 113.662 71.8533 112.721 71.8533 111.467C71.8533 110.527 71.8533 109.9 72.1671 108.959C72.4809 108.959 72.7947 108.646 72.4809 108.332C72.4809 108.332 72.4809 108.019 72.1671 108.019C72.1671 107.705 71.5396 107.705 71.5396 108.019C70.912 109.586 71.2258 111.781 70.912 113.349C70.5983 115.543 70.2845 117.424 69.9707 119.619C69.3432 123.694 69.0294 128.084 68.7156 132.473C68.7156 133.413 68.4019 134.04 68.4019 134.981C68.4019 135.608 68.4019 136.549 68.0881 137.176C67.7743 137.803 67.4606 138.116 67.1468 138.43C66.5193 136.862 66.2055 134.981 65.5779 133.413C65.2642 131.846 64.6366 130.592 64.3229 129.024C64.0091 127.457 64.0091 126.203 63.6953 124.635C63.3816 123.381 63.0678 122.127 62.754 120.559C62.1265 118.992 61.8127 117.424 61.4989 115.857C61.4989 115.543 61.1852 114.916 61.1852 114.603C61.4989 113.976 61.1852 113.035 61.4989 112.408C61.4989 111.781 61.4989 111.467 61.4989 110.84C61.4989 110.213 61.8127 109.9 61.8127 109.273C62.1265 107.392 62.4403 105.824 62.754 103.943C63.0678 102.062 63.3816 99.8674 64.0091 97.9864C64.6366 96.1053 65.2642 93.9107 66.2055 92.0296C66.5193 91.7161 65.5779 91.0891 65.5779 91.7161C64.3229 95.1647 63.0678 98.2999 62.4403 102.062C62.1265 103.943 61.8127 105.511 61.4989 107.392C61.1852 108.332 61.1852 109.273 60.8714 110.213C60.8714 110.84 60.8714 111.467 60.8714 112.094C60.5576 110.527 59.9301 108.646 59.6163 107.078C58.675 103.943 58.0475 101.121 57.4199 97.9864C57.4199 97.6728 57.4199 97.0458 57.4199 96.7323C57.4199 96.4188 57.4199 95.7918 57.4199 95.4783C57.7337 92.3431 58.3612 89.208 58.9888 86.0728C59.3026 84.5053 59.9301 82.9377 60.2439 81.3701C60.5576 79.8026 61.1852 78.5485 61.4989 76.981C61.8127 76.0404 62.4403 74.7864 61.8127 73.5323C61.8127 73.2188 61.4989 73.2188 61.1852 73.5323C60.5576 74.7864 60.2439 76.3539 59.6163 77.9215C59.6163 78.235 59.9301 78.5485 60.2439 78.235C60.2439 77.9215 60.5576 77.608 60.5576 77.2945C60.2439 78.5485 59.9301 79.8026 59.6163 81.0566C58.675 84.1918 58.0475 87.0134 57.4199 90.1485C56.7924 91.0891 56.4786 92.6566 56.4786 94.2242C55.8511 92.0296 55.2235 90.1485 54.2822 87.9539C53.6547 85.7593 53.0272 83.5647 52.0859 81.3701C51.7721 79.4891 52.3996 77.608 52.7134 75.7269C53.0272 73.5323 53.3409 71.3377 53.6547 68.8296C53.6547 67.5756 53.6547 66.008 53.6547 64.7539C53.6547 64.1269 53.0272 64.1269 53.0272 64.7539C53.0272 67.262 53.0272 69.4566 52.7134 71.9647C52.7134 73.2188 52.3996 74.1593 52.0859 75.4134C51.7721 76.3539 51.7721 77.2945 51.4583 78.5485C51.4583 78.862 51.4583 79.1755 51.4583 79.4891C50.2032 76.981 48.9481 74.7864 48.3206 72.2783C47.6931 70.3972 47.3793 68.2026 46.1242 66.635C45.4967 66.008 44.8691 65.381 44.2416 65.0674C43.9278 64.7539 43.6141 65.6945 43.9278 65.6945C45.8105 66.635 46.438 68.8296 47.0655 70.7107C47.6931 72.9053 48.3206 74.7864 49.2619 76.981C49.8895 78.235 50.8308 79.8026 51.4583 81.0566C52.0858 82.6242 52.3996 83.8783 53.0272 85.4458C53.9685 88.581 55.2235 91.4026 55.8511 94.2242C56.1649 95.1647 56.4786 96.1053 56.4786 96.7323C56.4786 97.0458 56.4786 97.0458 56.4786 97.3593C56.4786 97.3593 56.4786 97.3593 56.4786 97.6728C56.1649 97.9864 56.1649 97.6728 55.8511 97.3593C55.5373 97.0458 55.2235 96.7323 54.596 96.4188C53.9685 95.7918 53.3409 95.1647 52.3996 94.2242C51.7721 93.5972 50.8308 92.6566 50.2032 92.0296C48.6344 90.7755 47.0655 89.5215 45.4967 88.2674C43.6141 86.6999 42.0452 85.1323 40.7901 83.5647C40.4764 83.2512 40.1626 83.5647 40.1626 84.1918C41.4177 85.7593 43.3003 87.3269 44.8691 88.8945C46.438 90.462 48.3206 91.7161 49.8895 92.9701C50.8308 93.5972 51.4583 94.5377 52.3996 95.1647C53.0272 95.7918 53.9685 96.7323 54.596 97.3593C54.9098 97.6728 55.2235 97.9864 55.5373 98.2999C55.8511 98.6134 56.1649 98.6134 56.4786 98.2999C56.7924 99.8674 57.1062 101.435 57.7337 103.003C58.675 106.138 59.6163 108.959 60.2439 112.094C60.2439 112.408 60.2439 112.721 60.5576 113.035V113.349C60.5576 113.662 60.5576 113.662 60.2439 113.976C59.9301 113.976 59.6163 113.976 59.6163 113.976C58.9888 113.662 58.675 113.349 58.3612 113.035C57.7337 112.408 56.7924 112.094 56.1649 111.467C54.596 110.527 53.0272 109.273 51.4583 108.332C49.8895 107.392 48.6344 106.138 47.0655 105.197C46.438 104.57 45.4967 104.257 44.8691 103.63C44.5554 103.316 44.2416 103.003 43.9278 102.689C43.3003 102.376 42.9865 102.062 42.359 101.749C42.0452 101.435 41.4177 101.435 41.1039 101.435C40.7901 101.749 40.7901 102.376 41.4177 102.062C41.7314 102.062 42.0452 102.062 42.359 102.376C42.6728 102.689 43.3003 103.003 43.6141 103.316C43.9278 103.63 44.2416 103.943 44.5554 103.943C45.1829 104.257 45.8105 104.884 46.438 105.197C48.0068 106.138 49.5757 107.392 50.8308 108.646C52.3996 109.9 53.9685 110.84 55.2235 111.781C55.8511 112.408 56.7924 112.721 57.4199 113.349C57.7337 113.662 58.3612 113.976 58.675 114.289C58.9888 114.603 59.6163 114.603 60.2439 114.289L60.5576 113.976C60.5576 114.603 60.8714 115.543 60.8714 116.17C61.1852 117.738 61.8127 118.992 62.1265 120.559C63.0678 123.381 62.754 126.203 63.6953 129.024C64.0091 130.592 64.6366 131.846 64.9504 133.413C65.2642 134.667 65.578 135.921 66.2055 136.862C65.578 136.862 64.9504 136.549 64.3229 136.235C62.754 135.294 61.1852 134.354 59.6163 133.1C58.0475 131.846 56.4786 130.905 54.9098 129.651C53.0272 128.397 51.4583 127.143 49.5757 125.889C47.6931 124.635 45.8105 123.381 43.9278 122.754C43.6141 122.44 43.3003 123.067 43.6141 123.381C45.1829 124.321 47.0655 125.262 48.6344 126.516C50.2032 127.457 52.0859 128.711 53.6547 129.965C55.2235 131.219 56.7924 132.159 58.3612 133.413C59.9301 134.667 61.4989 135.608 63.0678 136.549C64.0091 137.176 65.2642 137.489 66.2055 137.489C67.1468 140.311 68.7157 143.132 69.657 145.954C70.5983 149.089 71.5396 151.911 72.4809 155.046C73.4222 158.181 74.0497 161.003 74.991 164.138C75.9324 167.273 77.1874 170.721 78.1287 173.857C77.5012 173.23 76.8737 172.289 76.2461 171.662C75.3048 170.721 74.0497 169.781 72.7947 168.84C71.5396 167.9 70.5983 166.646 69.3432 165.705C67.1468 163.824 64.9504 161.943 62.4403 160.062C60.2439 158.181 57.7337 156.613 55.2235 155.046C53.9685 154.419 52.3996 153.478 51.1445 152.538C49.8895 151.597 48.6344 150.657 47.0655 150.03C46.7518 149.716 46.438 150.343 46.7518 150.657C49.2619 151.911 51.4583 153.792 53.6547 155.359C54.9098 155.986 56.1649 156.613 57.1062 157.554C58.3612 158.494 59.6163 159.121 60.5576 160.062C62.754 161.943 64.9504 163.511 67.1468 165.392C68.4019 166.332 69.3432 167.586 70.5983 168.527C71.5396 169.467 72.7947 170.408 74.0497 171.349C75.6186 172.603 76.8737 174.17 78.1287 175.738C78.7563 177.932 79.3838 179.813 80.3251 182.008C80.9527 184.516 81.894 186.711 82.5215 189.219C82.2077 188.592 81.894 188.278 81.5802 187.651C80.6389 186.397 79.6976 185.457 78.4425 184.516C76.2461 182.321 74.0497 180.127 71.5396 178.559C69.0294 176.678 66.5193 175.424 64.3229 173.543C61.8127 171.662 59.6163 170.094 57.1062 168.213C55.8511 167.273 54.2822 166.332 53.0272 165.392C51.4583 164.451 49.8895 163.824 48.6344 162.884C48.3206 162.57 48.0068 163.197 48.3206 163.511C49.5757 164.138 50.8308 164.765 52.3996 165.705C53.6547 166.332 54.9098 167.273 56.1649 168.213C58.675 169.781 61.1852 171.662 63.3816 173.543C65.8917 175.424 68.4019 176.678 70.912 178.559C73.4222 180.44 75.6186 182.635 77.815 184.516C79.07 185.457 80.3251 186.711 81.2664 187.965C81.5802 188.592 81.894 189.219 82.2078 189.846C82.5215 190.159 82.8353 190.786 83.1491 190.786C84.0904 193.294 84.7179 195.803 85.6592 198.311C85.3454 197.684 84.7179 197.057 84.4041 196.743C82.5215 194.549 80.3251 192.981 77.815 191.1C75.6186 189.532 73.1084 187.965 70.5983 186.397C68.0881 184.83 65.8917 182.949 63.3816 181.381C62.1265 180.754 61.1852 179.813 59.9301 179.5C59.3026 179.186 58.675 178.873 58.3612 178.873C58.0475 178.559 57.4199 178.246 57.4199 177.932C57.1062 177.619 56.4786 177.619 56.7924 178.246C57.1062 179.186 58.3612 179.813 58.9888 180.127C59.3026 180.44 59.9301 180.44 60.5576 180.754C61.1852 181.067 61.4989 181.381 62.1265 181.694C64.6366 183.262 66.833 185.143 69.3432 186.711C70.5983 187.651 71.8533 188.278 73.1084 188.905C74.3635 189.532 75.6186 190.473 76.8737 191.413C79.3838 192.981 81.5802 194.862 83.7766 197.057C84.4041 197.684 85.0317 198.624 85.973 199.565C86.2868 199.878 86.6005 200.192 86.9143 200.505C87.8556 203.013 89.1107 205.521 90.3658 207.716C90.052 208.657 89.7382 209.911 89.4245 210.851C88.4831 210.224 87.8556 209.597 86.9143 208.97C85.973 208.343 85.3454 207.403 84.4041 206.776C82.2077 205.208 80.0114 203.64 77.815 202.073C75.6186 200.505 73.4222 199.251 70.912 197.684C68.4019 196.43 65.8917 195.176 63.3816 193.921C62.1265 193.294 60.5576 192.667 59.3026 191.727C58.0475 191.1 56.4786 190.159 55.2235 189.532C54.9098 189.219 54.596 190.159 54.9098 190.159C56.1649 190.786 57.4199 191.413 58.675 192.04C59.9301 192.667 61.1852 193.294 62.4403 193.921C64.9504 195.176 67.4606 196.43 69.9707 197.684C74.6773 200.192 79.0701 203.327 83.4628 206.462C84.4041 207.089 85.3454 208.03 86.6005 208.97C87.5418 209.911 88.4831 210.538 89.7382 211.165H90.052C90.6795 210.224 90.9933 209.597 90.9933 208.657C91.9346 211.478 92.8759 214.3 93.8172 217.435C94.131 218.689 94.4448 219.943 95.0723 220.884H94.7585C93.8172 220.257 92.8759 219.63 92.2484 218.689C91.3071 217.749 90.3658 216.808 89.4245 215.867C88.4831 214.927 87.5418 213.986 86.2868 213.359C84.0904 211.792 82.2077 210.224 80.0114 208.97C77.815 207.403 75.9324 205.835 73.736 204.581C71.5396 203.013 69.3432 201.759 67.1468 200.505C65.8917 199.878 64.9504 199.251 63.6953 198.938C63.0678 198.624 62.4403 198.311 62.1265 197.997C61.8127 197.684 61.4989 197.37 60.8714 197.37C60.5576 197.37 60.2439 197.37 59.6163 197.684C59.3026 197.997 59.6163 198.624 59.9301 198.311C60.2439 197.997 60.5576 198.311 60.8714 198.624C61.4989 198.938 61.8127 199.251 62.4403 199.565C63.6953 200.192 64.6366 200.819 65.8917 201.132C68.0881 202.386 70.2845 203.64 72.4809 205.208C74.6773 206.776 76.8737 208.03 78.7563 209.597C80.9527 211.165 83.1491 212.419 85.3455 214.3C86.2868 215.24 87.5418 215.867 88.4831 216.808C89.4245 217.749 90.3658 218.689 91.3071 219.63C92.2484 220.884 93.8172 222.138 95.0723 222.451C96.3274 226.527 97.5825 230.603 99.4651 234.365C99.4651 234.365 99.4651 234.365 99.4651 234.678C99.4651 234.992 99.4651 235.305 99.1513 235.305C98.8375 234.992 98.5238 234.365 98.21 233.738C97.8962 233.111 97.2687 232.797 96.6412 232.17C95.3861 231.23 94.4448 230.289 93.1897 229.349C90.6795 227.467 88.1694 225.586 85.6592 224.019C83.1491 222.451 80.3251 220.884 77.815 219.316C74.991 217.749 72.1671 216.494 69.3432 214.927C67.7743 214.3 66.2055 213.359 64.6366 212.732C64.0091 212.419 63.0678 212.105 62.4403 211.792C61.8127 211.478 60.8714 211.478 60.2439 211.165C59.9301 210.851 59.6163 211.478 59.9301 211.792C60.8714 212.419 62.1265 212.732 63.3816 213.046C64.6366 213.673 65.8917 214.3 67.1468 214.927C69.657 216.181 72.1671 217.435 74.6773 218.689C79.6976 221.197 84.4041 224.019 89.1107 227.154C90.3658 228.094 91.3071 228.721 92.5622 229.662C93.5035 230.603 94.7585 231.543 95.6999 232.17C96.3274 232.484 96.6412 233.111 97.2687 233.424C97.5825 233.738 97.8962 234.365 98.21 234.992C98.5238 235.305 98.8376 235.932 99.4651 235.932C99.7789 235.932 100.093 235.619 100.093 235.305C100.72 236.559 101.348 237.813 102.289 239.067C102.603 239.381 103.23 239.067 102.917 238.754C101.975 237.186 101.348 235.932 100.406 234.365C100.406 233.738 100.406 233.424 100.406 232.797C100.406 231.543 100.72 229.976 100.72 228.721C101.034 225.9 101.661 223.078 101.975 220.257C102.289 217.435 102.603 214.613 103.23 211.478C103.858 208.657 104.485 205.835 105.113 203.013C105.113 202.386 105.427 201.759 105.427 200.819C105.427 200.192 104.799 200.192 104.799 200.505C104.172 205.521 102.917 210.224 101.975 215.24C101.661 217.749 101.348 220.257 101.034 222.451C100.72 223.705 100.72 224.959 100.406 226.213C100.093 227.467 100.093 228.721 100.093 229.976C100.093 230.916 100.093 231.857 99.7789 232.797C98.21 229.349 96.9549 225.9 96.0136 222.451C96.3274 222.451 96.3274 222.451 96.6412 222.138C97.5825 221.824 97.8962 221.197 97.8962 219.943C97.8962 219.316 97.8962 219.003 97.5825 218.376C97.5825 217.749 97.5825 217.121 97.5825 216.494C97.5825 215.24 97.5825 213.986 97.5825 212.732C97.5825 211.478 97.8962 209.911 98.21 208.657C98.8375 203.013 99.4651 197.37 100.093 191.727C100.093 191.1 100.093 190.159 100.406 189.532C100.406 188.905 99.7789 188.905 99.7789 189.219C99.1513 194.862 98.5238 200.505 97.8962 205.835C97.5825 208.657 96.9549 211.165 96.9549 213.986C96.9549 215.24 96.9549 216.494 96.9549 217.749C96.9549 218.376 96.9549 219.003 97.2687 219.63C97.2687 219.943 97.2687 220.57 97.2687 220.884C96.9549 221.197 96.6412 221.511 96.0136 221.511V221.197C95.0723 218.376 94.131 215.24 93.1897 212.419C92.8759 210.851 92.2484 209.597 91.6208 208.343C91.6208 208.03 91.6208 208.03 91.6208 207.716C91.9346 205.835 92.5621 204.267 92.8759 202.386C93.5035 200.505 94.131 198.938 94.7585 197.057C95.3861 195.489 95.6998 193.608 96.0136 192.04C96.3274 190.159 96.9549 187.965 97.8962 186.397C98.21 186.084 97.2687 185.457 97.2687 186.084C96.0136 189.219 95.3861 192.981 94.4448 196.116C93.8172 197.997 93.1897 199.565 92.8759 201.132C92.2484 202.7 91.9346 204.581 91.3071 206.148C91.3071 206.462 91.3071 206.776 90.9933 206.776C90.3658 205.521 90.052 204.581 89.4245 203.327C89.1107 202.7 88.7969 201.759 88.4831 201.132H88.7969C89.1107 201.132 89.1107 200.819 89.1107 200.819C89.1107 199.878 89.1107 198.938 89.4245 197.997C89.4245 197.057 89.4245 196.116 89.7382 195.176C89.7382 193.921 89.7382 192.981 90.052 191.727C90.052 190.786 90.052 189.532 90.052 188.592C90.3658 184.516 90.9933 180.44 91.6208 176.365C91.9346 174.17 92.5622 171.976 93.1897 169.467C93.1897 168.84 92.5622 168.84 92.5622 169.154C91.6208 173.23 90.6795 177.305 90.052 181.381C89.7382 183.576 89.4245 185.457 89.4245 187.651C89.4245 188.592 89.4245 189.846 89.4245 190.786C89.4245 191.727 89.4245 192.981 89.1107 193.921C89.1107 195.176 89.1107 196.116 88.7969 197.37C88.7969 198.311 88.4831 199.251 88.4831 200.192C88.4831 200.192 88.1694 200.192 88.1694 199.878C86.9143 197.057 85.973 193.921 85.0317 190.786C85.0317 190.786 85.0317 190.786 85.0317 190.473C85.0317 189.846 84.7179 189.219 84.4041 188.592C84.0904 187.965 84.4041 187.338 84.4041 186.711C84.4041 185.457 84.7179 184.203 84.7179 182.949C85.0317 180.44 85.6592 177.932 85.973 175.738C86.2868 173.23 86.6005 170.721 86.9143 168.527C87.2281 167.273 87.5418 166.019 87.5418 165.078C87.5418 163.824 87.5418 162.884 87.5418 161.63C87.5418 160.062 87.8556 158.808 88.1694 157.554C88.4831 155.986 88.4831 154.732 88.7969 153.165C88.7969 152.538 88.1694 152.538 88.1694 152.851C87.8556 154.105 87.8556 155.359 87.5418 156.613C87.2281 157.867 87.2281 159.121 86.9143 160.376C86.9143 161.63 86.9143 162.884 86.9143 163.824C86.9143 165.078 86.6005 166.332 86.2868 167.273C85.973 169.781 85.6592 172.289 85.3455 174.484C85.0317 176.992 84.4041 179.186 84.0904 181.694C83.7766 182.949 83.7766 184.516 83.7766 185.77V186.084C83.4628 185.457 83.4628 184.83 83.1491 184.203C82.8353 184.516 82.2077 182.635 81.5802 180.44Z" fill="#045837"/>
<path d="M50.5168 81.6837C48.948 79.8026 47.0654 77.9215 45.1828 76.3539C44.2414 75.4134 43.3001 74.7864 42.3588 73.8458C41.7313 73.2188 41.1037 72.2782 40.4762 71.6512C39.8487 71.0242 38.9074 70.0837 37.9661 69.7701C37.6523 69.7701 37.6523 69.7701 37.3385 70.0837C37.3385 70.3972 37.0247 70.3972 37.0247 70.7107C36.711 71.0242 37.0247 71.3377 37.3385 71.3377L37.6523 71.0242C39.2211 71.9647 40.1624 73.5323 41.4175 74.7864C43.3001 76.6674 45.1828 78.235 46.7516 79.8026C47.6929 80.7431 48.6342 81.6837 49.5755 82.9377C50.2031 82.6242 50.8306 81.9972 50.5168 81.6837Z" fill="#045837"/>
<path d="M74.6772 158.808C72.7945 157.554 71.2257 155.986 69.6569 154.419C68.088 152.851 66.5192 150.97 64.9503 149.716C61.1851 146.581 57.4198 143.446 53.9684 139.997C53.3408 139.057 52.3995 138.43 51.772 137.489C51.1444 136.862 50.2031 135.922 49.2618 135.922C48.948 135.922 48.948 135.922 48.948 136.235C48.948 136.549 48.6343 136.549 48.6343 136.862C48.6343 137.176 48.948 137.489 49.2618 137.176C49.2618 137.176 49.2618 136.862 49.5756 136.862C51.1444 137.489 52.3995 139.057 53.3408 140.311C54.9097 142.192 56.7923 143.759 58.6749 145.327C60.5575 146.894 62.4401 148.462 64.3228 150.03C65.8916 151.597 67.7742 153.165 69.3431 154.732C70.9119 156.613 72.7946 158.181 74.9909 159.749C74.6772 160.062 74.9909 159.122 74.6772 158.808Z" fill="#045837"/>
<path d="M76.8733 129.338H76.5596C76.2458 129.338 76.2458 129.965 76.5596 129.965C76.8733 131.219 76.5596 132.786 76.2458 134.04C75.932 135.922 75.932 137.489 75.932 139.37C75.932 141.251 75.6183 143.132 75.3045 145.013C74.9907 145.954 74.9907 146.581 74.677 147.522C74.3632 148.462 74.3632 149.403 74.3632 150.03C74.0494 152.224 74.0494 154.419 73.4219 156.613C73.4219 157.24 74.0494 157.24 74.0494 156.927C74.3632 155.046 74.677 152.851 74.677 150.97C74.677 150.03 74.9907 149.089 74.9907 148.149C75.3045 147.208 75.3045 146.267 75.6183 145.64C75.932 144.7 75.932 143.759 76.2458 143.132C76.2458 142.192 76.2458 141.251 76.5596 140.311C76.5596 138.43 76.5596 136.549 76.8733 134.667C76.8733 133.727 77.1871 133.1 77.1871 132.159C77.1871 131.219 77.1871 130.592 76.8733 129.651C77.1871 129.338 77.1871 129.024 76.8733 129.338Z" fill="#045837"/>
<path d="M117.664 219.003C117.977 219.316 118.291 219.943 118.605 220.57L117.664 219.003Z" fill="#045837"/>
<path d="M117.664 219.003C117.977 219.316 118.291 219.943 118.605 220.57" stroke="#245921" stroke-width="0.1747" stroke-miterlimit="10"/>
<path d="M116.095 217.749C116.722 218.062 117.036 218.689 117.664 219.003L116.095 217.749Z" fill="#045837"/>
<path d="M116.095 217.749C116.722 218.062 117.036 218.689 117.664 219.003" stroke="#245921" stroke-width="0.1747" stroke-miterlimit="10"/>
<path d="M112.957 214.927C113.898 215.867 115.153 216.808 116.095 217.435L112.957 214.927Z" fill="#045837"/>
<path d="M112.957 214.927C113.898 215.867 115.153 216.808 116.095 217.435" stroke="#245921" stroke-width="0.1747" stroke-miterlimit="10"/>
<path d="M109.505 212.419C110.76 213.359 111.702 213.986 112.957 214.927L109.505 212.419Z" fill="#045837"/>
<path d="M109.505 212.419C110.76 213.359 111.702 213.986 112.957 214.927" stroke="#245921" stroke-width="0.1747" stroke-miterlimit="10"/>
<path d="M95.0723 203.954C100.093 206.462 104.799 209.284 109.506 212.419L95.0723 203.954Z" fill="#045837"/>
<path d="M95.0723 203.954C100.093 206.462 104.799 209.284 109.506 212.419" stroke="#245921" stroke-width="0.1747" stroke-miterlimit="10"/>
<path d="M87.5415 200.192C90.0517 201.446 92.5618 202.7 95.072 203.954L87.5415 200.192Z" fill="#045837"/>
<path d="M87.5415 200.192C90.0517 201.446 92.5618 202.7 95.072 203.954" stroke="#245921" stroke-width="0.1747" stroke-miterlimit="10"/>
<path d="M98.2096 204.895C95.3856 203.327 92.5617 202.073 89.7378 200.505L98.2096 204.895Z" fill="#045837"/>
<path d="M98.2096 204.895C95.3856 203.327 92.5617 202.073 89.7378 200.505" stroke="#245921" stroke-width="0.1747" stroke-miterlimit="10"/>
<path d="M105.74 199.565C106.682 200.505 107.937 201.132 108.878 202.073L105.74 199.565Z" fill="#045837"/>
<path d="M105.74 199.565C106.682 200.505 107.937 201.132 108.878 202.073" stroke="#245921" stroke-width="0.1747" stroke-miterlimit="10"/>
<path d="M99.4648 195.176C101.661 196.743 103.858 197.997 106.054 199.878L99.4648 195.176Z" fill="#045837"/>
<path d="M99.4648 195.176C101.661 196.743 103.858 197.997 106.054 199.878" stroke="#245921" stroke-width="0.1747" stroke-miterlimit="10"/>
<path d="M92.8755 190.786C95.0719 192.354 97.2683 193.608 99.1509 195.176L92.8755 190.786Z" fill="#045837"/>
<path d="M92.8755 190.786C95.0719 192.354 97.2683 193.608 99.1509 195.176" stroke="#245921" stroke-width="0.1747" stroke-miterlimit="10"/>
<path d="M86.2866 186.711C88.483 187.965 90.6794 189.219 92.8758 190.786L86.2866 186.711Z" fill="#045837"/>
<path d="M86.2866 186.711C88.483 187.965 90.6794 189.219 92.8758 190.786" stroke="#245921" stroke-width="0.1747" stroke-miterlimit="10"/>
<path d="M93.8172 190.473C91.6208 188.905 89.4244 187.651 87.228 186.397L93.8172 190.473Z" fill="#045837"/>
<path d="M93.8172 190.473C91.6208 188.905 89.4244 187.651 87.228 186.397" stroke="#245921" stroke-width="0.1747" stroke-miterlimit="10"/>
<path d="M109.819 201.759C108.878 200.819 107.937 199.878 106.682 199.251L109.819 201.759Z" fill="#045837"/>
<path d="M109.819 201.759C108.878 200.819 107.937 199.878 106.682 199.251" stroke="#245921" stroke-width="0.1747" stroke-miterlimit="10"/>
<path d="M106.682 195.176C107.623 196.116 108.564 196.743 109.819 197.37L106.682 195.176Z" fill="#045837"/>
<path d="M106.682 195.176C107.623 196.116 108.564 196.743 109.819 197.37" stroke="#245921" stroke-width="0.1747" stroke-miterlimit="10"/>
<path d="M103.857 192.667C104.799 193.295 105.74 194.235 106.995 195.176L103.857 192.667Z" fill="#045837"/>
<path d="M103.857 192.667C104.799 193.295 105.74 194.235 106.995 195.176" stroke="#245921" stroke-width="0.1747" stroke-miterlimit="10"/>
<path d="M90.3657 183.889C95.0723 186.397 99.465 189.532 103.858 192.667L90.3657 183.889Z" fill="#045837"/>
<path d="M90.3657 183.889C95.0723 186.397 99.465 189.532 103.858 192.667" stroke="#245921" stroke-width="0.1747" stroke-miterlimit="10"/>
<path d="M98.5235 187.965C96.3272 186.397 94.1308 185.143 91.6206 183.576L98.5235 187.965Z" fill="#045837"/>
<path d="M98.5235 187.965C96.3272 186.397 94.1308 185.143 91.6206 183.576" stroke="#245921" stroke-width="0.1747" stroke-miterlimit="10"/>
<path d="M104.799 192.667C102.603 191.1 100.406 189.532 98.21 187.965L104.799 192.667Z" fill="#045837"/>
<path d="M104.799 192.667C102.603 191.1 100.406 189.532 98.21 187.965" stroke="#245921" stroke-width="0.1747" stroke-miterlimit="10"/>
<path d="M137.431 325.597C132.724 304.592 133.352 282.646 130.528 261.327C127.704 240.008 119.86 217.749 102.603 204.894C114.84 201.759 128.332 206.462 138.059 214.3C147.785 222.451 155.002 233.424 161.277 244.397C165.356 251.608 169.435 258.819 171.318 266.657C172.887 273.24 173.201 280.138 173.201 287.035C172.573 301.77 169.435 317.132 160.964 329.359C157.198 334.689 152.806 339.078 148.099 343.467C146.217 345.035 144.334 346.916 142.138 347.543C139.941 348.17 136.803 347.857 135.548 345.662C134.607 344.094 134.607 341.9 134.921 340.019C135.235 333.435 136.176 326.224 137.431 325.597Z" fill="#DEF8D9"/>
<path d="M172.26 297.381C187.321 286.408 193.282 266.97 196.734 248.473C200.185 229.035 201.127 208.343 193.282 190.159C191.4 185.457 188.576 181.067 183.869 178.873C178.849 176.678 172.574 178.559 168.495 182.321C164.416 186.084 162.219 191.413 160.65 196.743C155.63 214.613 158.454 233.738 161.278 252.235C163.788 267.911 165.984 283.273 172.26 297.381Z" fill="#DEF8D9"/>
<path d="M181.359 299.576C189.203 298.322 195.165 292.051 198.93 285.154C202.695 278.257 204.578 270.419 207.088 263.208C211.795 249.413 219.325 236.873 226.542 224.646C232.504 214.613 238.779 204.581 245.054 194.862C247.565 190.786 250.702 186.397 255.095 184.83C256.036 184.516 256.978 184.516 257.919 184.516C259.488 185.143 260.429 186.711 261.057 188.592C270.156 215.554 267.96 246.592 252.271 270.419C236.896 294.246 207.716 309.294 179.79 305.846C182.3 301.77 186.066 298.949 181.359 299.576Z" fill="#DEF8D9"/>
<path d="M192.655 208.657C192.655 207.403 192.655 206.148 192.341 205.208C192.341 204.581 191.086 204.581 191.086 205.208C191.086 206.148 191.086 206.775 191.086 207.716C191.086 208.657 191.086 209.911 191.086 210.851C191.086 212.732 191.086 214.613 190.772 216.494C190.458 218.375 190.145 219.943 189.517 221.511C188.889 223.392 188.576 224.959 187.948 226.527C186.693 229.348 185.438 232.17 184.183 234.678C183.555 235.932 182.928 237.5 182.614 239.067C181.987 240.635 181.359 241.889 180.731 243.143C180.418 243.77 180.104 244.711 179.79 245.338C179.476 245.965 179.163 246.592 178.849 247.219C178.849 247.219 178.849 247.219 178.849 247.532C178.849 246.905 178.849 246.278 179.163 245.651C179.163 243.77 179.476 242.203 179.476 240.321C179.476 238.44 179.79 236.559 179.79 234.678C179.79 232.797 179.79 231.23 179.79 229.348C179.79 227.154 180.104 225.273 180.104 223.078C180.104 221.197 180.104 219.63 179.79 217.748C179.79 216.181 179.476 214.613 179.163 213.046C178.849 211.478 178.849 209.911 178.535 208.03C178.221 206.462 178.221 204.581 177.908 203.013C177.594 201.132 177.28 199.565 176.966 197.997C176.652 196.43 176.339 194.862 176.025 193.608C175.711 192.04 175.084 190.473 174.456 189.532C173.829 188.278 173.201 187.024 172.573 186.084C171.946 185.143 171.632 185.143 171.318 185.143C171.318 185.143 170.691 185.143 170.691 185.457C171.632 187.965 172.573 189.532 173.515 192.04C174.142 194.548 174.77 197.684 175.397 200.505C176.025 203.327 176.339 207.089 176.652 210.224C176.966 213.046 177.594 216.181 177.594 219.316C177.28 219.003 177.28 218.375 176.966 218.062C176.025 216.808 175.084 215.867 174.142 215.24C173.515 214.927 173.201 214.613 172.573 214.613C171.946 214.3 171.632 213.986 171.005 213.986C170.377 213.986 169.75 213.986 169.122 214.3C168.494 214.3 167.867 214.3 167.239 214.3C167.239 214.3 166.612 214.3 166.612 214.613C166.612 214.927 166.926 214.927 167.239 214.927C167.867 214.927 168.181 214.927 168.808 214.927C169.436 214.927 169.75 214.613 170.377 214.613C170.691 214.613 171.318 214.927 171.632 215.24C171.946 215.24 172.573 215.554 172.887 215.867C173.829 216.494 174.77 217.435 175.397 218.375C176.025 219.316 176.652 221.197 177.28 222.765C177.28 223.078 177.594 223.078 177.594 223.078C177.594 224.019 177.594 224.959 177.594 225.586C177.594 227.467 177.28 229.348 177.28 230.916C177.28 234.678 176.966 238.754 176.966 242.516C176.966 244.084 176.652 245.965 176.652 247.532C176.339 249.413 176.339 251.294 176.339 252.862C176.025 255.997 176.025 259.446 175.711 262.894V262.581C175.397 261.013 175.397 259.446 175.084 258.192C174.77 256.938 174.456 255.997 174.142 255.057C173.829 253.803 173.515 252.548 172.887 251.608C172.573 250.354 171.946 249.727 171.632 248.786C170.691 246.905 170.063 244.084 169.122 242.203C168.808 241.889 168.494 241.889 168.181 241.889C168.181 241.889 167.553 241.889 167.553 242.516C167.867 243.77 168.181 244.711 168.808 245.965C169.122 247.219 169.436 248.159 170.063 249.1C170.377 250.04 171.005 250.981 171.318 251.921C171.632 252.862 171.946 254.116 172.573 255.37C172.887 256.311 173.201 257.251 173.515 258.819C173.829 260.073 173.829 261.954 174.142 263.208C174.456 266.03 175.084 269.165 175.084 272.3C175.084 272.613 175.084 272.613 175.397 272.613C175.397 274.494 175.084 276.062 175.084 277.943C174.77 280.138 174.77 282.019 174.456 284.213C174.456 286.408 174.142 288.603 173.829 290.484C173.829 290.797 175.397 291.424 175.397 290.484C176.025 287.035 176.025 282.959 176.339 279.197C176.652 275.435 176.966 271.673 176.966 267.911C177.28 263.835 177.28 260.073 177.594 255.997C177.594 254.743 177.908 253.176 177.908 251.921C177.908 251.921 177.908 251.921 178.221 251.608C178.849 250.354 179.163 248.786 179.79 247.846C180.104 247.219 180.418 246.905 180.731 246.278C181.045 245.651 181.359 245.024 181.673 244.084C182.3 242.83 182.928 241.575 183.555 240.008C184.183 238.44 184.497 236.873 185.124 235.619C185.752 234.365 186.379 233.111 187.007 231.857C187.634 230.603 188.262 229.035 188.889 227.467C190.145 224.646 191.086 221.511 191.713 217.748C192.341 215.554 192.341 213.673 192.341 211.165C192.341 210.851 192.655 209.597 192.655 208.657Z" fill="#045837"/>
<path d="M263.881 228.094C264.508 226.84 264.822 225.586 265.45 224.646C265.763 224.019 264.508 223.392 264.194 224.019C263.567 224.959 263.253 225.586 262.939 226.527C262.312 227.467 261.998 228.408 261.371 229.662C260.429 231.543 259.488 233.424 258.233 234.992C256.978 236.559 255.723 238.127 254.468 239.381C253.212 240.949 251.644 242.203 250.389 243.457C247.878 245.651 245.368 247.846 242.858 249.727C241.603 250.667 240.348 251.922 239.093 253.176C237.838 254.43 236.583 255.37 235.328 256.311C234.7 256.938 234.073 257.565 233.445 257.878C232.817 258.505 232.19 258.819 231.562 259.132C231.562 259.132 231.562 259.132 231.249 259.132C231.562 258.505 231.876 257.878 232.504 257.251C233.445 255.684 234.386 253.803 235.328 252.235C236.269 250.354 237.524 248.473 238.465 246.905C239.407 245.024 240.034 243.457 241.289 241.576C242.544 239.694 243.486 237.813 244.427 235.619C245.368 233.738 246.31 232.17 246.937 230.289C247.565 228.722 248.192 226.84 248.82 225.273C249.447 223.705 250.075 221.824 250.702 220.257C251.33 218.376 251.957 216.808 252.585 214.927C253.212 213.046 253.526 211.478 254.154 209.597C254.781 208.03 255.095 206.462 255.409 204.895C255.723 203.327 256.036 201.446 256.036 200.192C256.036 198.624 256.036 197.37 256.036 195.803C256.036 195.176 255.723 195.176 255.409 195.176C255.409 195.176 254.781 194.862 254.781 195.489C254.468 198.311 254.781 200.192 254.154 203.327C253.526 206.149 252.585 209.284 251.957 212.419C251.016 215.554 249.447 219.003 248.506 222.451C247.565 225.586 246.31 228.408 245.054 231.857C245.054 231.23 245.054 230.916 245.054 230.289C244.741 228.722 244.427 227.154 243.799 225.9C243.486 225.273 242.858 224.959 242.544 224.646C242.231 224.332 241.603 223.705 241.289 223.392C240.662 223.078 240.034 223.078 239.407 222.765C238.779 222.451 238.465 222.138 237.838 221.824C237.838 221.824 237.21 221.511 237.21 221.824C236.896 222.138 237.524 222.451 237.524 222.451C237.838 222.765 238.465 223.078 238.779 223.392C239.407 223.705 240.034 223.705 240.348 224.019C240.662 224.332 240.975 224.959 241.289 225.273C241.603 225.586 241.917 225.9 242.231 226.527C242.858 227.467 243.172 228.722 243.486 230.289C243.799 231.543 243.486 233.738 242.858 235.619C242.858 235.932 242.858 235.932 243.172 236.246C242.858 237.186 242.231 237.813 241.917 238.754C240.975 240.635 240.034 242.203 239.093 244.084C237.21 247.846 235.014 251.608 232.817 255.057C231.876 256.624 230.935 258.192 229.994 259.759C229.052 261.327 228.111 263.208 226.856 264.776C224.973 267.911 223.091 271.046 221.522 274.181C221.522 274.181 221.522 273.867 221.836 273.867C222.463 272.3 223.091 270.732 223.404 269.165C223.718 267.911 224.032 266.657 224.032 265.716C224.346 264.462 224.346 263.208 224.659 261.64C224.973 260.386 224.659 259.132 224.973 258.192C224.973 255.684 225.915 252.862 225.915 250.354C225.915 249.727 225.601 249.727 225.287 249.727C225.287 249.727 224.659 249.413 224.659 250.04C224.346 251.294 224.346 252.549 224.032 253.803C223.718 255.057 223.718 256.311 223.718 257.565C223.718 258.505 223.718 259.759 223.718 260.7C223.718 261.954 223.404 263.208 223.091 264.776C222.777 266.03 222.777 266.97 222.463 268.538C222.149 270.105 221.208 271.673 220.894 273.24C219.953 276.376 218.698 279.511 217.443 282.646C217.443 282.959 217.443 282.959 217.443 283.273C216.501 284.84 215.56 286.408 214.619 288.289C213.364 290.17 212.109 292.051 211.167 294.246C209.912 296.44 208.971 298.322 207.402 300.203C207.402 300.203 208.343 302.084 208.971 301.143C211.481 298.008 213.364 293.932 215.56 290.797C217.756 287.349 219.953 283.586 221.836 280.138C224.032 276.376 225.915 272.613 228.111 268.851C228.738 267.597 229.68 266.343 230.307 265.089H230.621C231.876 264.149 233.131 262.894 234.073 261.954C234.7 261.64 235.014 261.327 235.641 260.7C236.269 260.386 236.896 259.759 237.524 259.132C238.779 258.192 240.034 257.251 241.289 256.311C242.544 255.057 243.799 253.803 245.054 252.862C246.31 251.922 247.565 251.294 248.506 250.354C249.761 249.413 251.016 248.159 252.585 246.905C255.095 244.711 257.605 242.203 260.115 239.067C261.684 237.186 262.626 235.305 263.881 233.111C262.939 230.289 263.567 229.035 263.881 228.094Z" fill="#045837"/>
<path d="M150.609 284.527C150.609 284.527 150.923 284.213 150.609 284.527C150.609 283.9 150.609 283.273 150.609 282.959C150.609 282.646 150.609 282.019 150.609 281.705C150.609 280.765 150.609 280.138 150.923 279.197C150.923 278.884 150.923 278.257 151.237 277.943C151.237 277.63 151.551 277.003 151.551 276.689C151.551 276.376 151.551 275.749 151.551 275.435C151.551 275.122 151.551 274.494 151.551 274.181C151.551 273.24 151.551 272.3 151.864 271.673C152.178 270.732 152.178 270.105 152.178 269.165C152.178 268.224 152.178 267.597 152.178 266.657C152.178 265.716 152.178 264.776 152.492 264.149C152.492 263.208 152.806 262.267 153.12 261.327C153.12 260.386 153.433 259.446 153.747 258.505C153.747 258.192 153.433 257.878 153.433 258.192C153.12 258.819 152.806 259.759 152.806 260.7C152.806 261.64 152.492 262.267 152.492 263.208C152.492 264.149 152.178 265.089 152.178 265.716C152.178 266.657 152.178 267.597 152.178 268.224C152.178 269.165 152.178 269.792 151.864 270.732C151.864 271.046 151.551 271.673 151.551 271.986C151.551 272.3 151.551 272.927 151.237 273.24C151.237 273.554 151.237 274.181 151.237 274.494C151.237 274.808 151.237 275.435 151.237 275.749C151.237 276.062 151.237 276.689 151.237 277.003C151.237 277.316 150.923 277.943 150.923 278.257C150.923 278.884 150.923 279.197 150.923 279.824C150.923 280.451 150.923 280.765 150.923 281.392C150.923 281.705 150.923 282.332 150.923 282.646C150.923 282.646 150.923 282.646 150.923 282.332C150.296 280.765 149.668 278.884 149.354 277.316C148.099 273.867 147.158 270.105 146.217 266.657C145.589 264.776 144.962 263.208 144.334 261.64C144.02 261.013 143.706 260.386 143.706 260.073C143.706 260.073 144.02 260.073 144.02 259.759C144.648 259.132 144.648 258.192 144.648 257.251C144.648 255.997 144.962 254.743 144.962 253.489C144.962 252.235 145.275 250.981 145.275 249.727C145.589 248.473 145.589 246.905 145.903 245.651C145.903 245.024 145.903 244.397 146.217 243.77C146.217 243.143 146.217 242.83 146.53 242.203L146.844 241.889C146.844 241.889 146.844 241.889 146.844 241.576H146.53C144.334 242.516 144.334 243.457 144.334 244.711C144.334 245.965 144.02 247.219 143.706 248.473C143.393 250.981 143.079 253.489 142.765 255.997C142.765 256.624 142.765 256.938 142.765 257.565C142.765 257.878 142.765 258.505 142.451 258.819C142.451 259.132 142.138 259.446 141.824 259.759C141.51 258.819 141.196 257.878 140.883 256.938C140.569 255.997 140.255 255.37 140.255 254.43C140.255 253.489 139.941 252.549 139.941 251.922C139.941 250.981 139.627 250.354 139.314 249.727C139 248.786 138.686 247.846 138.686 246.905C138.686 246.592 138.686 246.592 138.686 246.278C138.686 245.965 138.686 245.338 138.686 245.024C138.686 244.711 138.686 244.397 138.686 244.084C138.686 243.77 138.686 243.457 139 243.143C139.314 242.203 139.314 240.949 139.627 240.008C139.941 238.754 139.941 237.5 140.255 236.559C140.569 235.305 141.196 234.365 141.51 233.111C141.51 232.797 141.196 232.484 141.196 232.797C140.255 234.678 139.627 236.873 139.314 238.754C139 239.694 139 240.949 138.686 241.889C138.686 242.516 138.372 242.83 138.372 243.457C138.372 243.77 138.372 244.084 138.372 244.711C138.059 243.77 137.745 242.83 137.745 241.889C137.117 240.008 136.804 238.44 136.49 236.559C136.49 236.246 136.49 235.932 136.49 235.619C136.49 235.305 136.49 235.305 136.49 234.992C136.49 233.111 137.117 231.23 137.431 229.349C137.745 228.408 138.059 227.467 138.059 226.527C138.372 225.586 138.686 224.646 138.686 224.019C139 223.392 139.314 222.765 139 222.138H138.686C138.372 223.078 138.059 223.705 137.745 224.646C137.745 224.959 138.059 224.959 138.059 224.959C138.059 224.646 138.059 224.646 138.372 224.332C138.059 224.959 138.059 225.9 137.745 226.527C137.117 228.408 136.804 229.976 136.49 231.857C136.176 232.797 136.176 233.738 136.176 234.678C135.862 233.424 135.235 232.17 134.921 230.916C134.607 229.662 133.98 228.408 133.666 227.154C133.352 225.9 133.98 224.959 133.98 223.705C134.293 222.451 134.293 220.884 134.607 219.63C134.607 219.003 134.607 218.062 134.607 217.121C134.607 216.808 134.293 216.808 134.293 217.121C134.293 218.689 134.293 219.943 133.98 221.197C133.98 221.824 133.666 222.451 133.666 223.078C133.666 223.705 133.352 224.332 133.352 224.959C133.352 225.273 133.352 225.273 133.352 225.586C132.725 224.332 131.783 222.765 131.469 221.197C131.156 219.943 130.842 219.003 130.214 217.749C129.901 217.435 129.587 217.121 129.273 216.808C128.959 216.808 128.959 217.121 128.959 217.121C129.901 217.749 130.528 219.003 130.842 220.257C131.156 221.511 131.469 222.765 132.097 224.019C132.411 224.959 133.038 225.586 133.352 226.527C133.666 227.467 133.98 228.408 134.293 229.035C134.921 230.916 135.548 232.484 136.176 234.365C136.49 234.992 136.49 235.305 136.49 235.932V236.246C136.49 236.559 136.176 236.246 136.176 236.246C135.862 235.932 135.862 235.932 135.548 235.619C135.235 235.305 134.607 234.678 134.293 234.365C133.98 234.051 133.352 233.424 133.038 233.111C132.097 232.484 131.156 231.543 130.214 230.916C129.273 229.976 128.332 229.035 127.39 228.094C127.077 227.781 127.077 228.094 127.077 228.408C128.018 229.349 128.959 230.289 129.901 231.23C130.842 232.17 131.783 232.797 132.725 233.738C133.352 234.051 133.666 234.678 133.98 234.992C134.293 235.305 134.921 235.932 135.235 236.246C135.548 236.559 135.548 236.559 135.862 236.873C136.176 236.873 136.176 237.186 136.49 236.873C136.804 237.813 136.804 238.754 137.117 239.694C137.745 241.576 138.059 243.143 138.686 245.024C138.686 245.338 138.686 245.338 138.686 245.651V245.965C138.686 245.965 138.686 246.278 138.372 246.278H138.059C137.745 246.278 137.431 245.965 137.431 245.651C137.117 245.338 136.49 245.024 136.176 244.711C135.235 244.084 134.293 243.457 133.352 242.83C132.411 242.203 131.783 241.576 130.842 240.949C130.528 240.635 129.901 240.322 129.587 240.008C129.273 240.008 129.273 239.694 128.959 239.381C128.646 239.067 128.332 239.067 128.018 238.754C127.704 238.754 127.39 238.44 127.39 238.754C127.077 238.754 127.39 239.381 127.39 239.067C127.39 239.067 127.704 239.067 128.018 239.381C128.332 239.381 128.646 239.694 128.646 240.008C128.959 240.008 128.959 240.321 129.273 240.321C129.587 240.635 129.901 240.949 130.528 240.949C131.469 241.576 132.411 242.203 133.038 242.83C133.98 243.457 134.921 244.084 135.548 244.711C135.862 245.024 136.49 245.338 136.804 245.651C137.117 245.965 137.431 245.965 137.745 246.278C138.059 246.278 138.372 246.592 138.686 246.278C138.686 246.592 138.686 247.219 139 247.532C139.314 248.473 139.627 249.1 139.627 250.04C140.255 251.608 139.941 253.489 140.569 255.057C140.883 255.997 141.196 256.624 141.196 257.565C141.51 258.192 141.51 258.819 141.824 259.759C141.51 259.759 140.883 259.759 140.569 259.446C139.627 258.819 138.686 258.192 137.745 257.565C136.804 256.938 135.862 256.311 134.921 255.684C133.98 255.057 132.725 254.116 131.783 253.489C130.842 252.862 129.587 251.921 128.332 251.608C128.018 251.608 128.018 251.922 128.018 251.922C128.959 252.549 129.901 253.176 131.156 253.803C132.097 254.43 133.038 255.057 133.98 255.684C134.921 256.311 135.862 256.938 136.804 257.565C137.745 258.192 138.686 258.819 139.627 259.446C140.255 259.759 140.883 260.073 141.51 260.073C142.138 261.64 143.079 263.208 143.706 265.089C144.334 266.97 144.962 268.538 145.275 270.419C145.903 272.3 146.217 273.867 146.844 275.749C147.472 277.63 148.099 279.511 148.727 281.392C148.413 281.078 148.099 280.451 147.472 280.138C146.844 279.511 146.217 278.884 145.589 278.57C144.962 277.943 144.334 277.316 143.706 276.689C142.451 275.435 141.196 274.494 139.627 273.24C138.372 272.3 136.804 271.046 135.548 270.419C134.607 270.105 133.98 269.478 133.038 268.851C132.411 268.224 131.469 267.597 130.528 267.284C130.214 267.284 130.214 267.597 130.214 267.597C131.783 268.538 133.038 269.478 134.293 270.419C134.921 270.732 135.862 271.359 136.49 271.673C137.117 271.986 137.745 272.613 138.686 273.24C139.941 274.181 141.196 275.435 142.451 276.376C143.079 277.003 143.706 277.63 144.334 278.257C144.962 278.884 145.589 279.511 146.217 280.138C147.158 280.765 148.099 281.705 148.727 282.646C149.041 283.9 149.668 285.154 149.982 286.408C150.296 287.662 150.923 289.23 151.237 290.484C150.923 290.17 150.923 289.857 150.609 289.543C149.982 288.916 149.354 288.289 148.727 287.662C147.472 286.408 146.217 285.154 144.648 284.213C143.393 283.273 141.824 282.332 140.255 281.392C138.686 280.451 137.431 279.197 135.862 278.257C134.921 277.63 134.293 277.003 133.352 276.689C132.411 276.062 131.469 275.749 130.842 275.121C130.528 275.121 130.528 275.435 130.528 275.435C131.156 275.749 132.097 276.376 132.725 276.689C133.352 277.003 134.293 277.63 134.921 278.257C136.49 279.197 137.745 280.451 139.314 281.392C140.883 282.332 142.138 283.273 143.706 284.213C145.275 285.154 146.53 286.408 147.785 287.662C148.413 288.289 149.354 288.916 149.668 289.543C149.982 289.857 149.982 290.17 150.296 290.484C150.296 290.797 150.609 290.797 150.923 291.111C151.551 292.678 151.864 293.932 152.492 295.5C152.178 295.186 151.864 294.873 151.551 294.559C150.296 293.305 149.041 292.365 147.785 291.424C146.53 290.484 144.962 289.543 143.706 288.603C142.138 287.662 140.883 286.722 139.627 285.781C139 285.467 138.372 284.84 137.431 284.527C137.117 284.527 136.804 284.213 136.49 284.213C136.176 284.213 135.862 283.9 135.862 283.586C135.862 283.273 135.235 283.586 135.548 283.586C135.862 284.213 136.49 284.527 136.804 284.84C137.117 284.84 137.431 285.154 137.745 285.154C138.059 285.154 138.372 285.467 138.686 285.781C140.255 286.722 141.51 287.662 143.079 288.603C143.706 288.916 144.648 289.543 145.275 289.857C145.903 290.17 146.844 290.797 147.472 291.424C149.041 292.365 150.296 293.619 151.551 294.873C151.864 295.186 152.492 295.813 152.806 296.44C152.806 296.754 153.12 296.754 153.433 297.067C154.061 298.635 154.688 299.889 155.316 301.457C155.316 302.084 155.002 302.711 154.688 303.338C154.061 303.024 153.747 302.711 153.433 302.397C152.806 302.084 152.492 301.457 151.864 301.143C150.609 300.203 149.354 299.262 148.099 298.322C146.844 297.381 145.589 296.44 144.02 295.813C142.451 294.873 141.196 294.246 139.627 293.619C138.686 293.305 138.059 292.678 137.117 292.365C136.176 292.051 135.548 291.424 134.607 291.111C134.293 291.111 134.293 291.424 134.293 291.424C134.921 291.738 135.862 292.365 136.49 292.678C137.117 292.992 138.059 293.305 138.686 293.932C140.255 294.559 141.51 295.5 143.079 296.127C145.903 297.694 148.413 299.576 150.923 301.457C151.551 301.77 152.178 302.397 152.806 303.024C153.433 303.651 154.061 303.965 154.688 304.278H155.002C155.316 303.965 155.63 303.338 155.63 302.711C156.257 304.278 156.885 306.159 157.199 307.727C157.512 308.354 157.512 308.981 157.826 309.922H157.512C156.885 309.608 156.571 308.981 155.943 308.667C155.316 308.04 155.002 307.413 154.375 307.1C153.747 306.473 153.12 306.159 152.492 305.532C151.237 304.592 149.982 303.651 148.727 303.024C147.472 302.084 146.217 301.143 144.962 300.516C143.706 299.576 142.451 298.949 141.196 298.008C140.569 297.694 139.941 297.381 139.314 297.067C139 296.754 138.686 296.754 138.372 296.44C138.059 296.44 138.059 296.127 137.745 296.127C137.431 296.127 137.431 296.127 137.117 296.127C136.804 296.127 137.117 296.754 137.431 296.44C137.745 296.44 137.745 296.44 138.059 296.44C138.372 296.754 138.686 296.754 139 297.067C139.627 297.381 140.255 297.694 140.883 298.008C142.138 298.635 143.393 299.576 144.962 300.516C146.217 301.457 147.472 302.397 148.727 303.024C149.982 303.965 151.237 304.905 152.492 305.846C153.12 306.159 153.747 306.786 154.375 307.413C155.002 308.04 155.63 308.354 155.943 308.981C156.571 309.608 157.199 310.549 158.14 310.549C158.767 313.057 159.709 315.251 160.65 317.446C160.65 317.446 160.65 317.759 160.336 317.759C160.022 317.446 160.022 317.132 159.709 316.819C159.395 316.505 159.081 316.192 158.767 315.878C158.14 315.251 157.512 314.624 156.885 314.311C155.316 313.057 154.061 312.116 152.492 311.176C150.923 310.235 149.354 309.294 147.785 308.354C146.217 307.413 144.334 306.786 142.765 305.846C141.824 305.532 140.883 304.905 139.941 304.592C139.627 304.278 139 304.278 138.686 303.965C138.372 303.965 137.745 303.651 137.431 303.651C137.117 303.651 137.117 303.965 137.117 303.965C137.745 304.278 138.372 304.592 139 304.592C139.627 304.905 140.569 305.219 141.196 305.532C142.765 306.159 144.334 307.1 145.589 307.727C148.413 309.294 151.237 310.862 154.061 312.743C154.688 313.057 155.316 313.684 155.943 314.311C156.571 314.938 157.199 315.251 157.826 315.878C158.14 316.192 158.454 316.505 158.767 316.819C159.081 317.132 159.081 317.446 159.395 317.759C159.395 318.073 159.709 318.386 160.022 318.386C160.336 318.386 160.336 318.073 160.336 318.073C160.65 318.7 161.278 319.64 161.591 320.267C161.905 320.581 162.219 320.267 161.905 319.954C161.278 319.013 160.964 318.386 160.336 317.446C160.336 317.132 160.336 316.819 160.336 316.505C160.336 315.565 160.336 314.938 160.65 313.997C160.65 312.43 161.278 310.549 161.278 308.981C161.591 307.413 161.591 305.532 162.219 303.965C162.533 302.397 162.846 300.516 163.16 298.949C163.16 298.635 163.16 298.008 163.474 297.694C163.474 297.381 163.16 297.381 163.16 297.694C162.846 300.516 161.905 303.338 161.591 306.159C161.278 307.727 161.278 308.981 160.964 310.549C160.964 311.176 160.65 312.116 160.65 312.743C160.65 313.37 160.65 314.311 160.336 314.938C160.336 315.565 160.336 316.192 160.336 316.505C159.395 314.624 158.767 312.43 158.14 310.235H158.454C159.081 309.922 159.395 309.608 159.395 308.981C159.395 308.667 159.395 308.354 159.395 308.04C159.395 307.727 159.395 307.413 159.395 306.786C159.395 306.159 159.395 305.219 159.395 304.592C159.395 303.651 159.709 303.024 159.709 302.084C160.022 298.635 160.336 295.5 160.964 292.051C160.964 291.738 160.964 291.111 160.964 290.797C160.964 290.484 160.65 290.484 160.65 290.797C160.336 293.932 160.022 297.381 159.709 300.516C159.395 302.084 159.081 303.651 159.081 305.219C159.081 305.846 159.081 306.786 159.081 307.413C159.081 307.727 159.081 308.04 159.081 308.354C159.081 308.667 159.081 308.981 159.081 308.981C158.767 309.294 158.767 309.294 158.454 309.294C158.454 309.294 158.454 309.294 158.454 308.981C157.826 307.1 157.199 305.532 156.885 303.651C156.571 302.711 156.257 302.084 155.943 301.143V300.83C156.257 299.889 156.571 298.635 156.885 297.694C157.199 296.754 157.512 295.813 157.826 294.559C158.14 293.619 158.454 292.678 158.454 291.424C158.767 290.17 159.081 289.23 159.395 287.976C159.395 287.662 159.081 287.349 159.081 287.662C158.14 289.543 158.14 291.738 157.512 293.619C157.199 294.559 156.885 295.5 156.571 296.754C156.257 297.694 155.943 298.635 155.63 299.889V300.203C155.316 299.576 155.002 298.949 154.688 298.322C154.375 298.008 154.375 297.381 154.061 297.067C154.061 297.067 154.061 297.067 154.375 297.067C154.375 297.067 154.688 297.067 154.688 296.754C154.688 296.127 154.688 295.5 154.688 295.186C154.688 294.559 154.688 294.246 154.688 293.619C154.688 292.992 154.688 292.365 154.688 291.738C154.688 291.111 154.688 290.484 154.688 289.857C154.688 287.349 155.316 284.84 155.63 282.646C155.943 281.392 156.257 280.138 156.571 278.57C156.571 278.257 156.257 278.257 156.257 278.57C155.63 281.078 155.002 283.273 154.688 285.781C154.375 287.035 154.375 288.289 154.375 289.543C154.375 290.17 154.375 290.797 154.375 291.424C154.375 292.051 154.375 292.678 154.375 293.305C154.375 293.932 154.375 294.559 154.375 295.186C154.375 295.813 154.375 296.127 154.375 296.754C154.375 296.754 154.375 296.754 154.061 296.754C153.433 294.873 152.806 293.305 152.178 291.424C152.178 291.111 151.864 290.797 151.864 290.484C151.864 290.17 151.864 289.857 151.864 289.23C151.864 288.603 151.864 287.662 152.178 287.035C152.492 285.467 152.806 284.213 152.806 282.646C153.12 281.078 153.12 279.824 153.433 278.257C153.433 277.63 153.747 277.003 153.747 276.062C153.747 275.435 153.747 274.808 153.747 274.181C153.747 273.24 154.061 272.613 154.061 271.673C154.061 270.732 154.375 270.105 154.375 269.165C154.375 268.851 154.061 268.851 154.061 269.165C154.061 269.792 153.747 270.732 153.747 271.359C153.747 271.986 153.433 272.927 153.433 273.554C153.433 274.181 153.433 274.808 153.433 275.749C153.433 276.376 153.12 277.003 153.12 277.943C152.806 279.511 152.806 280.765 152.492 282.332C152.178 283.9 151.864 285.154 151.864 286.722C151.864 287.662 151.864 288.289 151.551 289.23C151.551 289.23 151.551 289.23 151.551 289.543C151.551 289.23 151.237 288.916 151.237 288.603C151.237 286.722 150.923 285.467 150.609 284.527Z" fill="#045837"/>
<path d="M132.411 226.213C131.47 224.959 130.528 224.019 129.273 223.078C128.646 222.451 128.332 222.138 127.704 221.511C127.391 221.197 126.763 220.57 126.449 220.257C126.136 219.943 125.508 219.316 124.88 219.003H124.567C124.567 219.003 124.567 219.316 124.253 219.316C124.253 219.63 124.253 219.63 124.567 219.63C124.567 219.63 124.88 219.63 124.88 219.316C125.822 219.943 126.449 220.884 127.077 221.511C128.018 222.451 129.273 223.392 130.215 224.646C130.842 225.273 131.47 225.9 131.783 226.527C132.097 226.84 132.411 226.527 132.411 226.213Z" fill="#045837"/>
<path d="M146.531 271.673C145.589 271.046 144.648 270.105 143.707 269.165C142.766 268.224 141.824 267.284 140.883 266.343C138.687 264.462 136.49 262.581 134.294 260.7C133.98 260.073 133.352 259.759 133.039 259.132C132.725 258.819 132.097 258.192 131.47 258.192H131.156C131.156 258.192 131.156 258.505 130.842 258.505C130.842 258.819 131.156 258.819 131.156 258.819C131.156 258.819 131.156 258.819 131.156 258.505C132.097 258.819 132.725 259.759 133.352 260.7C134.294 261.64 135.235 262.581 136.49 263.522C137.745 264.462 138.687 265.403 139.942 266.343C140.883 267.284 141.824 268.224 142.766 269.165C143.707 270.105 144.648 271.359 145.903 271.986C146.531 272.3 146.845 271.986 146.531 271.673Z" fill="#045837"/>
<path d="M147.786 254.116C147.472 254.116 147.472 254.743 147.472 254.743C147.786 255.37 147.472 256.311 147.472 257.251C147.158 258.192 147.158 259.446 147.158 260.386C147.158 261.64 147.158 262.581 146.844 263.521C146.844 264.149 146.531 264.462 146.531 265.089C146.531 265.716 146.217 266.03 146.217 266.657C145.903 267.911 145.903 269.165 145.589 270.419C145.589 270.732 145.903 270.732 145.903 270.419C146.217 269.165 146.217 268.224 146.217 266.97C146.217 266.343 146.217 266.03 146.531 265.403C146.531 264.776 146.844 264.462 146.844 263.835C146.844 263.208 147.158 262.894 147.158 262.267C147.158 261.64 147.158 261.013 147.158 260.386C147.158 259.446 147.158 258.192 147.472 257.251C147.472 256.624 147.786 256.311 147.786 255.684C148.413 255.37 148.413 254.743 147.786 254.116C148.1 254.116 148.1 254.116 147.786 254.116Z" fill="#045837"/>
<path d="M171.946 307.1C172.26 307.413 172.26 307.727 172.573 308.04L171.946 307.1Z" fill="#045837"/>
<path d="M171.946 307.1C172.26 307.413 172.26 307.727 172.573 308.04" stroke="#245921" stroke-width="0.1028" stroke-miterlimit="10"/>
<path d="M171.004 306.159C171.318 306.473 171.632 306.786 171.946 307.1L171.004 306.159Z" fill="#045837"/>
<path d="M171.004 306.159C171.318 306.473 171.632 306.786 171.946 307.1" stroke="#245921" stroke-width="0.1028" stroke-miterlimit="10"/>
<path d="M169.122 304.592C169.75 305.219 170.377 305.532 171.005 306.159L169.122 304.592Z" fill="#045837"/>
<path d="M169.122 304.592C169.75 305.219 170.377 305.532 171.005 306.159" stroke="#245921" stroke-width="0.1028" stroke-miterlimit="10"/>
<path d="M167.239 303.338C167.867 303.651 168.494 304.278 169.122 304.905L167.239 303.338Z" fill="#045837"/>
<path d="M167.239 303.338C167.867 303.651 168.494 304.278 169.122 304.905" stroke="#245921" stroke-width="0.1028" stroke-miterlimit="10"/>
<path d="M158.454 298.322C161.278 299.889 164.101 301.457 166.925 303.338L158.454 298.322Z" fill="#045837"/>
<path d="M158.454 298.322C161.278 299.889 164.101 301.457 166.925 303.338" stroke="#245921" stroke-width="0.1028" stroke-miterlimit="10"/>
<path d="M154.061 296.127C155.63 296.754 157.199 297.694 158.454 298.322L154.061 296.127Z" fill="#045837"/>
<path d="M154.061 296.127C155.63 296.754 157.199 297.694 158.454 298.322" stroke="#245921" stroke-width="0.1028" stroke-miterlimit="10"/>
<path d="M160.336 298.635C158.767 297.695 156.885 297.067 155.316 296.127L160.336 298.635Z" fill="#045837"/>
<path d="M160.336 298.635C158.767 297.695 156.885 297.067 155.316 296.127" stroke="#245921" stroke-width="0.1028" stroke-miterlimit="10"/>
<path d="M165.043 295.813C165.671 296.127 166.298 296.754 166.926 297.381L165.043 295.813Z" fill="#045837"/>
<path d="M165.043 295.813C165.671 296.127 166.298 296.754 166.926 297.381" stroke="#245921" stroke-width="0.1028" stroke-miterlimit="10"/>
<path d="M160.964 292.992C162.219 293.932 163.474 294.873 164.729 295.813L160.964 292.992Z" fill="#045837"/>
<path d="M160.964 292.992C162.219 293.932 163.474 294.873 164.729 295.813" stroke="#245921" stroke-width="0.1028" stroke-miterlimit="10"/>
<path d="M157.199 290.484C158.454 291.424 159.709 292.365 160.964 292.992L157.199 290.484Z" fill="#045837"/>
<path d="M157.199 290.484C158.454 291.424 159.709 292.365 160.964 292.992" stroke="#245921" stroke-width="0.1028" stroke-miterlimit="10"/>
<path d="M153.434 287.976C154.689 288.603 155.944 289.543 157.513 290.484L153.434 287.976Z" fill="#045837"/>
<path d="M153.434 287.976C154.689 288.603 155.944 289.543 157.513 290.484" stroke="#245921" stroke-width="0.1028" stroke-miterlimit="10"/>
<path d="M157.826 290.17C156.571 289.23 155.316 288.603 154.061 287.662L157.826 290.17Z" fill="#045837"/>
<path d="M157.826 290.17C156.571 289.23 155.316 288.603 154.061 287.662" stroke="#245921" stroke-width="0.1028" stroke-miterlimit="10"/>
<path d="M167.24 297.067C166.612 296.44 165.984 296.127 165.357 295.5L167.24 297.067Z" fill="#045837"/>
<path d="M167.24 297.067C166.612 296.44 165.984 296.127 165.357 295.5" stroke="#245921" stroke-width="0.1028" stroke-miterlimit="10"/>
<path d="M165.357 292.992C165.984 293.619 166.612 293.932 167.24 294.246L165.357 292.992Z" fill="#045837"/>
<path d="M165.357 292.992C165.984 293.619 166.612 293.932 167.24 294.246" stroke="#245921" stroke-width="0.1028" stroke-miterlimit="10"/>
<path d="M163.788 291.738C164.416 292.051 165.043 292.678 165.671 293.305L163.788 291.738Z" fill="#045837"/>
<path d="M163.788 291.738C164.416 292.051 165.043 292.678 165.671 293.305" stroke="#245921" stroke-width="0.1028" stroke-miterlimit="10"/>
<path d="M155.944 286.408C158.768 287.976 161.278 289.857 163.788 291.738L155.944 286.408Z" fill="#045837"/>
<path d="M155.944 286.408C158.768 287.976 161.278 289.857 163.788 291.738" stroke="#245921" stroke-width="0.1028" stroke-miterlimit="10"/>
<path d="M160.65 288.603C159.395 287.662 158.14 286.721 156.571 286.094L160.65 288.603Z" fill="#045837"/>
<path d="M160.65 288.603C159.395 287.662 158.14 286.721 156.571 286.094" stroke="#245921" stroke-width="0.1028" stroke-miterlimit="10"/>
<path d="M164.416 291.424C163.161 290.484 161.905 289.543 160.65 288.603L164.416 291.424Z" fill="#045837"/>
<path d="M164.416 291.424C163.161 290.484 161.905 289.543 160.65 288.603" stroke="#245921" stroke-width="0.1028" stroke-miterlimit="10"/>
</svg>
