<svg width="160" height="323" viewBox="0 0 160 323" fill="none" xmlns="http://www.w3.org/2000/svg">
<path d="M35.463 320.5C33.798 283.333 34.797 246 38.2934 208.833C39.1258 199.667 40.1248 190.167 37.1279 181.5C33.798 172 26.1394 164.667 19.8126 156.833C7.65861 141.667 0.499403 121.333 5.99368 102.667C7.65861 96.8333 10.6555 91.5 12.1539 85.5C13.6524 79.5 13.9854 73 10.489 68C8.99056 65.8333 6.65965 64 4.99472 61.8333C1.83135 58.1667 0.166417 53.1667 1.16538 48.3333C2.16434 43.5 6.16017 39.5 10.9885 39C19.3131 38.3333 24.3079 47.3333 29.4692 54C36.9614 63.6667 48.1165 69.6667 59.438 73.6667C70.926 77.6667 82.9136 80 94.4016 83.5C100.562 85.5 106.889 87.8333 111.384 92.5C114.88 96 117.211 100.667 118.71 105.333C124.537 123.667 119.376 145.167 105.557 158.833C96.899 167.333 85.4109 173 78.4182 183C74.2559 189 72.258 196 70.5931 203C61.9354 237.833 60.2705 274.5 65.5983 310C65.9313 312.667 66.4307 315.667 65.0988 318C62.9344 321.667 57.9396 322 53.7772 322C47.7835 322 41.7897 321.833 35.796 321.833C35.463 318.833 35.2965 315.667 35.463 320.5Z" fill="#24492B" stroke="#24492B" stroke-miterlimit="10"/>
<g opacity="0.73">
<path d="M39.6253 64.3333C41.2902 58.6667 41.6232 52.5 40.2913 46.5C39.1258 41 36.4619 35.5 37.2944 29.8333C38.4598 22.5 45.1196 17.3333 51.4463 13.6667C66.0977 5.5 82.747 0.999998 99.5628 0.666665C104.391 0.499998 109.386 0.833331 113.548 3.16666C121.373 7.5 124.204 17.3333 127.867 25.5C134.859 40.6667 147.346 52.6667 154.006 67.8333C164.329 91.5 158.335 120.833 141.686 140.667C127.034 158 105.723 168.333 87.4088 181.667C79.0842 187.667 70.7595 195.5 70.0935 205.833" fill="#24492B"/>
<path d="M39.6253 64.3333C41.2902 58.6667 41.6232 52.5 40.2913 46.5C39.1258 41 36.4619 35.5 37.2944 29.8333C38.4598 22.5 45.1196 17.3333 51.4463 13.6667C66.0977 5.5 82.747 0.999998 99.5628 0.666665C104.391 0.499998 109.386 0.833331 113.548 3.16666C121.373 7.5 124.204 17.3333 127.867 25.5C134.859 40.6667 147.346 52.6667 154.006 67.8333C164.329 91.5 158.335 120.833 141.686 140.667C127.034 158 105.723 168.333 87.4088 181.667C79.0842 187.667 70.7595 195.5 70.0935 205.833" stroke="#24492B" stroke-miterlimit="10"/>
</g>
<path d="M38.2933 175.167C36.9614 167 33.2985 159.333 27.6378 153.167C25.1404 150.5 22.4765 148.333 20.312 145.5C17.8147 142.333 16.1497 138.667 14.9843 134.833C11.3214 124.167 9.98947 112.833 11.1549 101.667" stroke="#8FB497" stroke-miterlimit="10"/>
<path d="M40.4576 160.667C41.2901 142.833 21.8104 128.5 23.6418 110.667C24.1413 105.667 26.4722 100.667 25.9727 95.6667" stroke="#8FB497" stroke-miterlimit="10"/>
<path d="M42.7888 138.833C44.2873 114 34.4642 88.8333 16.4829 71.6667" stroke="#8FB497" stroke-miterlimit="10"/>
<path d="M47.7835 171.333C50.7804 155.833 52.7783 140 51.1134 124.333C49.4484 108.667 43.7876 93.1667 33.1321 81.6667" stroke="#8FB497" stroke-miterlimit="10"/>
<path d="M50.9468 188.667C60.1039 168.167 63.2673 145.167 60.1039 122.833C58.9384 115.333 57.107 107.667 53.7772 100.833C43.7876 80.3333 21.9769 68.5 1.33179 58.6667" stroke="#8FB497" stroke-miterlimit="10"/>
<path d="M59.9375 191C64.4328 169.667 73.257 149 72.924 127.333C72.591 114.333 68.9281 101.5 65.2653 89" stroke="#8FB497" stroke-miterlimit="10"/>
<path d="M73.9231 154.167C84.0792 138.667 90.7389 121 93.2363 102.667" stroke="#8FB497" stroke-miterlimit="10"/>
<path d="M64.4329 195C75.4214 167.333 92.4037 142.167 113.715 121.5" stroke="#8FB497" stroke-miterlimit="10"/>
<path d="M52.7784 68.3333C45.6192 55.1667 41.9564 40.1667 42.1229 25.3333" stroke="#8FB497" stroke-miterlimit="10"/>
<path d="M75.7543 11C63.9333 29.1667 60.1039 52.3333 65.2652 73.3333" stroke="#8FB497" stroke-miterlimit="10"/>
<path d="M82.9136 74.6667C88.7408 67.1667 89.9063 57.1667 93.0697 48.1667C95.4006 41.6667 98.7304 35.6667 100.062 28.8333C101.394 22.1667 99.8959 14.1667 94.2351 10.3333" stroke="#8FB497" stroke-miterlimit="10"/>
<path d="M105.723 84.3333C111.883 75 117.211 64.6667 119.542 53.6667C121.873 42.6667 121.374 30.8333 116.545 20.5" stroke="#8FB497" stroke-miterlimit="10"/>
<path d="M122.705 96C130.031 88.1666 134.693 77.5 135.192 66.8333" stroke="#8FB497" stroke-miterlimit="10"/>
<path d="M136.191 59.8333C136.857 53.1667 136.358 46.3333 134.859 39.8333" stroke="#8FB497" stroke-miterlimit="10"/>
<path d="M124.204 112C138.023 105 147.679 90.1667 148.512 74.6667" stroke="#8FB497" stroke-miterlimit="10"/>
<path d="M125.702 143.167C131.863 136.167 138.023 129.167 142.851 121.167C147.513 113.167 150.676 104 150.343 94.6667" stroke="#8FB497" stroke-miterlimit="10"/>
</svg>
