<svg width="73" height="198" viewBox="0 0 73 198" fill="none" xmlns="http://www.w3.org/2000/svg">
<path d="M53.268 57.8536C53.1183 56.3296 52.4448 54.969 52.3631 53.4314C52.2815 51.8938 52.5196 50.5399 52.3631 49.0976C52.2333 48.4031 52.0467 47.7205 51.8053 47.0565C51.6498 46.2743 51.5656 45.4796 51.5535 44.6821C51.227 41.4981 49.9819 38.4366 49.1859 35.3818C48.3899 32.3271 47.6756 29.0682 46.4305 26.1903C45.8794 24.9113 45.2059 23.7207 44.6616 22.4416C44.2338 21.2249 43.6604 20.0645 42.954 18.9855C42.2736 18.1214 41.2667 17.754 40.5183 16.9853C40.2258 16.6791 39.7835 17.1826 40.0761 17.4819C40.8381 18.2643 41.9062 18.6453 42.5594 19.523C42.8915 20.0761 43.176 20.6565 43.4098 21.2578C43.7296 21.9382 44.0901 22.6185 44.3351 23.3329C44.8657 24.6936 45.6958 25.891 46.172 27.2925C46.6482 28.694 47.1721 30.32 47.6007 31.8576C48.0293 33.3952 48.4443 35.0961 48.8798 36.7153C49.3152 38.3345 49.7982 39.77 50.2064 41.3144C50.4106 42.09 50.5943 42.8656 50.7439 43.6548C50.8936 44.444 50.914 45.3625 51.0024 46.2401C51.0928 46.8659 51.2526 47.4798 51.4787 48.0702C51.7151 48.8457 51.8231 49.6547 51.7985 50.4651C51.7985 51.955 51.608 53.4518 51.9617 54.9145C52.1318 55.5949 52.404 56.2752 52.54 56.9556C52.6832 57.8192 52.7582 58.6927 52.7646 59.5681C52.8598 62.7113 52.5605 65.8545 52.5945 68.9977C52.6285 72.3382 52.7577 75.597 52.1794 78.8899C51.9027 80.3612 51.7683 81.8558 51.778 83.353C51.8859 85.0703 51.8404 86.7939 51.642 88.5032C51.3902 90.0067 51.0637 91.4627 50.8732 92.9799C50.6623 94.6195 50.3833 96.2455 50.05 97.8579C49.3553 100.942 48.5061 103.989 47.5055 106.988C47.06 108.432 46.7033 109.902 46.4373 111.39C46.0895 112.852 45.5711 114.267 44.893 115.608C44.3079 116.969 44.0357 118.472 43.471 119.847C42.8655 121.323 42.1716 122.786 41.4844 124.215C40.8993 125.432 40.0829 126.48 39.5318 127.718C39.0559 128.973 38.5038 130.198 37.8786 131.385C37.0869 132.553 36.3645 133.766 35.7151 135.018C35.0824 136.379 34.4088 137.74 33.674 139.1C32.3134 141.693 30.6873 144.074 29.8165 146.972C29.3947 148.374 29.1362 149.816 28.762 151.251C28.3878 152.687 27.8639 154.163 27.4013 155.599C26.4718 158.397 25.8936 161.299 25.68 164.239C25.401 167.587 25.0541 170.893 24.9996 174.261C24.9248 177.424 24.7887 180.663 24.9996 183.786C25.1085 185.412 25.5643 186.963 25.68 188.548C25.7956 190.133 25.8705 191.555 26.1086 193.072C26.3467 194.589 26.6529 196.202 26.9999 197.746C27.1019 198.188 27.6802 198.005 27.5986 197.563C27.2448 195.964 26.9182 194.345 26.6869 192.718C26.4556 191.092 26.442 189.555 26.2515 187.956C26.061 186.357 25.6596 184.752 25.5711 183.078C25.4827 181.404 25.5711 179.819 25.5711 178.186C25.5711 174.88 25.6528 171.587 25.9045 168.294C26.0709 165.064 26.4894 161.852 27.1563 158.688C27.5328 157.173 27.987 155.679 28.517 154.211C29.0024 152.755 29.4089 151.275 29.7349 149.775C30.0429 148.326 30.4544 146.9 30.9663 145.509C31.5749 144.12 32.282 142.777 33.0821 141.488C33.8713 140.08 34.6401 138.645 35.3681 137.189C35.9569 135.824 36.6389 134.501 37.4092 133.229C38.1693 132.178 38.8191 131.052 39.3481 129.868C39.8408 128.582 40.4322 127.335 41.117 126.14C41.8401 124.857 42.4964 123.538 43.0832 122.187C43.7254 120.872 44.26 119.507 44.682 118.105C45.1243 116.588 45.7842 115.241 46.3557 113.785C46.8008 112.419 47.1464 111.023 47.3898 109.608C48.111 106.573 49.2608 103.695 50.016 100.675C50.4174 99.0758 50.7575 97.4565 51.0433 95.8305C51.329 94.2045 51.4515 92.6057 51.7236 91.0205C52.0557 89.6173 52.2831 88.1915 52.404 86.7547C52.472 85.0946 52.2951 83.4346 52.404 81.7746C52.5128 80.1145 52.9346 78.4205 53.1319 76.7332C53.2692 75.1747 53.3078 73.609 53.2476 72.0456C53.2136 68.8616 53.2476 65.7048 53.3565 62.5208C53.422 60.9647 53.3924 59.4061 53.268 57.8536Z" fill="#B8AD4A"/>
<path d="M26.0677 184.806C23.5913 184.126 21.4414 182.445 19.3527 180.799L1.80661 166.961C1.11353 166.502 0.551026 165.871 0.17378 165.131C-0.159589 164.341 -0.0235124 163.226 0.67044 162.831C1.1011 162.644 1.58543 162.622 2.03113 162.77C12.4268 164.974 21.6183 173.315 26.0677 184.806Z" fill="#B8AD4A"/>
<path d="M25.6597 183.867C30.4969 184.84 35.3614 185.813 40.2735 185.793C42.0356 185.793 43.9133 185.595 45.2945 184.364C46.6756 183.132 47.1994 180.513 45.9136 179.159C45.128 178.476 44.1093 178.123 43.0697 178.173C36.7425 177.805 30.3336 179.479 25.6597 183.867Z" fill="#B8AD4A"/>
<path d="M25.1153 175.73C16.7811 168.002 8.16113 159.865 3.71167 148.748C8.97672 151.487 13.6046 155.306 17.2928 159.955C20.981 164.605 23.6466 169.98 25.1153 175.73Z" fill="#B8AD4A"/>
<path d="M26.0677 175.07C31.3875 176.051 36.8407 176.063 42.1646 175.104C43.4548 174.964 44.6837 174.48 45.7229 173.703C46.2629 173.252 46.6589 172.653 46.8621 171.979C47.0652 171.306 47.0665 170.588 46.8658 169.913C46.1515 168.029 43.8655 167.872 42.0626 168.104C38.5293 168.521 35.0165 169.104 31.524 169.852C28.9319 170.41 25.8704 171.56 26.0677 175.07Z" fill="#B8AD4A"/>
<path d="M25.6527 164.103C20.492 159.144 15.6881 153.826 11.277 148.19C9.61016 146.067 7.94332 143.774 7.37183 141.005C9.25638 140.284 11.1886 141.781 12.7397 143.183C15.8625 146.02 18.9989 148.884 21.5842 152.367C24.1695 155.851 26.0813 160.035 25.6527 164.103Z" fill="#B8AD4A"/>
<path d="M26.4761 164.729C32.7353 165.768 39.0194 166.593 45.3285 167.206C46.6211 167.335 48.2063 167.28 48.8254 165.988C49.0369 165.415 49.057 164.789 48.8829 164.204C48.7087 163.619 48.3496 163.106 47.8593 162.742C46.9076 162.137 45.8096 161.801 44.6821 161.77L30.2588 160.157C29.3465 159.965 28.3973 160.055 27.5374 160.416C26.6802 160.838 26.0951 162.089 26.4761 164.729Z" fill="#B8AD4A"/>
<path d="M27.1087 156.708C22.8225 149.836 18.8629 142.718 15.2299 135.352C14.291 133.454 13.3589 131.208 14.0733 129.195C15.6449 128.575 17.162 130.168 18.1553 131.651C23.2239 138.985 26.6733 147.652 27.1087 156.708Z" fill="#B8AD4A"/>
<path d="M27.6597 156.755L42.7021 158.667C45.5187 159.028 48.4919 159.348 51.0636 158.028C51.5874 157.756 52.1589 157.273 52.1045 156.626C52.0433 155.871 51.2337 155.565 50.5737 155.442C42.7157 154.034 34.6468 153.959 27.6597 156.755Z" fill="#B8AD4A"/>
<path d="M29.1973 150.721C27.0202 141.396 24.9792 132.027 23.0742 122.616C24.9724 122.248 26.8433 123.616 27.9795 125.385C30.0205 128.521 30.177 132.658 30.2927 136.536C30.4424 141.659 30.5852 146.782 29.1973 150.721Z" fill="#B8AD4A"/>
<path d="M30.7416 151.741L52.3562 152.633C53.7509 152.687 55.4178 152.592 56.1389 151.238C56.8601 149.884 56.1389 148.149 55.03 147.319C53.921 146.489 52.4991 146.373 51.1656 146.299C46.8386 146.058 42.5116 146.033 38.1846 146.224C36.5829 146.2 34.9916 146.484 33.497 147.061C32.0207 147.727 30.7076 149.068 30.7416 151.741Z" fill="#B8AD4A"/>
<path d="M30.5854 151.136C32.8782 146.598 33.2592 141.128 32.8918 135.923C32.5244 130.719 31.4767 125.596 31.1093 120.384C30.9514 119.138 31.0463 117.872 31.3883 116.663C31.7965 115.493 32.7489 114.486 33.8715 114.513C35.6744 114.554 36.5929 116.989 36.8718 119.003C37.8787 125.773 37.1576 132.855 30.5854 151.136Z" fill="#B8AD4A"/>
<path d="M35.2591 138.325C39.1643 139.175 43.1035 140.033 47.0767 139.862C51.0499 139.692 55.1048 138.4 58.0847 135.42C58.4741 135.078 58.7653 134.639 58.9284 134.148C59.2481 132.943 58.248 131.787 57.2751 131.242C55.4654 130.242 53.3835 130.195 51.3697 130.215C47.934 130.256 44.4234 130.446 41.2257 131.862C38.0281 133.277 35.1367 136.121 35.2591 138.325Z" fill="#B8AD4A"/>
<path d="M41.7156 125.562C47.1219 126.386 52.6405 126.078 57.9214 124.657C60.0169 124.099 62.5342 122.616 62.2892 120.214C62.0647 117.942 59.5679 117.037 57.5268 116.976C51.118 116.785 44.7091 119.969 41.7156 125.562Z" fill="#B8AD4A"/>
<path d="M42.8452 122.888C42.7363 113.363 39.0829 103.995 32.9666 97.4906C32.3679 96.8579 31.5106 96.2115 30.7963 96.6605C29.9322 97.2116 30.2248 98.7016 30.6262 99.7017C34.1436 108.614 37.661 117.527 42.8452 122.888Z" fill="#B8AD4A"/>
<path d="M47.1174 111.703C54.3767 114.771 63.1464 112.547 68.5551 106.26C60.7856 103.008 51.5397 104.838 47.1174 111.703Z" fill="#B8AD4A"/>
<path d="M47.1723 112.07C47.6386 107.413 47.4093 102.713 46.4919 98.1233C45.4782 93.5921 43.4031 89.2787 40.1919 86.3124C38.7972 85.0266 36.518 84.1285 35.375 85.7069C34.4838 86.952 35.0145 88.7889 35.5996 90.238C38.6924 97.8958 42.5707 105.212 47.1723 112.07Z" fill="#B8AD4A"/>
<path d="M50.2539 98.6947C56.0993 100.711 62.2179 101.823 68.3987 101.994C69.9431 102.035 71.9909 101.532 72.0862 99.7833C72.069 99.2947 71.9368 98.8171 71.7004 98.3891C71.464 97.9612 71.13 97.5951 70.7255 97.3204C67.8885 95.0413 64.1602 94.8032 60.6836 95.1025C56.8941 95.4223 53.159 96.2659 50.2539 98.6947Z" fill="#B8AD4A"/>
<path d="M50.4922 92.2655C50.9004 84.353 48.2266 76.291 43.3214 70.6305C43.0264 70.227 42.6229 69.9156 42.158 69.7324C41.7596 69.6789 41.355 69.7649 41.0127 69.9757C40.6705 70.1865 40.4117 70.5092 40.2802 70.889C39.9748 71.7052 39.8881 72.587 40.0285 73.4471C40.321 76.2909 41.4504 78.9239 42.5866 81.482C45.1243 87.1969 47.764 92.8574 50.4922 92.2655Z" fill="#B8AD4A"/>
<path d="M53.1592 80.1825C57.5101 82.5303 62.5803 83.1707 67.3784 81.9786C68.938 81.6933 70.3525 80.8816 71.3856 79.679C72.3721 78.366 72.5762 76.1685 71.4605 74.9915C70.7114 74.3278 69.7397 73.9707 68.7391 73.9914C62.9153 73.5764 57.0235 75.3725 53.1592 80.1825Z" fill="#B8AD4A"/>
<path d="M51.9955 79.1484C52.6759 74.8826 53.1997 70.406 52.0431 66.2695C50.6484 61.3098 46.7841 57.3433 42.287 56.2548C41.6066 62.099 44.5525 67.6234 47.4576 72.515C49.0224 75.148 50.6008 77.7673 51.9955 79.1484Z" fill="#B8AD4A"/>
<path d="M53.1592 58.0169C55.4116 59.0886 57.9199 59.5058 60.398 59.2207C62.8761 58.9356 65.2241 57.9597 67.1743 56.4045C68.3693 55.5606 69.2556 54.3493 69.6984 52.9551C70.0862 51.4992 69.5963 49.6622 68.3377 49.0771C67.8791 48.9208 67.3924 48.8641 66.9102 48.911C66.4279 48.958 65.9613 49.1074 65.5415 49.3493C60.6974 51.5264 57.1596 56.8127 53.1592 58.0169Z" fill="#B8AD4A"/>
<path d="M52.5128 57.7379C51.8324 51.3563 47.9136 45.553 42.6614 43.1309C41.9551 42.7262 41.1302 42.5795 40.3278 42.7159C39.9139 42.8329 39.5554 43.094 39.3171 43.452C39.0788 43.8101 38.9764 44.2415 39.0283 44.6685C39.1607 45.1439 39.4166 45.5758 39.7699 45.9203L42.3756 48.9003C45.961 53.0027 49.7574 57.2481 52.5128 57.7379Z" fill="#B8AD4A"/>
<path d="M51.6624 46.4374C56.1654 43.7834 59.5868 39.6248 61.3233 34.6947C61.9016 33.1027 62.0512 30.7623 60.6429 30.1568C59.8673 29.8302 59.0033 30.2588 58.3229 30.7895C54.2749 33.9599 53.4381 40.2259 51.6624 46.4374Z" fill="#B8AD4A"/>
<path d="M52.0161 46.6211C48.6756 38.6815 42.1035 32.572 34.5789 30.4085C35.7491 34.5382 39.1031 37.2936 42.2668 39.736C45.3664 42.2365 48.6229 44.5363 52.0161 46.6211Z" fill="#B8AD4A"/>
<path d="M48.628 31.2861C53.0707 26.5237 55.6152 19.5638 55.4315 12.6379C54.9144 11.9575 53.9551 12.597 53.3904 13.257C49.7574 17.8493 47.7164 24.1561 48.628 31.2861Z" fill="#B8AD4A"/>
<path d="M47.9274 31.3133C46.2741 25.2242 41.8042 20.2033 36.4295 18.3867C35.5444 18.0094 34.5604 17.9306 33.6265 18.1622C33.1393 18.3299 32.7207 18.6532 32.4355 19.0823C32.1502 19.5114 32.0141 20.0225 32.0481 20.5366C32.1852 21.2104 32.5191 21.8283 33.0074 22.3123C37.4296 27.4285 43.5391 30.6534 47.9274 31.3133Z" fill="#B8AD4A"/>
<path d="M44.6822 19.9584C47.0566 14.4135 49.4446 8.59659 49.3017 2.43947C49.3017 1.50739 49.0636 0.39843 48.2812 0.0786679C47.4988 -0.241094 46.764 0.47328 46.2401 1.15363C42.0016 6.59639 41.1512 15.1007 44.6822 19.9584Z" fill="#B8AD4A"/>
</svg>
