<svg width="152" height="417" viewBox="0 0 152 417" fill="none" xmlns="http://www.w3.org/2000/svg">
<path d="M112.12 121.772C111.805 118.564 110.387 115.7 110.216 112.464C110.044 109.228 110.545 106.378 110.216 103.342C109.942 101.88 109.549 100.444 109.041 99.0461C108.714 97.3996 108.537 95.7268 108.511 94.0483C107.824 87.3465 105.203 80.9025 103.528 74.4727C101.853 68.043 100.349 61.1836 97.7284 55.1262C96.5684 52.434 95.1508 49.928 94.0052 47.2358C93.1047 44.6749 91.8978 42.2323 90.4108 39.9612C88.9788 38.1426 86.8594 37.3693 85.2842 35.7511C84.6684 35.1067 83.7376 36.1664 84.3534 36.7965C85.9572 38.4433 88.2055 39.2452 89.5803 41.0925C90.2792 42.2569 90.878 43.4784 91.3703 44.7441C92.0433 46.1761 92.8023 47.6082 93.3178 49.1118C94.4348 51.9758 96.1818 54.4961 97.1842 57.4461C98.1866 60.396 99.2893 63.8186 100.191 67.0549C101.094 70.2913 101.967 73.8713 102.884 77.2795C103.8 80.6877 104.817 83.7092 105.676 86.9599C106.106 88.5924 106.492 90.2249 106.807 91.886C107.122 93.5471 107.165 95.4803 107.351 97.3276C107.542 98.6449 107.878 99.9369 108.354 101.18C108.852 102.812 109.079 104.515 109.027 106.22C109.027 109.357 108.626 112.507 109.371 115.586C109.729 117.018 110.301 118.45 110.588 119.882C110.889 121.7 111.047 123.538 111.06 125.381C111.261 131.997 110.631 138.613 110.702 145.228C110.774 152.26 111.046 159.119 109.829 166.05C109.246 169.147 108.963 172.293 108.984 175.444C109.211 179.059 109.115 182.687 108.698 186.284C108.168 189.449 107.48 192.514 107.079 195.707C106.636 199.158 106.048 202.581 105.347 205.974C103.885 212.466 102.097 218.88 99.991 225.192C99.0533 228.232 98.3025 231.326 97.7427 234.457C97.0105 237.534 95.9195 240.514 94.492 243.336C93.2605 246.2 92.6877 249.364 91.4991 252.257C90.2247 255.365 88.764 258.443 87.3176 261.451C86.0861 264.014 84.3677 266.219 83.2078 268.825C82.2061 271.467 81.044 274.044 79.728 276.544C78.0616 279.002 76.541 281.555 75.1742 284.191C73.8424 287.055 72.4247 289.919 70.8781 292.783C68.0141 298.239 64.5916 303.251 62.7586 309.351C61.8708 312.301 61.3266 315.337 60.539 318.359C59.7514 321.38 58.6488 324.488 57.675 327.509C55.7186 333.398 54.5016 339.507 54.052 345.696C53.4649 352.741 52.7345 359.701 52.62 366.789C52.4624 373.448 52.176 380.265 52.62 386.838C52.8491 390.26 53.8085 393.525 54.052 396.862C54.2954 400.198 54.453 403.191 54.9542 406.385C55.4554 409.578 56.0998 412.972 56.8301 416.223C57.0449 417.153 58.2621 416.767 58.0903 415.836C57.3456 412.471 56.6583 409.062 56.1714 405.64C55.6845 402.217 55.6559 398.981 55.2549 395.616C54.8539 392.251 54.0091 388.871 53.8229 385.348C53.6367 381.826 53.8229 378.489 53.8229 375.052C53.8229 368.093 53.9947 361.162 54.5246 354.231C54.8747 347.432 55.7557 340.672 57.1595 334.011C57.9518 330.823 58.9078 327.678 60.0235 324.588C61.0451 321.524 61.9008 318.407 62.5868 315.251C63.2351 312.2 64.1013 309.2 65.1787 306.273C66.4598 303.349 67.9481 300.521 69.6323 297.809C71.2934 294.845 72.9116 291.824 74.4439 288.759C75.6832 285.886 77.1186 283.101 78.7399 280.425C80.3399 278.213 81.7076 275.843 82.8212 273.351C83.8582 270.643 85.103 268.019 86.5443 265.503C88.0662 262.803 89.4476 260.026 90.6829 257.183C92.0344 254.415 93.1599 251.541 94.0481 248.591C94.9789 245.398 96.368 242.562 97.5709 239.498C98.5078 236.623 99.2352 233.685 99.7475 230.705C101.265 224.319 103.686 218.261 105.275 211.903C106.12 208.538 106.836 205.13 107.437 201.707C108.039 198.285 108.297 194.919 108.869 191.583C109.568 188.629 110.047 185.628 110.301 182.604C110.445 179.11 110.072 175.616 110.301 172.122C110.531 168.628 111.418 165.062 111.834 161.51C112.123 158.23 112.204 154.935 112.077 151.644C112.006 144.942 112.077 138.298 112.306 131.596C112.444 128.32 112.382 125.04 112.12 121.772Z" fill="#045837"/>
<path d="M54.8682 388.986C49.6556 387.554 45.1305 384.017 40.7342 380.551L3.8026 351.424C2.3438 350.458 1.15982 349.131 0.365778 347.572C-0.335908 345.911 -0.0494896 343.562 1.41116 342.732C2.31764 342.339 3.33707 342.293 4.27519 342.603C26.1563 347.243 45.5028 364.799 54.8682 388.986Z" fill="#045837"/>
<path d="M54.009 387.009C64.1906 389.057 74.4295 391.105 84.7687 391.062C88.4776 391.062 92.43 390.647 95.3369 388.055C98.2439 385.463 99.3466 379.95 96.6401 377.1C94.9866 375.663 92.8425 374.919 90.6543 375.023C77.3366 374.25 63.847 377.773 54.009 387.009Z" fill="#045837"/>
<path d="M52.8636 369.883C35.3215 353.615 17.1779 336.488 7.8125 313.089C18.8945 318.854 28.6354 326.892 36.3985 336.678C44.1616 346.465 49.7722 357.78 52.8636 369.883Z" fill="#045837"/>
<path d="M54.8682 368.494C66.0655 370.558 77.5437 370.582 88.7496 368.565C91.4652 368.27 94.0518 367.251 96.2391 365.615C97.3757 364.666 98.2094 363.405 98.6369 361.988C99.0645 360.57 99.0672 359.058 98.6448 357.639C97.1412 353.672 92.3297 353.343 88.5348 353.83C81.0979 354.708 73.704 355.935 66.353 357.51C60.897 358.684 54.4529 361.104 54.8682 368.494Z" fill="#045837"/>
<path d="M53.9945 345.409C43.1321 334.971 33.0208 323.778 23.7361 311.915C20.2277 307.447 16.7192 302.621 15.5164 296.793C19.483 295.275 23.5499 298.425 26.8149 301.375C33.3879 307.347 39.9894 313.375 45.4311 320.707C50.8727 328.039 54.8967 336.846 53.9945 345.409Z" fill="#045837"/>
<path d="M55.7276 346.727C68.9021 348.913 82.1291 350.651 95.4086 351.939C98.1294 352.212 101.466 352.097 102.769 349.376C103.214 348.171 103.257 346.854 102.89 345.622C102.523 344.391 101.768 343.311 100.736 342.545C98.7323 341.272 96.4214 340.564 94.0482 340.498L63.6896 337.104C61.7692 336.7 59.7713 336.889 57.9615 337.648C56.1572 338.536 54.9256 341.171 55.7276 346.727Z" fill="#045837"/>
<path d="M57.0591 329.843C48.0374 315.38 39.7031 300.397 32.0562 284.893C30.08 280.897 28.1181 276.172 29.6218 271.933C32.9297 270.63 36.1231 273.981 38.2138 277.102C48.8823 292.54 56.1426 310.783 57.0591 329.843Z" fill="#045837"/>
<path d="M58.219 329.944L89.8808 333.968C95.8093 334.727 102.067 335.4 107.48 332.622C108.583 332.049 109.786 331.032 109.671 329.672C109.542 328.082 107.838 327.438 106.449 327.18C89.9095 324.216 72.9258 324.058 58.219 329.944Z" fill="#045837"/>
<path d="M61.4555 317.242C56.8731 297.614 52.577 277.895 48.5674 258.085C52.5627 257.312 56.5007 260.191 58.8922 263.914C63.1882 270.515 63.5176 279.222 63.7611 287.384C64.0761 298.167 64.3768 308.951 61.4555 317.242Z" fill="#045837"/>
<path d="M64.706 319.39L110.201 321.266C113.137 321.38 116.645 321.18 118.163 318.33C119.681 315.48 118.163 311.829 115.829 310.082C113.495 308.335 110.502 308.091 107.695 307.934C98.5874 307.428 89.4798 307.375 80.3722 307.776C77.0009 307.726 73.6514 308.324 70.5056 309.538C67.3982 310.941 64.6344 313.762 64.706 319.39Z" fill="#045837"/>
<path d="M64.377 318.115C69.2028 308.564 70.0047 297.05 69.2315 286.096C68.4582 275.141 66.2529 264.358 65.4796 253.388C65.1472 250.764 65.3469 248.1 66.0667 245.555C66.9259 243.092 68.9307 240.973 71.2936 241.03C75.0884 241.116 77.0216 246.243 77.6087 250.481C79.7281 264.73 78.2102 279.637 64.377 318.115Z" fill="#045837"/>
<path d="M74.2147 291.151C82.4344 292.941 90.7258 294.745 99.0887 294.387C107.452 294.029 115.986 291.308 122.259 285.036C123.078 284.317 123.691 283.393 124.034 282.358C124.707 279.823 122.602 277.389 120.555 276.243C116.745 274.138 112.363 274.038 108.125 274.081C100.893 274.167 93.5039 274.568 86.7734 277.546C80.043 280.525 73.9569 286.511 74.2147 291.151Z" fill="#045837"/>
<path d="M87.8044 264.286C99.1838 266.022 110.8 265.373 121.915 262.381C126.326 261.207 131.624 258.085 131.109 253.03C130.636 248.247 125.38 246.343 121.084 246.214C107.595 245.813 94.1053 252.515 87.8044 264.286Z" fill="#045837"/>
<path d="M90.1817 258.658C89.9526 238.61 82.2627 218.891 69.3889 205.201C68.1287 203.869 66.3244 202.509 64.8208 203.454C63.0021 204.614 63.6179 207.75 64.4628 209.855C71.8663 228.615 79.2698 247.374 90.1817 258.658Z" fill="#045837"/>
<path d="M99.1743 235.116C114.454 241.574 132.913 236.892 144.297 223.66C127.943 216.815 108.482 220.667 99.1743 235.116Z" fill="#045837"/>
<path d="M99.2895 235.889C100.271 226.087 99.7884 216.193 97.8575 206.533C95.7238 196.996 91.3561 187.917 84.597 181.673C81.6614 178.967 76.8641 177.076 74.4583 180.399C72.5824 183.019 73.6994 186.886 74.9309 189.936C81.4409 206.054 89.6041 221.454 99.2895 235.889Z" fill="#045837"/>
<path d="M105.776 207.736C118.08 211.979 130.958 214.321 143.968 214.681C147.219 214.767 151.529 213.707 151.729 210.027C151.693 208.999 151.415 207.993 150.917 207.093C150.42 206.192 149.717 205.421 148.865 204.843C142.894 200.046 135.046 199.545 127.729 200.175C119.753 200.848 111.891 202.624 105.776 207.736Z" fill="#045837"/>
<path d="M106.277 194.203C107.137 177.549 101.509 160.58 91.184 148.665C90.5631 147.816 89.7139 147.161 88.7352 146.775C87.8967 146.662 87.045 146.843 86.3247 147.287C85.6043 147.731 85.0596 148.41 84.7829 149.209C84.1401 150.927 83.9575 152.783 84.253 154.594C84.8688 160.58 87.2459 166.121 89.6374 171.506C94.9788 183.535 100.535 195.449 106.277 194.203Z" fill="#045837"/>
<path d="M111.891 168.771C121.049 173.712 131.721 175.06 141.82 172.551C145.103 171.951 148.08 170.242 150.255 167.711C152.331 164.947 152.761 160.322 150.412 157.844C148.835 156.448 146.79 155.696 144.684 155.739C132.426 154.866 120.025 158.646 111.891 168.771Z" fill="#045837"/>
<path d="M109.442 166.594C110.874 157.615 111.977 148.193 109.542 139.486C106.607 129.047 98.4728 120.698 89.0072 118.407C87.5752 130.708 93.7758 142.336 99.8905 152.632C103.184 158.174 106.506 163.687 109.442 166.594Z" fill="#045837"/>
<path d="M111.891 122.116C116.632 124.372 121.911 125.25 127.127 124.65C132.343 124.049 137.286 121.995 141.39 118.722C143.906 116.946 145.771 114.396 146.703 111.462C147.519 108.397 146.488 104.531 143.839 103.299C142.874 102.97 141.849 102.851 140.834 102.949C139.819 103.048 138.837 103.363 137.954 103.872C127.758 108.454 120.311 119.581 111.891 122.116Z" fill="#045837"/>
<path d="M110.531 121.529C109.099 108.096 100.85 95.8813 89.7951 90.7833C88.3086 89.9315 86.5723 89.6228 84.8833 89.9098C84.0121 90.156 83.2576 90.7055 82.756 91.4592C82.2544 92.2128 82.0388 93.121 82.1481 94.0197C82.4268 95.0204 82.9653 95.9294 83.709 96.6546L89.1936 102.927C96.7403 111.562 104.731 120.498 110.531 121.529Z" fill="#045837"/>
<path d="M108.74 97.743C118.219 92.1568 125.42 83.4035 129.075 73.0265C130.292 69.6756 130.607 64.7495 127.643 63.475C126.011 62.7876 124.192 63.6898 122.76 64.8067C114.239 71.4799 112.478 84.6687 108.74 97.743Z" fill="#045837"/>
<path d="M109.485 98.1295C102.454 81.418 88.6208 68.5585 72.7827 64.0047C75.2458 72.697 82.3056 78.4967 88.9644 83.6376C95.4887 88.9008 102.343 93.7413 109.485 98.1295Z" fill="#045837"/>
<path d="M102.354 65.852C111.705 55.8279 117.061 41.1785 116.674 26.6006C115.586 25.1686 113.567 26.5146 112.378 27.9037C104.731 37.5698 100.435 50.8445 102.354 65.852Z" fill="#045837"/>
<path d="M100.879 65.9092C97.399 53.0927 87.9907 42.5245 76.6778 38.701C74.8147 37.9068 72.7436 37.7409 70.7779 38.2284C69.7523 38.5813 68.8714 39.2618 68.2709 40.165C67.6705 41.0682 67.384 42.1439 67.4556 43.2261C67.7443 44.6442 68.4469 45.9449 69.4747 46.9637C78.7828 57.7325 91.6423 64.5202 100.879 65.9092Z" fill="#045837"/>
<path d="M94.0482 42.009C99.046 30.3381 104.072 18.0944 103.772 5.13467C103.772 3.17281 103.27 0.838629 101.624 0.165583C99.9767 -0.507463 98.4302 0.996174 97.3275 2.42819C88.4061 13.8843 86.6161 31.7844 94.0482 42.009Z" fill="#045837"/>
</svg>
