<svg width="95" height="259" viewBox="0 0 95 259" fill="none" xmlns="http://www.w3.org/2000/svg">
<path d="M69.6789 75.6772C69.4831 73.6837 68.602 71.9038 68.4953 69.8925C68.3885 67.8813 68.6999 66.1103 68.4953 64.2236C68.3254 63.3152 68.0813 62.4223 67.7655 61.5537C67.5622 60.5305 67.452 59.4909 67.4362 58.4478C67.0091 54.2829 65.3805 50.2781 64.3392 46.2822C63.298 42.2864 62.3635 38.0235 60.7349 34.2591C60.0141 32.586 59.133 31.0285 58.4211 29.3554C57.8615 27.7639 57.1114 26.2459 56.1873 24.8345C55.2973 23.7043 53.9802 23.2237 53.0013 22.2181C52.6186 21.8176 52.0401 22.4762 52.4228 22.8677C53.4196 23.8912 54.8168 24.3896 55.6711 25.5376C56.1055 26.2612 56.4777 27.0204 56.7836 27.8069C57.2018 28.6969 57.6735 29.5869 57.9939 30.5213C58.688 32.3012 59.7738 33.8675 60.3968 35.7008C61.0197 37.5341 61.705 39.6611 62.2656 41.6723C62.8263 43.6836 63.3692 45.9085 63.9387 48.0265C64.5083 50.1446 65.1402 52.0224 65.6741 54.0426C65.9411 55.0571 66.1814 56.0717 66.3772 57.104C66.573 58.1363 66.5997 59.3378 66.7154 60.4858C66.8336 61.3044 67.0425 62.1073 67.3383 62.8798C67.6476 63.8942 67.7889 64.9523 67.7566 66.0124C67.7566 67.9613 67.5074 69.9192 67.9702 71.8326C68.1927 72.7226 68.5487 73.6125 68.7266 74.5025C68.9139 75.6321 69.0121 76.7748 69.0203 77.9199C69.1449 82.0314 68.7534 86.143 68.7979 90.2545C68.8424 94.6242 69.0114 98.887 68.255 103.194C67.893 105.119 67.7171 107.074 67.7299 109.032C67.871 111.279 67.8114 113.533 67.5519 115.769C67.2226 117.736 66.7955 119.641 66.5463 121.625C66.2704 123.77 65.9055 125.897 65.4694 128.006C64.5608 132.04 63.4499 136.026 62.141 139.949C61.5583 141.838 61.0917 143.761 60.7438 145.707C60.2888 147.619 59.6108 149.471 58.7237 151.225C57.9583 153.005 57.6023 154.971 56.8637 156.769C56.0716 158.7 55.1639 160.614 54.265 162.483C53.4997 164.076 52.4317 165.446 51.7109 167.066C51.0884 168.707 50.3662 170.309 49.5483 171.863C48.5127 173.39 47.5677 174.977 46.7182 176.615C45.8906 178.395 45.0096 180.175 44.0484 181.955C42.2685 185.345 40.1416 188.46 39.0024 192.251C38.4507 194.085 38.1125 195.971 37.623 197.849C37.1335 199.727 36.4483 201.658 35.8431 203.536C34.6273 207.195 33.8709 210.992 33.5915 214.838C33.2267 219.217 32.7728 223.542 32.7016 227.947C32.6037 232.085 32.4257 236.321 32.7016 240.406C32.844 242.533 33.4402 244.562 33.5915 246.636C33.7428 248.71 33.8407 250.57 34.1522 252.554C34.4637 254.539 34.8642 256.648 35.318 258.668C35.4515 259.247 36.208 259.006 36.1012 258.428C35.6384 256.336 35.2112 254.218 34.9087 252.091C34.6061 249.964 34.5883 247.953 34.3391 245.862C34.0899 243.77 33.5649 241.67 33.4492 239.481C33.3335 237.292 33.4492 235.218 33.4492 233.082C33.4492 228.757 33.5559 224.45 33.8852 220.142C34.1028 215.917 34.6503 211.716 35.5227 207.576C36.0152 205.595 36.6092 203.641 37.3026 201.72C37.9375 199.816 38.4693 197.879 38.8956 195.918C39.2985 194.022 39.8368 192.157 40.5064 190.338C41.3026 188.521 42.2275 186.763 43.2742 185.078C44.3065 183.236 45.3122 181.358 46.2644 179.454C47.0346 177.668 47.9266 175.938 48.9342 174.274C49.9286 172.9 50.7785 171.427 51.4706 169.878C52.1151 168.195 52.8887 166.565 53.7844 165.001C54.7302 163.323 55.5887 161.597 56.3564 159.831C57.1963 158.11 57.8957 156.324 58.4478 154.491C59.0262 152.506 59.8895 150.744 60.637 148.84C61.2193 147.053 61.6714 145.227 61.9897 143.375C62.9331 139.406 64.4371 135.642 65.4249 131.69C65.95 129.599 66.395 127.481 66.7688 125.354C67.1426 123.227 67.3027 121.136 67.6587 119.062C68.0932 117.227 68.3906 115.362 68.5487 113.482C68.6377 111.311 68.4063 109.139 68.5487 106.968C68.6911 104.796 69.2428 102.58 69.5009 100.373C69.6805 98.3345 69.731 96.2865 69.6522 94.2415C69.6077 90.0765 69.6522 85.9472 69.7946 81.7822C69.8803 79.7467 69.8417 77.708 69.6789 75.6772Z" fill="#ABD3A6"/>
<path d="M34.0987 241.741C30.8593 240.851 28.0471 238.653 25.3149 236.5L2.36319 218.398C1.45659 217.798 0.720787 216.973 0.227319 216.004C-0.208755 214.972 -0.0307561 213.512 0.87699 212.996C1.44033 212.752 2.07387 212.723 2.65688 212.916C16.2553 215.799 28.2784 226.71 34.0987 241.741Z" fill="#ABD3A6"/>
<path d="M33.5647 240.513C39.8922 241.786 46.2554 243.058 52.6808 243.032C54.9857 243.032 57.442 242.774 59.2486 241.163C61.0552 239.552 61.7404 236.126 60.0584 234.355C59.0309 233.462 57.6984 232.999 56.3385 233.064C48.062 232.584 39.6786 234.773 33.5647 240.513Z" fill="#ABD3A6"/>
<path d="M32.8529 229.869C21.9511 219.76 10.6755 209.116 4.85522 194.574C11.7423 198.157 17.796 203.152 22.6205 209.234C27.445 215.316 30.9318 222.348 32.8529 229.869Z" fill="#ABD3A6"/>
<path d="M34.0988 229.006C41.0575 230.289 48.1908 230.304 55.1549 229.051C56.8426 228.867 58.4501 228.234 59.8094 227.217C60.5157 226.628 61.0338 225.844 61.2995 224.963C61.5653 224.082 61.567 223.142 61.3045 222.26C60.37 219.795 57.3798 219.591 55.0214 219.893C50.3996 220.439 45.8046 221.201 41.2362 222.18C37.8455 222.91 33.8407 224.414 34.0988 229.006Z" fill="#ABD3A6"/>
<path d="M33.5557 214.66C26.8051 208.173 20.5212 201.217 14.7511 193.844C12.5707 191.068 10.3904 188.069 9.64282 184.446C12.108 183.503 14.6354 185.461 16.6645 187.294C20.7493 191.005 24.852 194.752 28.2338 199.309C31.6156 203.865 34.1164 209.338 33.5557 214.66Z" fill="#ABD3A6"/>
<path d="M34.6328 215.479C42.8203 216.838 51.0404 217.917 59.2932 218.718C60.9841 218.887 63.0577 218.816 63.8675 217.125C64.1441 216.376 64.1705 215.558 63.9426 214.792C63.7148 214.027 63.245 213.356 62.6038 212.88C61.3588 212.089 59.9226 211.649 58.4478 211.608L39.5809 209.499C38.3875 209.247 37.1458 209.365 36.0211 209.837C34.8998 210.388 34.1344 212.026 34.6328 215.479Z" fill="#ABD3A6"/>
<path d="M35.4603 204.986C29.8537 195.998 24.6742 186.686 19.9219 177.051C18.6937 174.568 17.4745 171.631 18.4089 168.997C20.4647 168.187 22.4493 170.27 23.7486 172.21C30.3787 181.803 34.8908 193.141 35.4603 204.986Z" fill="#ABD3A6"/>
<path d="M36.1812 205.049L55.8579 207.55C59.5423 208.021 63.4313 208.44 66.7953 206.713C67.4806 206.357 68.2282 205.725 68.157 204.88C68.0769 203.892 67.0178 203.491 66.1546 203.331C55.8757 201.489 45.3209 201.391 36.1812 205.049Z" fill="#ABD3A6"/>
<path d="M38.1924 197.155C35.3446 184.957 32.6747 172.702 30.1829 160.391C32.6658 159.911 35.1132 161.7 36.5994 164.013C39.2692 168.116 39.4739 173.527 39.6252 178.6C39.821 185.301 40.0079 192.002 38.1924 197.155Z" fill="#ABD3A6"/>
<path d="M40.2125 198.49L68.4861 199.656C70.3105 199.727 72.4909 199.602 73.4342 197.831C74.3776 196.06 73.4342 193.791 71.9836 192.705C70.533 191.619 68.673 191.468 66.9287 191.37C61.2687 191.056 55.6086 191.023 49.9485 191.272C47.8534 191.241 45.7718 191.613 43.8168 192.367C41.8856 193.239 40.168 194.992 40.2125 198.49Z" fill="#ABD3A6"/>
<path d="M40.0081 197.698C43.0072 191.762 43.5055 184.607 43.025 177.799C42.5444 170.991 41.1739 164.289 40.6933 157.472C40.4867 155.842 40.6108 154.186 41.0582 152.604C41.5922 151.074 42.8381 149.756 44.3065 149.792C46.6648 149.845 47.8663 153.031 48.2312 155.666C49.5483 164.521 48.6049 173.785 40.0081 197.698Z" fill="#ABD3A6"/>
<path d="M46.1219 180.94C51.2302 182.053 56.3829 183.174 61.5802 182.951C66.7775 182.729 72.0816 181.038 75.9796 177.14C76.4889 176.693 76.8698 176.119 77.0831 175.476C77.5014 173.901 76.1932 172.388 74.9205 171.676C72.5533 170.368 69.83 170.305 67.1958 170.332C62.7016 170.385 58.1094 170.635 53.9267 172.486C49.7439 174.337 45.9617 178.057 46.1219 180.94Z" fill="#ABD3A6"/>
<path d="M54.5674 164.245C61.6392 165.323 68.8581 164.92 75.7659 163.061C78.507 162.331 81.7998 160.391 81.4794 157.25C81.1857 154.277 77.9196 153.094 75.2498 153.014C66.8665 152.764 58.4831 156.929 54.5674 164.245Z" fill="#ABD3A6"/>
<path d="M56.0449 160.747C55.9025 148.288 51.1235 136.033 43.1229 127.526C42.3397 126.698 41.2184 125.852 40.284 126.44C39.1537 127.161 39.5364 129.11 40.0615 130.418C44.6625 142.076 49.2635 153.734 56.0449 160.747Z" fill="#ABD3A6"/>
<path d="M61.6335 146.116C71.1293 150.13 82.6007 147.22 89.6758 138.997C79.5126 134.743 67.4182 137.137 61.6335 146.116Z" fill="#ABD3A6"/>
<path d="M61.7051 146.597C62.3151 140.505 62.0151 134.357 60.8151 128.353C59.4891 122.426 56.7748 116.784 52.5742 112.904C50.7498 111.222 47.7685 110.047 46.2734 112.112C45.1075 113.74 45.8017 116.143 46.5671 118.039C50.6128 128.056 55.6859 137.626 61.7051 146.597Z" fill="#ABD3A6"/>
<path d="M65.7363 129.101C73.3826 131.738 81.3862 133.193 89.4712 133.417C91.4914 133.47 94.1701 132.812 94.2947 130.525C94.2722 129.886 94.0993 129.261 93.7901 128.701C93.4808 128.141 93.0439 127.662 92.5148 127.303C88.8037 124.322 83.9268 124.01 79.3792 124.402C74.4222 124.82 69.5364 125.924 65.7363 129.101Z" fill="#ABD3A6"/>
<path d="M66.0477 120.691C66.5817 110.341 63.0842 99.7947 56.6677 92.3904C56.2819 91.8626 55.7541 91.4553 55.1459 91.2156C54.6248 91.1456 54.0955 91.2581 53.6478 91.5338C53.2001 91.8096 52.8616 92.2317 52.6897 92.7286C52.2902 93.7962 52.1767 94.9497 52.3604 96.0747C52.7431 99.7947 54.2204 103.239 55.7066 106.585C59.0261 114.061 62.4791 121.465 66.0477 120.691Z" fill="#ABD3A6"/>
<path d="M69.5364 104.885C75.2278 107.956 81.86 108.794 88.1363 107.235C90.1763 106.862 92.0266 105.8 93.3781 104.227C94.6685 102.509 94.9355 99.6345 93.4759 98.0949C92.496 97.2268 91.225 96.7597 89.9162 96.7867C82.2982 96.2438 74.5913 98.5933 69.5364 104.885Z" fill="#ABD3A6"/>
<path d="M68.0146 103.533C68.9046 97.9526 69.5898 92.0967 68.0769 86.6858C66.2525 80.1981 61.1976 75.0097 55.315 73.5858C54.4251 81.2305 58.2786 88.4568 62.0786 94.8555C64.1255 98.2996 66.1902 101.726 68.0146 103.533Z" fill="#ABD3A6"/>
<path d="M69.5364 75.8908C72.4827 77.2927 75.7638 77.8384 79.0053 77.4654C82.2468 77.0925 85.3183 75.816 87.8693 73.7816C89.4324 72.6778 90.5918 71.0933 91.171 69.2696C91.6783 67.3651 91.0375 64.9622 89.3911 64.1969C88.7912 63.9923 88.1546 63.9182 87.5238 63.9796C86.893 64.041 86.2826 64.2364 85.7334 64.5528C79.397 67.4007 74.7693 74.3156 69.5364 75.8908Z" fill="#ABD3A6"/>
<path d="M68.6909 75.5259C67.8009 67.1782 62.6749 59.587 55.8045 56.4188C54.8807 55.8894 53.8016 55.6975 52.752 55.8759C52.2105 56.0289 51.7417 56.3704 51.4299 56.8388C51.1182 57.3071 50.9843 57.8715 51.0522 58.43C51.2253 59.0519 51.56 59.6169 52.0222 60.0675L55.4307 63.9655C60.1207 69.3319 65.0866 74.8852 68.6909 75.5259Z" fill="#ABD3A6"/>
<path d="M67.5786 60.7439C73.4689 57.2723 77.9444 51.8324 80.2159 45.3835C80.9723 43.301 81.1681 40.2396 79.3259 39.4475C78.3114 39.0204 77.1811 39.581 76.2912 40.2752C70.996 44.4223 69.9014 52.6187 67.5786 60.7439Z" fill="#ABD3A6"/>
<path d="M68.0413 60.9842C63.6716 50.5985 55.0747 42.6068 45.2319 39.7767C46.7626 45.1787 51.1501 48.783 55.2883 51.9779C59.343 55.2488 63.6026 58.257 68.0413 60.9842Z" fill="#ABD3A6"/>
<path d="M63.6095 40.9248C69.4208 34.6952 72.7492 25.591 72.509 16.5314C71.8326 15.6414 70.5778 16.4779 69.8391 17.3412C65.0868 23.3483 62.417 31.5981 63.6095 40.9248Z" fill="#ABD3A6"/>
<path d="M62.6926 40.9603C60.53 32.9953 54.6831 26.4275 47.6525 24.0513C46.4947 23.5577 45.2076 23.4547 43.9859 23.7577C43.3486 23.977 42.8011 24.3999 42.428 24.9612C42.0548 25.5225 41.8768 26.191 41.9212 26.8636C42.1006 27.7449 42.5373 28.5532 43.1761 29.1863C48.9607 35.8787 56.9525 40.0971 62.6926 40.9603Z" fill="#ABD3A6"/>
<path d="M58.4479 26.1072C61.5538 18.8541 64.6775 11.245 64.4906 3.19102C64.4906 1.97179 64.1791 0.521179 63.1557 0.102904C62.1322 -0.315371 61.1711 0.619088 60.4858 1.50904C54.9415 8.62861 53.829 19.7529 58.4479 26.1072Z" fill="#ABD3A6"/>
</svg>
